<?plantuml 1.2026.2?><svg xmlns="http://www.w3.org/2000/svg" xmlns:xlink="http://www.w3.org/1999/xlink" contentStyleType="text/css" data-diagram-type="CLASS" height="890px" preserveAspectRatio="none" style="width:2123px;height:890px;background:#FFFFFF;" version="1.1" viewBox="0 0 2123 890" width="2123px" zoomAndPan="magnify"><title>EventMate Authentication and Security Subsystem - Static Structure</title><defs/><g><g class="title" data-source-line="1"><text fill="#000000" font-family="sans-serif" font-size="14" font-weight="bold" lengthAdjust="spacing" textLength="455.0957" x="827.4143" y="24.0752">EventMate Authentication and Security Subsystem - Static Structure</text></g><!--cluster Frontend--><g class="cluster" data-qualified-name="Frontend" data-source-line="8" id="ent0002"><path d="M8.5,354.1514 L70.1553,354.1514 A3.75,3.75 0 0 1 72.6553,356.6514 L79.6553,377.3027 L733.5,377.3027 A2.5,2.5 0 0 1 736,379.8027 L736,674.6514 A2.5,2.5 0 0 1 733.5,677.1514 L8.5,677.1514 A2.5,2.5 0 0 1 6,674.6514 L6,356.6514 A2.5,2.5 0 0 1 8.5,354.1514" fill="none" style="stroke:#000000;stroke-width:1.5;"/><line style="stroke:#000000;stroke-width:1.5;" x1="6" x2="79.6553" y1="377.3027" y2="377.3027"/><text fill="#000000" font-family="sans-serif" font-size="14" font-weight="bold" lengthAdjust="spacing" textLength="60.6553" x="10" y="370.2266">Frontend</text></g><!--cluster Backend--><g class="cluster" data-qualified-name="Backend" data-source-line="38" id="ent0009"><path d="M766.5,195.1514 L825.8584,195.1514 A3.75,3.75 0 0 1 828.3584,197.6514 L835.3584,218.3027 L1817.5,218.3027 A2.5,2.5 0 0 1 1820,220.8027 L1820,880.6514 A2.5,2.5 0 0 1 1817.5,883.1514 L766.5,883.1514 A2.5,2.5 0 0 1 764,880.6514 L764,197.6514 A2.5,2.5 0 0 1 766.5,195.1514" fill="none" style="stroke:#000000;stroke-width:1.5;"/><line style="stroke:#000000;stroke-width:1.5;" x1="764" x2="835.3584" y1="218.3027" y2="218.3027"/><text fill="#000000" font-family="sans-serif" font-size="14" font-weight="bold" lengthAdjust="spacing" textLength="58.3584" x="768" y="211.2266">Backend</text></g><!--class LoginModal--><g class="entity" data-qualified-name="Frontend.LoginModal" data-source-line="9" id="ent0003"><rect fill="#F1F1F1" height="75.0039" rx="2.5" ry="2.5" style="stroke:#181818;stroke-width:0.5;" width="135.4023" x="30.5" y="463.6514"/><ellipse cx="45.5" cy="484.5776" fill="#ADD1B2" rx="11" ry="11" style="stroke:#181818;stroke-width:1;"/><path d="M48.2656,480.4526 Q48.4219,480.2339 48.6094,480.1245 Q48.7969,480.0151 49.0156,480.0151 Q49.3906,480.0151 49.625,480.2808 Q49.8594,480.5308 49.8594,481.1401 L49.8594,482.5933 Q49.8594,483.2026 49.625,483.4683 Q49.3906,483.7339 49.0156,483.7339 Q48.6719,483.7339 48.4688,483.5308 Q48.2656,483.3433 48.1563,482.8276 Q48.1094,482.4683 47.9219,482.2808 Q47.5938,481.9058 46.9844,481.687 Q46.375,481.4683 45.75,481.4683 Q44.9844,481.4683 44.3438,481.7964 Q43.7188,482.1245 43.2188,482.8745 Q42.7344,483.6245 42.7344,484.6558 L42.7344,485.7495 Q42.7344,486.9839 43.625,487.812 Q44.5156,488.6245 46.1094,488.6245 Q47.0469,488.6245 47.7031,488.3745 Q48.0938,488.2183 48.5156,487.7808 Q48.7813,487.5151 48.9219,487.437 Q49.0781,487.3589 49.2813,487.3589 Q49.6094,487.3589 49.8594,487.6245 Q50.125,487.8745 50.125,488.2183 Q50.125,488.562 49.7813,488.9683 Q49.2813,489.5464 48.4844,489.8745 Q47.4063,490.3276 46.1094,490.3276 Q44.5938,490.3276 43.3906,489.7026 Q42.4063,489.2026 41.7188,488.1401 Q41.0313,487.062 41.0313,485.7808 L41.0313,484.6245 Q41.0313,483.2964 41.6406,482.1558 Q42.2656,480.9995 43.3594,480.3901 Q44.4531,479.7651 45.6875,479.7651 Q46.4219,479.7651 47.0625,479.937 Q47.7188,480.0933 48.2656,480.4526 Z " fill="#000000"/><text fill="#000000" font-family="sans-serif" font-size="12" font-style="italic" lengthAdjust="spacing" textLength="107.4023" x="57.5" y="480.7158">&#171;React component&#187;</text><text fill="#000000" font-family="sans-serif" font-size="14" lengthAdjust="spacing" textLength="72.3857" x="75.0083" y="497.4277">LoginModal</text><line style="stroke:#181818;stroke-width:0.5;" x1="31.5" x2="164.9023" y1="505.5039" y2="505.5039"/><line style="stroke:#181818;stroke-width:0.5;" x1="31.5" x2="164.9023" y1="513.5039" y2="513.5039"/><text fill="#000000" font-family="sans-serif" font-size="14" lengthAdjust="spacing" textLength="92.9893" x="36.5" y="531.5791">+submitLogin()</text></g><!--class RegisterModal--><g class="entity" data-qualified-name="Frontend.RegisterModal" data-source-line="12" id="ent0004"><rect fill="#F1F1F1" height="92.1553" rx="2.5" ry="2.5" style="stroke:#181818;stroke-width:0.5;" width="152.458" x="245.5" y="399.1514"/><ellipse cx="268.175" cy="420.0776" fill="#ADD1B2" rx="11" ry="11" style="stroke:#181818;stroke-width:1;"/><path d="M270.9407,415.9526 Q271.0969,415.7339 271.2844,415.6245 Q271.4719,415.5151 271.6907,415.5151 Q272.0657,415.5151 272.3,415.7808 Q272.5344,416.0308 272.5344,416.6401 L272.5344,418.0933 Q272.5344,418.7026 272.3,418.9683 Q272.0657,419.2339 271.6907,419.2339 Q271.3469,419.2339 271.1438,419.0308 Q270.9407,418.8433 270.8313,418.3276 Q270.7844,417.9683 270.5969,417.7808 Q270.2688,417.4058 269.6594,417.187 Q269.05,416.9683 268.425,416.9683 Q267.6594,416.9683 267.0188,417.2964 Q266.3938,417.6245 265.8938,418.3745 Q265.4094,419.1245 265.4094,420.1558 L265.4094,421.2495 Q265.4094,422.4839 266.3,423.312 Q267.1907,424.1245 268.7844,424.1245 Q269.7219,424.1245 270.3782,423.8745 Q270.7688,423.7183 271.1907,423.2808 Q271.4563,423.0151 271.5969,422.937 Q271.7532,422.8589 271.9563,422.8589 Q272.2844,422.8589 272.5344,423.1245 Q272.8,423.3745 272.8,423.7183 Q272.8,424.062 272.4563,424.4683 Q271.9563,425.0464 271.1594,425.3745 Q270.0813,425.8276 268.7844,425.8276 Q267.2688,425.8276 266.0657,425.2026 Q265.0813,424.7026 264.3938,423.6401 Q263.7063,422.562 263.7063,421.2808 L263.7063,420.1245 Q263.7063,418.7964 264.3157,417.6558 Q264.9407,416.4995 266.0344,415.8901 Q267.1282,415.2651 268.3625,415.2651 Q269.0969,415.2651 269.7375,415.437 Q270.3938,415.5933 270.9407,415.9526 Z " fill="#000000"/><text fill="#000000" font-family="sans-serif" font-size="12" font-style="italic" lengthAdjust="spacing" textLength="107.4023" x="281.8806" y="416.2158">&#171;React component&#187;</text><text fill="#000000" font-family="sans-serif" font-size="14" lengthAdjust="spacing" textLength="90.2617" x="290.4509" y="432.9277">RegisterModal</text><line style="stroke:#181818;stroke-width:0.5;" x1="246.5" x2="396.958" y1="441.0039" y2="441.0039"/><line style="stroke:#181818;stroke-width:0.5;" x1="246.5" x2="396.958" y1="449.0039" y2="449.0039"/><text fill="#000000" font-family="sans-serif" font-size="14" lengthAdjust="spacing" textLength="140.458" x="251.5" y="467.0791">+validateRegistration()</text><text fill="#000000" font-family="sans-serif" font-size="14" lengthAdjust="spacing" textLength="133.4375" x="251.5" y="484.2305">+submitRegistration()</text></g><!--class ProtectedRoute--><g class="entity" data-qualified-name="Frontend.ProtectedRoute" data-source-line="16" id="ent0005"><rect fill="#F1F1F1" height="75.0039" rx="2.5" ry="2.5" style="stroke:#181818;stroke-width:0.5;" width="151.6787" x="22" y="573.6514"/><ellipse cx="44.3244" cy="594.5776" fill="#ADD1B2" rx="11" ry="11" style="stroke:#181818;stroke-width:1;"/><path d="M47.09,590.4526 Q47.2462,590.2339 47.4337,590.1245 Q47.6212,590.0151 47.84,590.0151 Q48.215,590.0151 48.4494,590.2808 Q48.6837,590.5308 48.6837,591.1401 L48.6837,592.5933 Q48.6837,593.2026 48.4494,593.4683 Q48.215,593.7339 47.84,593.7339 Q47.4962,593.7339 47.2931,593.5308 Q47.09,593.3433 46.9806,592.8276 Q46.9337,592.4683 46.7462,592.2808 Q46.4181,591.9058 45.8087,591.687 Q45.1994,591.4683 44.5744,591.4683 Q43.8087,591.4683 43.1681,591.7964 Q42.5431,592.1245 42.0431,592.8745 Q41.5587,593.6245 41.5587,594.6558 L41.5587,595.7495 Q41.5587,596.9839 42.4494,597.812 Q43.34,598.6245 44.9337,598.6245 Q45.8712,598.6245 46.5275,598.3745 Q46.9181,598.2183 47.34,597.7808 Q47.6056,597.5151 47.7462,597.437 Q47.9025,597.3589 48.1056,597.3589 Q48.4337,597.3589 48.6837,597.6245 Q48.9494,597.8745 48.9494,598.2183 Q48.9494,598.562 48.6056,598.9683 Q48.1056,599.5464 47.3087,599.8745 Q46.2306,600.3276 44.9337,600.3276 Q43.4181,600.3276 42.215,599.7026 Q41.2306,599.2026 40.5431,598.1401 Q39.8556,597.062 39.8556,595.7808 L39.8556,594.6245 Q39.8556,593.2964 40.465,592.1558 Q41.09,590.9995 42.1837,590.3901 Q43.2775,589.7651 44.5119,589.7651 Q45.2462,589.7651 45.8869,589.937 Q46.5431,590.0933 47.09,590.4526 Z " fill="#000000"/><text fill="#000000" font-family="sans-serif" font-size="12" font-style="italic" lengthAdjust="spacing" textLength="107.4023" x="57.952" y="590.7158">&#171;React component&#187;</text><text fill="#000000" font-family="sans-serif" font-size="14" lengthAdjust="spacing" textLength="97.2822" x="63.0121" y="607.4277">ProtectedRoute</text><line style="stroke:#181818;stroke-width:0.5;" x1="23" x2="172.6787" y1="615.5039" y2="615.5039"/><line style="stroke:#181818;stroke-width:0.5;" x1="23" x2="172.6787" y1="623.5039" y2="623.5039"/><text fill="#000000" font-family="sans-serif" font-size="14" lengthAdjust="spacing" textLength="139.6787" x="28" y="641.5791">+verifyAuthentication()</text></g><!--class AuthProvider--><g class="entity" data-qualified-name="Frontend.AuthProvider" data-source-line="19" id="ent0006"><rect fill="#F1F1F1" height="126.458" rx="2.5" ry="2.5" style="stroke:#181818;stroke-width:0.5;" width="175.0645" x="234" y="531.1514"/><ellipse cx="276.1556" cy="552.0776" fill="#ADD1B2" rx="11" ry="11" style="stroke:#181818;stroke-width:1;"/><path d="M278.9212,547.9526 Q279.0774,547.7339 279.2649,547.6245 Q279.4524,547.5151 279.6712,547.5151 Q280.0462,547.5151 280.2806,547.7808 Q280.5149,548.0308 280.5149,548.6401 L280.5149,550.0933 Q280.5149,550.7026 280.2806,550.9683 Q280.0462,551.2339 279.6712,551.2339 Q279.3274,551.2339 279.1243,551.0308 Q278.9212,550.8433 278.8118,550.3276 Q278.7649,549.9683 278.5774,549.7808 Q278.2493,549.4058 277.6399,549.187 Q277.0306,548.9683 276.4056,548.9683 Q275.6399,548.9683 274.9993,549.2964 Q274.3743,549.6245 273.8743,550.3745 Q273.3899,551.1245 273.3899,552.1558 L273.3899,553.2495 Q273.3899,554.4839 274.2806,555.312 Q275.1712,556.1245 276.7649,556.1245 Q277.7024,556.1245 278.3587,555.8745 Q278.7493,555.7183 279.1712,555.2808 Q279.4368,555.0151 279.5774,554.937 Q279.7337,554.8589 279.9368,554.8589 Q280.2649,554.8589 280.5149,555.1245 Q280.7806,555.3745 280.7806,555.7183 Q280.7806,556.062 280.4368,556.4683 Q279.9368,557.0464 279.1399,557.3745 Q278.0618,557.8276 276.7649,557.8276 Q275.2493,557.8276 274.0462,557.2026 Q273.0618,556.7026 272.3743,555.6401 Q271.6868,554.562 271.6868,553.2808 L271.6868,552.1245 Q271.6868,550.7964 272.2962,549.6558 Q272.9212,548.4995 274.0149,547.8901 Q275.1087,547.2651 276.3431,547.2651 Q277.0774,547.2651 277.7181,547.437 Q278.3743,547.5933 278.9212,547.9526 Z " fill="#000000"/><text fill="#000000" font-family="sans-serif" font-size="12" font-style="italic" lengthAdjust="spacing" textLength="86.7188" x="294.1901" y="548.2158">&#171;React context&#187;</text><text fill="#000000" font-family="sans-serif" font-size="14" lengthAdjust="spacing" textLength="80.9307" x="297.0842" y="564.9277">AuthProvider</text><line style="stroke:#181818;stroke-width:0.5;" x1="235" x2="408.0645" y1="573.0039" y2="573.0039"/><text fill="#000000" font-family="sans-serif" font-size="14" lengthAdjust="spacing" textLength="83.6514" x="240" y="591.0791">+user: Object</text><text fill="#000000" font-family="sans-serif" font-size="14" lengthAdjust="spacing" textLength="163.0645" x="240" y="608.2305">+isAuthenticated: Boolean</text><line style="stroke:#181818;stroke-width:0.5;" x1="235" x2="408.0645" y1="615.3066" y2="615.3066"/><text fill="#000000" font-family="sans-serif" font-size="14" lengthAdjust="spacing" textLength="114.7822" x="240" y="633.3818">+login(credentials)</text><text fill="#000000" font-family="sans-serif" font-size="14" lengthAdjust="spacing" textLength="55.6445" x="240" y="650.5332">+logout()</text></g><!--class authServices--><g class="entity" data-qualified-name="Frontend.authServices" data-source-line="25" id="ent0007"><rect fill="#F1F1F1" height="109.3066" rx="2.5" ry="2.5" style="stroke:#181818;stroke-width:0.5;" width="132.9893" x="528" y="390.6514"/><ellipse cx="547.9232" cy="411.5776" fill="#ADD1B2" rx="11" ry="11" style="stroke:#181818;stroke-width:1;"/><path d="M550.6888,407.4526 Q550.8451,407.2339 551.0326,407.1245 Q551.2201,407.0151 551.4388,407.0151 Q551.8138,407.0151 552.0482,407.2808 Q552.2826,407.5308 552.2826,408.1401 L552.2826,409.5933 Q552.2826,410.2026 552.0482,410.4683 Q551.8138,410.7339 551.4388,410.7339 Q551.0951,410.7339 550.8919,410.5308 Q550.6888,410.3433 550.5794,409.8276 Q550.5326,409.4683 550.3451,409.2808 Q550.0169,408.9058 549.4076,408.687 Q548.7982,408.4683 548.1732,408.4683 Q547.4076,408.4683 546.7669,408.7964 Q546.1419,409.1245 545.6419,409.8745 Q545.1576,410.6245 545.1576,411.6558 L545.1576,412.7495 Q545.1576,413.9839 546.0482,414.812 Q546.9388,415.6245 548.5326,415.6245 Q549.4701,415.6245 550.1263,415.3745 Q550.5169,415.2183 550.9388,414.7808 Q551.2044,414.5151 551.3451,414.437 Q551.5013,414.3589 551.7044,414.3589 Q552.0326,414.3589 552.2826,414.6245 Q552.5482,414.8745 552.5482,415.2183 Q552.5482,415.562 552.2044,415.9683 Q551.7044,416.5464 550.9076,416.8745 Q549.8294,417.3276 548.5326,417.3276 Q547.0169,417.3276 545.8138,416.7026 Q544.8294,416.2026 544.1419,415.1401 Q543.4544,414.062 543.4544,412.7808 L543.4544,411.6245 Q543.4544,410.2964 544.0638,409.1558 Q544.6888,407.9995 545.7826,407.3901 Q546.8763,406.7651 548.1107,406.7651 Q548.8451,406.7651 549.4857,406.937 Q550.1419,407.0933 550.6888,407.4526 Z " fill="#000000"/><text fill="#000000" font-family="sans-serif" font-size="12" font-style="italic" lengthAdjust="spacing" textLength="94.0488" x="561.0172" y="407.7158">&#171;service module&#187;</text><text fill="#000000" font-family="sans-serif" font-size="14" lengthAdjust="spacing" textLength="80.9307" x="567.5763" y="424.4277">authServices</text><line style="stroke:#181818;stroke-width:0.5;" x1="529" x2="659.9893" y1="432.5039" y2="432.5039"/><line style="stroke:#181818;stroke-width:0.5;" x1="529" x2="659.9893" y1="440.5039" y2="440.5039"/><text fill="#000000" font-family="sans-serif" font-size="14" lengthAdjust="spacing" textLength="114.7822" x="534" y="458.5791">+login(credentials)</text><text fill="#000000" font-family="sans-serif" font-size="14" lengthAdjust="spacing" textLength="120.9893" x="534" y="475.7305">+register(userData)</text><text fill="#000000" font-family="sans-serif" font-size="14" lengthAdjust="spacing" textLength="55.6445" x="534" y="492.8818">+logout()</text></g><!--class userServices--><g class="entity" data-qualified-name="Frontend.userServices" data-source-line="30" id="ent0008"><rect fill="#F1F1F1" height="126.458" rx="2.5" ry="2.5" style="stroke:#181818;stroke-width:0.5;" width="251.292" x="469" y="535.1514"/><ellipse cx="545.3716" cy="556.0776" fill="#ADD1B2" rx="11" ry="11" style="stroke:#181818;stroke-width:1;"/><path d="M548.1372,551.9526 Q548.2935,551.7339 548.481,551.6245 Q548.6685,551.5151 548.8872,551.5151 Q549.2622,551.5151 549.4966,551.7808 Q549.731,552.0308 549.731,552.6401 L549.731,554.0933 Q549.731,554.7026 549.4966,554.9683 Q549.2622,555.2339 548.8872,555.2339 Q548.5435,555.2339 548.3403,555.0308 Q548.1372,554.8433 548.0278,554.3276 Q547.981,553.9683 547.7935,553.7808 Q547.4653,553.4058 546.856,553.187 Q546.2466,552.9683 545.6216,552.9683 Q544.856,552.9683 544.2153,553.2964 Q543.5903,553.6245 543.0903,554.3745 Q542.606,555.1245 542.606,556.1558 L542.606,557.2495 Q542.606,558.4839 543.4966,559.312 Q544.3872,560.1245 545.981,560.1245 Q546.9185,560.1245 547.5747,559.8745 Q547.9653,559.7183 548.3872,559.2808 Q548.6528,559.0151 548.7935,558.937 Q548.9497,558.8589 549.1528,558.8589 Q549.481,558.8589 549.731,559.1245 Q549.9966,559.3745 549.9966,559.7183 Q549.9966,560.062 549.6528,560.4683 Q549.1528,561.0464 548.356,561.3745 Q547.2778,561.8276 545.981,561.8276 Q544.4653,561.8276 543.2622,561.2026 Q542.2778,560.7026 541.5903,559.6401 Q540.9028,558.562 540.9028,557.2808 L540.9028,556.1245 Q540.9028,554.7964 541.5122,553.6558 Q542.1372,552.4995 543.231,551.8901 Q544.3247,551.2651 545.5591,551.2651 Q546.2935,551.2651 546.9341,551.437 Q547.5903,551.5933 548.1372,551.9526 Z " fill="#000000"/><text fill="#000000" font-family="sans-serif" font-size="12" font-style="italic" lengthAdjust="spacing" textLength="94.0488" x="563.8716" y="552.2158">&#171;service module&#187;</text><text fill="#000000" font-family="sans-serif" font-size="14" lengthAdjust="spacing" textLength="80.917" x="570.4375" y="568.9277">userServices</text><line style="stroke:#181818;stroke-width:0.5;" x1="470" x2="719.292" y1="577.0039" y2="577.0039"/><line style="stroke:#181818;stroke-width:0.5;" x1="470" x2="719.292" y1="585.0039" y2="585.0039"/><text fill="#000000" font-family="sans-serif" font-size="14" lengthAdjust="spacing" textLength="113.2031" x="475" y="603.0791">+getCurrentUser()</text><text fill="#000000" font-family="sans-serif" font-size="14" lengthAdjust="spacing" textLength="146.6855" x="475" y="620.2305">+updateUser(userData)</text><text fill="#000000" font-family="sans-serif" font-size="14" lengthAdjust="spacing" textLength="239.292" x="475" y="637.3818">+updateUserPreferences(preferences)</text><text fill="#000000" font-family="sans-serif" font-size="14" lengthAdjust="spacing" textLength="85.2031" x="475" y="654.5332">+deleteUser()</text></g><!--class AuthRoutes--><g class="entity" data-qualified-name="Backend.AuthRoutes" data-source-line="39" id="ent0010"><rect fill="#F1F1F1" height="109.3066" rx="2.5" ry="2.5" style="stroke:#181818;stroke-width:0.5;" width="119.377" x="852.5" y="263.6514"/><ellipse cx="867.5" cy="284.5776" fill="#ADD1B2" rx="11" ry="11" style="stroke:#181818;stroke-width:1;"/><path d="M870.2656,280.4526 Q870.4219,280.2339 870.6094,280.1245 Q870.7969,280.0151 871.0156,280.0151 Q871.3906,280.0151 871.625,280.2808 Q871.8594,280.5308 871.8594,281.1401 L871.8594,282.5933 Q871.8594,283.2026 871.625,283.4683 Q871.3906,283.7339 871.0156,283.7339 Q870.6719,283.7339 870.4688,283.5308 Q870.2656,283.3433 870.1563,282.8276 Q870.1094,282.4683 869.9219,282.2808 Q869.5938,281.9058 868.9844,281.687 Q868.375,281.4683 867.75,281.4683 Q866.9844,281.4683 866.3438,281.7964 Q865.7188,282.1245 865.2188,282.8745 Q864.7344,283.6245 864.7344,284.6558 L864.7344,285.7495 Q864.7344,286.9839 865.625,287.812 Q866.5156,288.6245 868.1094,288.6245 Q869.0469,288.6245 869.7031,288.3745 Q870.0938,288.2183 870.5156,287.7808 Q870.7813,287.5151 870.9219,287.437 Q871.0781,287.3589 871.2813,287.3589 Q871.6094,287.3589 871.8594,287.6245 Q872.125,287.8745 872.125,288.2183 Q872.125,288.562 871.7813,288.9683 Q871.2813,289.5464 870.4844,289.8745 Q869.4063,290.3276 868.1094,290.3276 Q866.5938,290.3276 865.3906,289.7026 Q864.4063,289.2026 863.7188,288.1401 Q863.0313,287.062 863.0313,285.7808 L863.0313,284.6245 Q863.0313,283.2964 863.6406,282.1558 Q864.2656,280.9995 865.3594,280.3901 Q866.4531,279.7651 867.6875,279.7651 Q868.4219,279.7651 869.0625,279.937 Q869.7188,280.0933 870.2656,280.4526 Z " fill="#000000"/><text fill="#000000" font-family="sans-serif" font-size="12" font-style="italic" lengthAdjust="spacing" textLength="91.377" x="879.5" y="280.7158">&#171;Express router&#187;</text><text fill="#000000" font-family="sans-serif" font-size="14" lengthAdjust="spacing" textLength="73.1582" x="888.6094" y="297.4277">AuthRoutes</text><line style="stroke:#181818;stroke-width:0.5;" x1="853.5" x2="970.877" y1="305.5039" y2="305.5039"/><text fill="#000000" font-family="sans-serif" font-size="14" lengthAdjust="spacing" textLength="100.7549" x="858.5" y="323.5791">+POST /register</text><text fill="#000000" font-family="sans-serif" font-size="14" lengthAdjust="spacing" textLength="83.6514" x="858.5" y="340.7305">+POST /login</text><text fill="#000000" font-family="sans-serif" font-size="14" lengthAdjust="spacing" textLength="92.2168" x="858.5" y="357.8818">+POST /logout</text><line style="stroke:#181818;stroke-width:0.5;" x1="853.5" x2="970.877" y1="364.958" y2="364.958"/></g><!--class UserRoutes--><g class="entity" data-qualified-name="Backend.UserRoutes" data-source-line="44" id="ent0011"><rect fill="#F1F1F1" height="126.458" rx="2.5" ry="2.5" style="stroke:#181818;stroke-width:0.5;" width="263.7539" x="780" y="567.1514"/><ellipse cx="863.9385" cy="588.0776" fill="#ADD1B2" rx="11" ry="11" style="stroke:#181818;stroke-width:1;"/><path d="M866.7041,583.9526 Q866.8604,583.7339 867.0479,583.6245 Q867.2354,583.5151 867.4541,583.5151 Q867.8291,583.5151 868.0635,583.7808 Q868.2979,584.0308 868.2979,584.6401 L868.2979,586.0933 Q868.2979,586.7026 868.0635,586.9683 Q867.8291,587.2339 867.4541,587.2339 Q867.1104,587.2339 866.9072,587.0308 Q866.7041,586.8433 866.5947,586.3276 Q866.5479,585.9683 866.3604,585.7808 Q866.0322,585.4058 865.4229,585.187 Q864.8135,584.9683 864.1885,584.9683 Q863.4229,584.9683 862.7822,585.2964 Q862.1572,585.6245 861.6572,586.3745 Q861.1729,587.1245 861.1729,588.1558 L861.1729,589.2495 Q861.1729,590.4839 862.0635,591.312 Q862.9541,592.1245 864.5479,592.1245 Q865.4854,592.1245 866.1416,591.8745 Q866.5322,591.7183 866.9541,591.2808 Q867.2197,591.0151 867.3604,590.937 Q867.5166,590.8589 867.7197,590.8589 Q868.0479,590.8589 868.2979,591.1245 Q868.5635,591.3745 868.5635,591.7183 Q868.5635,592.062 868.2197,592.4683 Q867.7197,593.0464 866.9229,593.3745 Q865.8447,593.8276 864.5479,593.8276 Q863.0322,593.8276 861.8291,593.2026 Q860.8447,592.7026 860.1572,591.6401 Q859.4697,590.562 859.4697,589.2808 L859.4697,588.1245 Q859.4697,586.7964 860.0791,585.6558 Q860.7041,584.4995 861.7979,583.8901 Q862.8916,583.2651 864.126,583.2651 Q864.8604,583.2651 865.501,583.437 Q866.1572,583.5933 866.7041,583.9526 Z " fill="#000000"/><text fill="#000000" font-family="sans-serif" font-size="12" font-style="italic" lengthAdjust="spacing" textLength="91.377" x="882.4385" y="584.2158">&#171;Express router&#187;</text><text fill="#000000" font-family="sans-serif" font-size="14" lengthAdjust="spacing" textLength="73.917" x="891.1685" y="600.9277">UserRoutes</text><line style="stroke:#181818;stroke-width:0.5;" x1="781" x2="1042.7539" y1="609.0039" y2="609.0039"/><text fill="#000000" font-family="sans-serif" font-size="14" lengthAdjust="spacing" textLength="64.1826" x="786" y="627.0791">+GET /me</text><text fill="#000000" font-family="sans-serif" font-size="14" lengthAdjust="spacing" textLength="129.5615" x="786" y="644.2305">+PATCH /me/update</text><text fill="#000000" font-family="sans-serif" font-size="14" lengthAdjust="spacing" textLength="251.7539" x="786" y="661.3818">+PATCH /me/update/updatePreferences</text><text fill="#000000" font-family="sans-serif" font-size="14" lengthAdjust="spacing" textLength="178.6094" x="786" y="678.5332">+DELETE /me/update/delete</text><line style="stroke:#181818;stroke-width:0.5;" x1="781" x2="1042.7539" y1="685.6094" y2="685.6094"/></g><!--class AuthController--><g class="entity" data-qualified-name="Backend.AuthController" data-source-line="50" id="ent0012"><rect fill="#F1F1F1" height="109.3066" rx="2.5" ry="2.5" style="stroke:#181818;stroke-width:0.5;" width="153.2031" x="1192.5" y="231.6514"/><ellipse cx="1221.7712" cy="252.5776" fill="#ADD1B2" rx="11" ry="11" style="stroke:#181818;stroke-width:1;"/><path d="M1224.5369,248.4526 Q1224.6931,248.2339 1224.8806,248.1245 Q1225.0681,248.0151 1225.2869,248.0151 Q1225.6619,248.0151 1225.8962,248.2808 Q1226.1306,248.5308 1226.1306,249.1401 L1226.1306,250.5933 Q1226.1306,251.2026 1225.8962,251.4683 Q1225.6619,251.7339 1225.2869,251.7339 Q1224.9431,251.7339 1224.74,251.5308 Q1224.5369,251.3433 1224.4275,250.8276 Q1224.3806,250.4683 1224.1931,250.2808 Q1223.865,249.9058 1223.2556,249.687 Q1222.6462,249.4683 1222.0212,249.4683 Q1221.2556,249.4683 1220.615,249.7964 Q1219.99,250.1245 1219.49,250.8745 Q1219.0056,251.6245 1219.0056,252.6558 L1219.0056,253.7495 Q1219.0056,254.9839 1219.8962,255.812 Q1220.7869,256.6245 1222.3806,256.6245 Q1223.3181,256.6245 1223.9744,256.3745 Q1224.365,256.2183 1224.7869,255.7808 Q1225.0525,255.5151 1225.1931,255.437 Q1225.3494,255.3589 1225.5525,255.3589 Q1225.8806,255.3589 1226.1306,255.6245 Q1226.3962,255.8745 1226.3962,256.2183 Q1226.3962,256.562 1226.0525,256.9683 Q1225.5525,257.5464 1224.7556,257.8745 Q1223.6775,258.3276 1222.3806,258.3276 Q1220.865,258.3276 1219.6619,257.7026 Q1218.6775,257.2026 1217.99,256.1401 Q1217.3025,255.062 1217.3025,253.7808 L1217.3025,252.6245 Q1217.3025,251.2964 1217.9119,250.1558 Q1218.5369,248.9995 1219.6306,248.3901 Q1220.7244,247.7651 1221.9587,247.7651 Q1222.6931,247.7651 1223.3337,247.937 Q1223.99,248.0933 1224.5369,248.4526 Z " fill="#000000"/><text fill="#000000" font-family="sans-serif" font-size="12" font-style="italic" lengthAdjust="spacing" textLength="62.7012" x="1252.3367" y="248.7158">&#171;controller&#187;</text><text fill="#000000" font-family="sans-serif" font-size="14" lengthAdjust="spacing" textLength="89.4893" x="1238.9426" y="265.4277">AuthController</text><line style="stroke:#181818;stroke-width:0.5;" x1="1193.5" x2="1344.7031" y1="273.5039" y2="273.5039"/><line style="stroke:#181818;stroke-width:0.5;" x1="1193.5" x2="1344.7031" y1="281.5039" y2="281.5039"/><text fill="#000000" font-family="sans-serif" font-size="14" lengthAdjust="spacing" textLength="141.2031" x="1198.5" y="299.5791">+registerUser(req, res)</text><text fill="#000000" font-family="sans-serif" font-size="14" lengthAdjust="spacing" textLength="124.0996" x="1198.5" y="316.7305">+loginUser(req, res)</text><text fill="#000000" font-family="sans-serif" font-size="14" lengthAdjust="spacing" textLength="103.1064" x="1198.5" y="333.8818">+logout(req, res)</text></g><!--class UsersController--><g class="entity" data-qualified-name="Backend.UsersController" data-source-line="55" id="ent0013"><rect fill="#F1F1F1" height="126.458" rx="2.5" ry="2.5" style="stroke:#181818;stroke-width:0.5;" width="224.8232" x="1156.5" y="630.1514"/><ellipse cx="1216.0376" cy="651.0776" fill="#ADD1B2" rx="11" ry="11" style="stroke:#181818;stroke-width:1;"/><path d="M1218.8032,646.9526 Q1218.9595,646.7339 1219.147,646.6245 Q1219.3345,646.5151 1219.5532,646.5151 Q1219.9282,646.5151 1220.1626,646.7808 Q1220.397,647.0308 1220.397,647.6401 L1220.397,649.0933 Q1220.397,649.7026 1220.1626,649.9683 Q1219.9282,650.2339 1219.5532,650.2339 Q1219.2095,650.2339 1219.0063,650.0308 Q1218.8032,649.8433 1218.6938,649.3276 Q1218.647,648.9683 1218.4595,648.7808 Q1218.1313,648.4058 1217.522,648.187 Q1216.9126,647.9683 1216.2876,647.9683 Q1215.522,647.9683 1214.8813,648.2964 Q1214.2563,648.6245 1213.7563,649.3745 Q1213.272,650.1245 1213.272,651.1558 L1213.272,652.2495 Q1213.272,653.4839 1214.1626,654.312 Q1215.0532,655.1245 1216.647,655.1245 Q1217.5845,655.1245 1218.2407,654.8745 Q1218.6313,654.7183 1219.0532,654.2808 Q1219.3188,654.0151 1219.4595,653.937 Q1219.6157,653.8589 1219.8188,653.8589 Q1220.147,653.8589 1220.397,654.1245 Q1220.6626,654.3745 1220.6626,654.7183 Q1220.6626,655.062 1220.3188,655.4683 Q1219.8188,656.0464 1219.022,656.3745 Q1217.9438,656.8276 1216.647,656.8276 Q1215.1313,656.8276 1213.9282,656.2026 Q1212.9438,655.7026 1212.2563,654.6401 Q1211.5688,653.562 1211.5688,652.2808 L1211.5688,651.1245 Q1211.5688,649.7964 1212.1782,648.6558 Q1212.8032,647.4995 1213.897,646.8901 Q1214.9907,646.2651 1216.2251,646.2651 Q1216.9595,646.2651 1217.6001,646.437 Q1218.2563,646.5933 1218.8032,646.9526 Z " fill="#000000"/><text fill="#000000" font-family="sans-serif" font-size="12" font-style="italic" lengthAdjust="spacing" textLength="62.7012" x="1253.811" y="647.2158">&#171;controller&#187;</text><text fill="#000000" font-family="sans-serif" font-size="14" lengthAdjust="spacing" textLength="97.248" x="1236.5376" y="663.9277">UsersController</text><line style="stroke:#181818;stroke-width:0.5;" x1="1157.5" x2="1380.3232" y1="672.0039" y2="672.0039"/><line style="stroke:#181818;stroke-width:0.5;" x1="1157.5" x2="1380.3232" y1="680.0039" y2="680.0039"/><text fill="#000000" font-family="sans-serif" font-size="14" lengthAdjust="spacing" textLength="113.9824" x="1162.5" y="698.0791">+getUser(req, res)</text><text fill="#000000" font-family="sans-serif" font-size="14" lengthAdjust="spacing" textLength="137.3408" x="1162.5" y="715.2305">+updateUser(req, res)</text><text fill="#000000" font-family="sans-serif" font-size="14" lengthAdjust="spacing" textLength="212.8232" x="1162.5" y="732.3818">+updateUserPreferences(req, res)</text><text fill="#000000" font-family="sans-serif" font-size="14" lengthAdjust="spacing" textLength="132.665" x="1162.5" y="749.5332">+deleteUser(req, res)</text></g><!--class AuthMiddleware--><g class="entity" data-qualified-name="Backend.AuthMiddleware" data-source-line="61" id="ent0014"><rect fill="#F1F1F1" height="75.0039" rx="2.5" ry="2.5" style="stroke:#181818;stroke-width:0.5;" width="183.5615" x="1177" y="375.6514"/><ellipse cx="1215.0291" cy="396.5776" fill="#ADD1B2" rx="11" ry="11" style="stroke:#181818;stroke-width:1;"/><path d="M1217.7947,392.4526 Q1217.951,392.2339 1218.1385,392.1245 Q1218.326,392.0151 1218.5447,392.0151 Q1218.9197,392.0151 1219.1541,392.2808 Q1219.3885,392.5308 1219.3885,393.1401 L1219.3885,394.5933 Q1219.3885,395.2026 1219.1541,395.4683 Q1218.9197,395.7339 1218.5447,395.7339 Q1218.201,395.7339 1217.9979,395.5308 Q1217.7947,395.3433 1217.6854,394.8276 Q1217.6385,394.4683 1217.451,394.2808 Q1217.1229,393.9058 1216.5135,393.687 Q1215.9041,393.4683 1215.2791,393.4683 Q1214.5135,393.4683 1213.8729,393.7964 Q1213.2479,394.1245 1212.7479,394.8745 Q1212.2635,395.6245 1212.2635,396.6558 L1212.2635,397.7495 Q1212.2635,398.9839 1213.1541,399.812 Q1214.0447,400.6245 1215.6385,400.6245 Q1216.576,400.6245 1217.2322,400.3745 Q1217.6229,400.2183 1218.0447,399.7808 Q1218.3104,399.5151 1218.451,399.437 Q1218.6072,399.3589 1218.8104,399.3589 Q1219.1385,399.3589 1219.3885,399.6245 Q1219.6541,399.8745 1219.6541,400.2183 Q1219.6541,400.562 1219.3104,400.9683 Q1218.8104,401.5464 1218.0135,401.8745 Q1216.9354,402.3276 1215.6385,402.3276 Q1214.1229,402.3276 1212.9197,401.7026 Q1211.9354,401.2026 1211.2479,400.1401 Q1210.5604,399.062 1210.5604,397.7808 L1210.5604,396.6245 Q1210.5604,395.2964 1211.1697,394.1558 Q1211.7947,392.9995 1212.8885,392.3901 Q1213.9822,391.7651 1215.2166,391.7651 Q1215.951,391.7651 1216.5916,391.937 Q1217.2479,392.0933 1217.7947,392.4526 Z " fill="#000000"/><text fill="#000000" font-family="sans-serif" font-size="12" font-style="italic" lengthAdjust="spacing" textLength="74.707" x="1246.986" y="392.7158">&#171;middleware&#187;</text><text fill="#000000" font-family="sans-serif" font-size="14" lengthAdjust="spacing" textLength="100.3857" x="1234.1467" y="409.4277">AuthMiddleware</text><line style="stroke:#181818;stroke-width:0.5;" x1="1178" x2="1359.5615" y1="417.5039" y2="417.5039"/><line style="stroke:#181818;stroke-width:0.5;" x1="1178" x2="1359.5615" y1="425.5039" y2="425.5039"/><text fill="#000000" font-family="sans-serif" font-size="14" lengthAdjust="spacing" textLength="171.5615" x="1183" y="443.5791">+verifyToken(req, res, next)</text></g><!--class UploadMiddleware--><g class="entity" data-qualified-name="Backend.UploadMiddleware" data-source-line="64" id="ent0015"><rect fill="#F1F1F1" height="75.0039" rx="2.5" ry="2.5" style="stroke:#181818;stroke-width:0.5;" width="231.8369" x="1153" y="791.6514"/><ellipse cx="1206.6929" cy="812.5776" fill="#ADD1B2" rx="11" ry="11" style="stroke:#181818;stroke-width:1;"/><path d="M1209.4585,808.4526 Q1209.6147,808.2339 1209.8022,808.1245 Q1209.9897,808.0151 1210.2085,808.0151 Q1210.5835,808.0151 1210.8179,808.2808 Q1211.0522,808.5308 1211.0522,809.1401 L1211.0522,810.5933 Q1211.0522,811.2026 1210.8179,811.4683 Q1210.5835,811.7339 1210.2085,811.7339 Q1209.8647,811.7339 1209.6616,811.5308 Q1209.4585,811.3433 1209.3491,810.8276 Q1209.3022,810.4683 1209.1147,810.2808 Q1208.7866,809.9058 1208.1772,809.687 Q1207.5679,809.4683 1206.9429,809.4683 Q1206.1772,809.4683 1205.5366,809.7964 Q1204.9116,810.1245 1204.4116,810.8745 Q1203.9272,811.6245 1203.9272,812.6558 L1203.9272,813.7495 Q1203.9272,814.9839 1204.8179,815.812 Q1205.7085,816.6245 1207.3022,816.6245 Q1208.2397,816.6245 1208.896,816.3745 Q1209.2866,816.2183 1209.7085,815.7808 Q1209.9741,815.5151 1210.1147,815.437 Q1210.271,815.3589 1210.4741,815.3589 Q1210.8022,815.3589 1211.0522,815.6245 Q1211.3179,815.8745 1211.3179,816.2183 Q1211.3179,816.562 1210.9741,816.9683 Q1210.4741,817.5464 1209.6772,817.8745 Q1208.5991,818.3276 1207.3022,818.3276 Q1205.7866,818.3276 1204.5835,817.7026 Q1203.5991,817.2026 1202.9116,816.1401 Q1202.2241,815.062 1202.2241,813.7808 L1202.2241,812.6245 Q1202.2241,811.2964 1202.8335,810.1558 Q1203.4585,808.9995 1204.5522,808.3901 Q1205.646,807.7651 1206.8804,807.7651 Q1207.6147,807.7651 1208.2554,807.937 Q1208.9116,808.0933 1209.4585,808.4526 Z " fill="#000000"/><text fill="#000000" font-family="sans-serif" font-size="12" font-style="italic" lengthAdjust="spacing" textLength="74.707" x="1247.8149" y="808.7158">&#171;middleware&#187;</text><text fill="#000000" font-family="sans-serif" font-size="14" lengthAdjust="spacing" textLength="115.9512" x="1227.1929" y="825.4277">UploadMiddleware</text><line style="stroke:#181818;stroke-width:0.5;" x1="1154" x2="1383.8369" y1="833.5039" y2="833.5039"/><line style="stroke:#181818;stroke-width:0.5;" x1="1154" x2="1383.8369" y1="841.5039" y2="841.5039"/><text fill="#000000" font-family="sans-serif" font-size="14" lengthAdjust="spacing" textLength="219.8369" x="1159" y="859.5791">+uploadProfileImage(req, res, next)</text></g><!--class AuthorizationMiddleware--><g class="entity" data-qualified-name="Backend.AuthorizationMiddleware" data-source-line="67" id="ent0016"><rect fill="#F1F1F1" height="109.3066" rx="2.5" ry="2.5" style="stroke:#181818;stroke-width:0.5;" width="224.0645" x="1157" y="485.6514"/><ellipse cx="1189.4428" cy="506.5776" fill="#ADD1B2" rx="11" ry="11" style="stroke:#181818;stroke-width:1;"/><path d="M1192.2084,502.4526 Q1192.3646,502.2339 1192.5521,502.1245 Q1192.7396,502.0151 1192.9584,502.0151 Q1193.3334,502.0151 1193.5678,502.2808 Q1193.8021,502.5308 1193.8021,503.1401 L1193.8021,504.5933 Q1193.8021,505.2026 1193.5678,505.4683 Q1193.3334,505.7339 1192.9584,505.7339 Q1192.6146,505.7339 1192.4115,505.5308 Q1192.2084,505.3433 1192.099,504.8276 Q1192.0521,504.4683 1191.8646,504.2808 Q1191.5365,503.9058 1190.9271,503.687 Q1190.3178,503.4683 1189.6928,503.4683 Q1188.9271,503.4683 1188.2865,503.7964 Q1187.6615,504.1245 1187.1615,504.8745 Q1186.6771,505.6245 1186.6771,506.6558 L1186.6771,507.7495 Q1186.6771,508.9839 1187.5678,509.812 Q1188.4584,510.6245 1190.0521,510.6245 Q1190.9896,510.6245 1191.6459,510.3745 Q1192.0365,510.2183 1192.4584,509.7808 Q1192.724,509.5151 1192.8646,509.437 Q1193.0209,509.3589 1193.224,509.3589 Q1193.5521,509.3589 1193.8021,509.6245 Q1194.0678,509.8745 1194.0678,510.2183 Q1194.0678,510.562 1193.724,510.9683 Q1193.224,511.5464 1192.4271,511.8745 Q1191.349,512.3276 1190.0521,512.3276 Q1188.5365,512.3276 1187.3334,511.7026 Q1186.349,511.2026 1185.6615,510.1401 Q1184.974,509.062 1184.974,507.7808 L1184.974,506.6245 Q1184.974,505.2964 1185.5834,504.1558 Q1186.2084,502.9995 1187.3021,502.3901 Q1188.3959,501.7651 1189.6303,501.7651 Q1190.3646,501.7651 1191.0053,501.937 Q1191.6615,502.0933 1192.2084,502.4526 Z " fill="#000000"/><text fill="#000000" font-family="sans-serif" font-size="12" font-style="italic" lengthAdjust="spacing" textLength="124.084" x="1221.9283" y="502.7158">&#171;middleware; planned&#187;</text><text fill="#000000" font-family="sans-serif" font-size="14" lengthAdjust="spacing" textLength="153.3027" x="1207.3189" y="519.4277">AuthorizationMiddleware</text><line style="stroke:#181818;stroke-width:0.5;" x1="1158" x2="1380.0645" y1="527.5039" y2="527.5039"/><line style="stroke:#181818;stroke-width:0.5;" x1="1158" x2="1380.0645" y1="535.5039" y2="535.5039"/><text fill="#000000" font-family="sans-serif" font-size="14" lengthAdjust="spacing" textLength="191.0303" x="1163" y="553.5791">+authorizeRegistrationOwner()</text><text fill="#000000" font-family="sans-serif" font-size="14" lengthAdjust="spacing" textLength="212.0645" x="1163" y="570.7305">+authorizeConnectionParticipant()</text><text fill="#000000" font-family="sans-serif" font-size="14" lengthAdjust="spacing" textLength="176.2578" x="1163" y="587.8818">+authorizeMessageThread()</text></g><!--class PasswordUtility--><g class="entity" data-qualified-name="Backend.PasswordUtility" data-source-line="72" id="ent0017"><rect fill="#F1F1F1" height="92.1553" rx="2.5" ry="2.5" style="stroke:#181818;stroke-width:0.5;" width="309.6504" x="1494" y="236.1514"/><ellipse cx="1596.7305" cy="257.0776" fill="#ADD1B2" rx="11" ry="11" style="stroke:#181818;stroke-width:1;"/><path d="M1599.4961,252.9526 Q1599.6523,252.7339 1599.8398,252.6245 Q1600.0273,252.5151 1600.2461,252.5151 Q1600.6211,252.5151 1600.8555,252.7808 Q1601.0898,253.0308 1601.0898,253.6401 L1601.0898,255.0933 Q1601.0898,255.7026 1600.8555,255.9683 Q1600.6211,256.2339 1600.2461,256.2339 Q1599.9023,256.2339 1599.6992,256.0308 Q1599.4961,255.8433 1599.3867,255.3276 Q1599.3398,254.9683 1599.1523,254.7808 Q1598.8242,254.4058 1598.2148,254.187 Q1597.6055,253.9683 1596.9805,253.9683 Q1596.2148,253.9683 1595.5742,254.2964 Q1594.9492,254.6245 1594.4492,255.3745 Q1593.9648,256.1245 1593.9648,257.1558 L1593.9648,258.2495 Q1593.9648,259.4839 1594.8555,260.312 Q1595.7461,261.1245 1597.3398,261.1245 Q1598.2773,261.1245 1598.9336,260.8745 Q1599.3242,260.7183 1599.7461,260.2808 Q1600.0117,260.0151 1600.1523,259.937 Q1600.3086,259.8589 1600.5117,259.8589 Q1600.8398,259.8589 1601.0898,260.1245 Q1601.3555,260.3745 1601.3555,260.7183 Q1601.3555,261.062 1601.0117,261.4683 Q1600.5117,262.0464 1599.7148,262.3745 Q1598.6367,262.8276 1597.3398,262.8276 Q1595.8242,262.8276 1594.6211,262.2026 Q1593.6367,261.7026 1592.9492,260.6401 Q1592.2617,259.562 1592.2617,258.2808 L1592.2617,257.1245 Q1592.2617,255.7964 1592.8711,254.6558 Q1593.4961,253.4995 1594.5898,252.8901 Q1595.6836,252.2651 1596.918,252.2651 Q1597.6523,252.2651 1598.293,252.437 Q1598.9492,252.5933 1599.4961,252.9526 Z " fill="#000000"/><text fill="#000000" font-family="sans-serif" font-size="12" font-style="italic" lengthAdjust="spacing" textLength="40.6875" x="1644.7314" y="253.2158">&#171;utility&#187;</text><text fill="#000000" font-family="sans-serif" font-size="14" lengthAdjust="spacing" textLength="95.6895" x="1617.2305" y="269.9277">PasswordUtility</text><line style="stroke:#181818;stroke-width:0.5;" x1="1495" x2="1802.6504" y1="278.0039" y2="278.0039"/><line style="stroke:#181818;stroke-width:0.5;" x1="1495" x2="1802.6504" y1="286.0039" y2="286.0039"/><text fill="#000000" font-family="sans-serif" font-size="14" lengthAdjust="spacing" textLength="213.5957" x="1500" y="304.0791">+hashPassword(password): String</text><text fill="#000000" font-family="sans-serif" font-size="14" lengthAdjust="spacing" textLength="297.6504" x="1500" y="321.2305">+comparePasswords(password, hash): Boolean</text></g><!--class JwtUtility--><g class="entity" data-qualified-name="Backend.JwtUtility" data-source-line="76" id="ent0018"><rect fill="#F1F1F1" height="92.1553" rx="2.5" ry="2.5" style="stroke:#181818;stroke-width:0.5;" width="195.2646" x="1551.5" y="363.1514"/><ellipse cx="1617.272" cy="384.0776" fill="#ADD1B2" rx="11" ry="11" style="stroke:#181818;stroke-width:1;"/><path d="M1620.0376,379.9526 Q1620.1938,379.7339 1620.3813,379.6245 Q1620.5688,379.5151 1620.7876,379.5151 Q1621.1626,379.5151 1621.397,379.7808 Q1621.6313,380.0308 1621.6313,380.6401 L1621.6313,382.0933 Q1621.6313,382.7026 1621.397,382.9683 Q1621.1626,383.2339 1620.7876,383.2339 Q1620.4438,383.2339 1620.2407,383.0308 Q1620.0376,382.8433 1619.9282,382.3276 Q1619.8813,381.9683 1619.6938,381.7808 Q1619.3657,381.4058 1618.7563,381.187 Q1618.147,380.9683 1617.522,380.9683 Q1616.7563,380.9683 1616.1157,381.2964 Q1615.4907,381.6245 1614.9907,382.3745 Q1614.5063,383.1245 1614.5063,384.1558 L1614.5063,385.2495 Q1614.5063,386.4839 1615.397,387.312 Q1616.2876,388.1245 1617.8813,388.1245 Q1618.8188,388.1245 1619.4751,387.8745 Q1619.8657,387.7183 1620.2876,387.2808 Q1620.5532,387.0151 1620.6938,386.937 Q1620.8501,386.8589 1621.0532,386.8589 Q1621.3813,386.8589 1621.6313,387.1245 Q1621.897,387.3745 1621.897,387.7183 Q1621.897,388.062 1621.5532,388.4683 Q1621.0532,389.0464 1620.2563,389.3745 Q1619.1782,389.8276 1617.8813,389.8276 Q1616.3657,389.8276 1615.1626,389.2026 Q1614.1782,388.7026 1613.4907,387.6401 Q1612.8032,386.562 1612.8032,385.2808 L1612.8032,384.1245 Q1612.8032,382.7964 1613.4126,381.6558 Q1614.0376,380.4995 1615.1313,379.8901 Q1616.2251,379.2651 1617.4595,379.2651 Q1618.1938,379.2651 1618.8345,379.437 Q1619.4907,379.5933 1620.0376,379.9526 Z " fill="#000000"/><text fill="#000000" font-family="sans-serif" font-size="12" font-style="italic" lengthAdjust="spacing" textLength="40.6875" x="1645.0386" y="380.2158">&#171;utility&#187;</text><text fill="#000000" font-family="sans-serif" font-size="14" lengthAdjust="spacing" textLength="55.2207" x="1637.772" y="396.9277">JwtUtility</text><line style="stroke:#181818;stroke-width:0.5;" x1="1552.5" x2="1745.7646" y1="405.0039" y2="405.0039"/><line style="stroke:#181818;stroke-width:0.5;" x1="1552.5" x2="1745.7646" y1="413.0039" y2="413.0039"/><text fill="#000000" font-family="sans-serif" font-size="14" lengthAdjust="spacing" textLength="183.2646" x="1557.5" y="431.0791">+generateToken(user): String</text><text fill="#000000" font-family="sans-serif" font-size="14" lengthAdjust="spacing" textLength="172.3477" x="1557.5" y="448.2305">+verifyToken(token): Object</text></g><!--class UserTable--><g class="entity" data-qualified-name="Backend.UserTable" data-source-line="80" id="ent0019"><rect fill="#F1F1F1" height="126.458" rx="2.5" ry="2.5" style="stroke:#181818;stroke-width:0.5;" width="159.0752" x="1569.5" y="490.1514"/><ellipse cx="1600.8507" cy="511.0776" fill="#ADD1B2" rx="11" ry="11" style="stroke:#181818;stroke-width:1;"/><path d="M1603.6164,506.9526 Q1603.7726,506.7339 1603.9601,506.6245 Q1604.1476,506.5151 1604.3664,506.5151 Q1604.7414,506.5151 1604.9757,506.7808 Q1605.2101,507.0308 1605.2101,507.6401 L1605.2101,509.0933 Q1605.2101,509.7026 1604.9757,509.9683 Q1604.7414,510.2339 1604.3664,510.2339 Q1604.0226,510.2339 1603.8195,510.0308 Q1603.6164,509.8433 1603.507,509.3276 Q1603.4601,508.9683 1603.2726,508.7808 Q1602.9445,508.4058 1602.3351,508.187 Q1601.7257,507.9683 1601.1007,507.9683 Q1600.3351,507.9683 1599.6945,508.2964 Q1599.0695,508.6245 1598.5695,509.3745 Q1598.0851,510.1245 1598.0851,511.1558 L1598.0851,512.2495 Q1598.0851,513.4839 1598.9757,514.312 Q1599.8664,515.1245 1601.4601,515.1245 Q1602.3976,515.1245 1603.0539,514.8745 Q1603.4445,514.7183 1603.8664,514.2808 Q1604.132,514.0151 1604.2726,513.937 Q1604.4289,513.8589 1604.632,513.8589 Q1604.9601,513.8589 1605.2101,514.1245 Q1605.4757,514.3745 1605.4757,514.7183 Q1605.4757,515.062 1605.132,515.4683 Q1604.632,516.0464 1603.8351,516.3745 Q1602.757,516.8276 1601.4601,516.8276 Q1599.9445,516.8276 1598.7414,516.2026 Q1597.757,515.7026 1597.0695,514.6401 Q1596.382,513.562 1596.382,512.2808 L1596.382,511.1245 Q1596.382,509.7964 1596.9914,508.6558 Q1597.6164,507.4995 1598.7101,506.8901 Q1599.8039,506.2651 1601.0382,506.2651 Q1601.7726,506.2651 1602.4132,506.437 Q1603.0695,506.5933 1603.6164,506.9526 Z " fill="#000000"/><text fill="#000000" font-family="sans-serif" font-size="12" font-style="italic" lengthAdjust="spacing" textLength="94.7402" x="1616.4842" y="507.2158">&#171;database entity&#187;</text><text fill="#000000" font-family="sans-serif" font-size="14" lengthAdjust="spacing" textLength="64.5791" x="1631.5648" y="523.9277">UserTable</text><line style="stroke:#181818;stroke-width:0.5;" x1="1570.5" x2="1727.5752" y1="532.0039" y2="532.0039"/><text fill="#000000" font-family="sans-serif" font-size="14" lengthAdjust="spacing" textLength="70.4375" x="1575.5" y="550.0791">+id: Integer</text><text fill="#000000" font-family="sans-serif" font-size="14" lengthAdjust="spacing" textLength="114.7822" x="1575.5" y="567.2305">+username: String</text><text fill="#000000" font-family="sans-serif" font-size="14" lengthAdjust="spacing" textLength="85.9824" x="1575.5" y="584.3818">+email: String</text><text fill="#000000" font-family="sans-serif" font-size="14" lengthAdjust="spacing" textLength="147.0752" x="1575.5" y="601.5332">-password_hash: String</text><line style="stroke:#181818;stroke-width:0.5;" x1="1570.5" x2="1727.5752" y1="608.6094" y2="608.6094"/></g><g class="entity" data-qualified-name="GMN37" data-source-line="108" id="ent0038"><path d="M1864,388.1514 L1864,405.1514 L1746.86,409.1514 L1864,413.1514 L1864,430.0039 A0,0 0 0 0 1864,430.0039 L2116.9243,430.0039 A0,0 0 0 0 2116.9243,430.0039 L2116.9243,398.1514 L2106.9243,388.1514 L1864,388.1514 A0,0 0 0 0 1864,388.1514" fill="#FEFFDD" style="stroke:#181818;stroke-width:0.5;"/><path d="M2106.9243,388.1514 L2106.9243,398.1514 L2116.9243,398.1514 L2106.9243,388.1514" fill="#FEFFDD" style="stroke:#181818;stroke-width:0.5;"/><text fill="#000000" font-family="sans-serif" font-size="13" lengthAdjust="spacing" textLength="211.7197" x="1870" y="406.2212">The generated JWT is returned in an</text><text fill="#000000" font-family="sans-serif" font-size="13" lengthAdjust="spacing" textLength="231.9243" x="1870" y="422.1475">HTTP-only cookie after successful login.</text></g><g class="entity" data-qualified-name="GMN40" data-source-line="113" id="ent0041"><path d="M1104,121.1514 L1104,178.9302 L1434.2451,178.9302 L1434.2451,131.1514 L1424.2451,121.1514 L1104,121.1514" fill="#FEFFDD" style="stroke:#181818;stroke-width:0.5;"/><path d="M1424.2451,121.1514 L1424.2451,131.1514 L1434.2451,131.1514 L1424.2451,121.1514" fill="#FEFFDD" style="stroke:#181818;stroke-width:1;"/><text fill="#000000" font-family="sans-serif" font-size="13" lengthAdjust="spacing" textLength="286.146" x="1110" y="139.2212">Protected /me operations use req.user.id from the</text><text fill="#000000" font-family="sans-serif" font-size="13" lengthAdjust="spacing" textLength="309.2451" x="1110" y="155.1475">verified JWT. The client cannot select another user ID</text><text fill="#000000" font-family="sans-serif" font-size="13" lengthAdjust="spacing" textLength="219.7178" x="1110" y="171.0737">when updating or deleting an account.</text></g><g class="entity" data-qualified-name="GMN43" data-source-line="119" id="ent0044"><path d="M1112.5,44.1514 L1112.5,86.0039 L1425.4731,86.0039 L1425.4731,54.1514 L1415.4731,44.1514 L1112.5,44.1514" fill="#FEFFDD" style="stroke:#181818;stroke-width:0.5;"/><path d="M1415.4731,44.1514 L1415.4731,54.1514 L1425.4731,54.1514 L1415.4731,44.1514" fill="#FEFFDD" style="stroke:#181818;stroke-width:1;"/><text fill="#000000" font-family="sans-serif" font-size="13" lengthAdjust="spacing" textLength="291.9731" x="1118.5" y="62.2212">Connection and message authorization is planned.</text><text fill="#000000" font-family="sans-serif" font-size="13" lengthAdjust="spacing" textLength="268.7788" x="1118.5" y="78.1475">Only participants may access those resources.</text></g><!--link LoginModal to AuthProvider--><g class="link" data-entity-1="ent0003" data-entity-2="ent0006" data-link-type="dependency" data-source-line="88" id="lnk20"><path codeLine="88" d="M165.66,534.9014 C187.12,534.9014 205.16,534.9014 227.81,534.9014" fill="none" id="LoginModal-to-AuthProvider" style="stroke:#181818;stroke-width:1;"/><polygon fill="#181818" points="233.81,534.9014,224.81,530.9014,228.81,534.9014,224.81,538.9014,233.81,534.9014" style="stroke:#181818;stroke-width:1;"/></g><!--link RegisterModal to authServices--><g class="link" data-entity-1="ent0004" data-entity-2="ent0007" data-link-type="dependency" data-source-line="89" id="lnk21"><path codeLine="89" d="M397.55,445.1514 C438.41,445.1514 482.33,445.1514 521.69,445.1514" fill="none" id="RegisterModal-to-authServices" style="stroke:#181818;stroke-width:1;"/><polygon fill="#181818" points="527.69,445.1514,518.69,441.1514,522.69,445.1514,518.69,449.1514,527.69,445.1514" style="stroke:#181818;stroke-width:1;"/></g><!--link ProtectedRoute to AuthProvider--><g class="link" data-entity-1="ent0005" data-entity-2="ent0006" data-link-type="dependency" data-source-line="90" id="lnk22"><path codeLine="90" d="M174.29,611.1514 C193.39,611.1514 208.02,611.1514 227.63,611.1514" fill="none" id="ProtectedRoute-to-AuthProvider" style="stroke:#181818;stroke-width:1;"/><polygon fill="#181818" points="233.63,611.1514,224.63,607.1514,228.63,611.1514,224.63,615.1514,233.63,611.1514" style="stroke:#181818;stroke-width:1;"/></g><!--link AuthProvider to authServices--><g class="link" data-entity-1="ent0006" data-entity-2="ent0007" data-link-type="dependency" data-source-line="91" id="lnk23"><path codeLine="91" d="M404,531.0514 C404,511.7014 404,495.4014 404,495.4014 C404,495.4014 466.94,495.4014 521.87,495.4014" fill="none" id="AuthProvider-to-authServices" style="stroke:#181818;stroke-width:1;"/><polygon fill="#181818" points="527.87,495.4014,518.87,491.4014,522.87,495.4014,518.87,499.4014,527.87,495.4014" style="stroke:#181818;stroke-width:1;"/></g><!--link AuthProvider to userServices--><g class="link" data-entity-1="ent0006" data-entity-2="ent0008" data-link-type="dependency" data-source-line="92" id="lnk24"><path codeLine="92" d="M409.01,596.1514 C428.03,596.1514 442.52,596.1514 462.7,596.1514" fill="none" id="AuthProvider-to-userServices" style="stroke:#181818;stroke-width:1;"/><polygon fill="#181818" points="468.7,596.1514,459.7,592.1514,463.7,596.1514,459.7,600.1514,468.7,596.1514" style="stroke:#181818;stroke-width:1;"/></g><!--link authServices to AuthRoutes--><g class="link" data-entity-1="ent0007" data-entity-2="ent0010" data-link-type="dependency" data-source-line="94" id="lnk25"><path codeLine="94" d="M661.06,410.6514 C754.16,410.6514 912,410.6514 912,410.6514 C912,410.6514 912,398.7914 912,378.7614" fill="none" id="authServices-to-AuthRoutes" style="stroke:#181818;stroke-width:1;"/><polygon fill="#181818" points="912,372.7614,908,381.7614,912,377.7614,916,381.7614,912,372.7614" style="stroke:#181818;stroke-width:1;"/><text fill="#000000" font-family="sans-serif" font-size="13" lengthAdjust="spacing" textLength="135.8208" x="669.47" y="424.7212">HTTPS with credentials</text></g><!--link userServices to UserRoutes--><g class="link" data-entity-1="ent0008" data-entity-2="ent0011" data-link-type="dependency" data-source-line="95" id="lnk26"><path codeLine="95" d="M720.44,614.1514 C740,614.1514 754.26,614.1514 773.96,614.1514" fill="none" id="userServices-to-UserRoutes" style="stroke:#181818;stroke-width:1;"/><polygon fill="#181818" points="779.96,614.1514,770.96,610.1514,774.96,614.1514,770.96,618.1514,779.96,614.1514" style="stroke:#181818;stroke-width:1;"/><text fill="#000000" font-family="sans-serif" font-size="13" lengthAdjust="spacing" textLength="135.8208" x="614.2" y="628.2212">HTTPS with credentials</text></g><!--link AuthRoutes to AuthController--><g class="link" data-entity-1="ent0010" data-entity-2="ent0012" data-link-type="dependency" data-source-line="96" id="lnk27"><path codeLine="96" d="M971.75,302.1514 C1032.29,302.1514 1120.19,302.1514 1186.21,302.1514" fill="none" id="AuthRoutes-to-AuthController" style="stroke:#181818;stroke-width:1;"/><polygon fill="#181818" points="1192.21,302.1514,1183.21,298.1514,1187.21,302.1514,1183.21,306.1514,1192.21,302.1514" style="stroke:#181818;stroke-width:1;"/></g><!--link UserRoutes to AuthMiddleware--><g class="link" data-entity-1="ent0011" data-entity-2="ent0014" data-link-type="dependency" data-source-line="97" id="lnk28"><path codeLine="97" d="M1008,567.0314 C1008,508.5814 1008,430.6514 1008,430.6514 C1008,430.6514 1095.84,430.6514 1170.98,430.6514" fill="none" id="UserRoutes-to-AuthMiddleware" style="stroke:#181818;stroke-width:1;"/><polygon fill="#181818" points="1176.98,430.6514,1167.98,426.6514,1171.98,430.6514,1167.98,434.6514,1176.98,430.6514" style="stroke:#181818;stroke-width:1;"/></g><!--link UserRoutes to UploadMiddleware--><g class="link" data-entity-1="ent0011" data-entity-2="ent0015" data-link-type="dependency" data-source-line="98" id="lnk29"><path codeLine="98" d="M912,693.3914 C912,751.6614 912,829.1514 912,829.1514 C912,829.1514 1042.42,829.1514 1146.6,829.1514" fill="none" id="UserRoutes-to-UploadMiddleware" style="stroke:#181818;stroke-width:1;"/><polygon fill="#181818" points="1152.6,829.1514,1143.6,825.1514,1147.6,829.1514,1143.6,833.1514,1152.6,829.1514" style="stroke:#181818;stroke-width:1;"/></g><!--link UserRoutes to UsersController--><g class="link" data-entity-1="ent0011" data-entity-2="ent0013" data-link-type="dependency" data-source-line="99" id="lnk30"><path codeLine="99" d="M1044.17,672.1514 C1081,672.1514 1114.65,672.1514 1150.25,672.1514" fill="none" id="UserRoutes-to-UsersController" style="stroke:#181818;stroke-width:1;"/><polygon fill="#181818" points="1156.25,672.1514,1147.25,668.1514,1151.25,672.1514,1147.25,676.1514,1156.25,672.1514" style="stroke:#181818;stroke-width:1;"/></g><!--link AuthController to PasswordUtility--><g class="link" data-entity-1="ent0012" data-entity-2="ent0017" data-link-type="dependency" data-source-line="100" id="lnk31"><path codeLine="100" d="M1345.9,282.1514 C1388.41,282.1514 1436.79,282.1514 1487.72,282.1514" fill="none" id="AuthController-to-PasswordUtility" style="stroke:#181818;stroke-width:1;"/><polygon fill="#181818" points="1493.72,282.1514,1484.72,278.1514,1488.72,282.1514,1484.72,286.1514,1493.72,282.1514" style="stroke:#181818;stroke-width:1;"/></g><!--link AuthController to JwtUtility--><g class="link" data-entity-1="ent0012" data-entity-2="ent0018" data-link-type="dependency" data-source-line="101" id="lnk32"><path codeLine="101" d="M1269,340.6814 C1269,355.6714 1269,367.9014 1269,367.9014 C1269,367.9014 1432.55,367.9014 1545.14,367.9014" fill="none" id="AuthController-to-JwtUtility" style="stroke:#181818;stroke-width:1;"/><polygon fill="#181818" points="1551.14,367.9014,1542.14,363.9014,1546.14,367.9014,1542.14,371.9014,1551.14,367.9014" style="stroke:#181818;stroke-width:1;"/></g><!--link AuthController to UserTable--><g class="link" data-entity-1="ent0012" data-entity-2="ent0019" data-link-type="dependency" data-source-line="102" id="lnk33"><path codeLine="102" d="M1345.69,334.4014 C1378.76,334.4014 1410,334.4014 1410,334.4014 C1410,334.4014 1410,524.9814 1410,524.9814 C1410,524.9814 1493.89,524.9814 1563.42,524.9814" fill="none" id="AuthController-to-UserTable" style="stroke:#181818;stroke-width:1;"/><polygon fill="#181818" points="1569.42,524.9814,1560.42,520.9814,1564.42,524.9814,1560.42,528.9814,1569.42,524.9814" style="stroke:#181818;stroke-width:1;"/></g><!--link AuthMiddleware to JwtUtility--><g class="link" data-entity-1="ent0014" data-entity-2="ent0018" data-link-type="dependency" data-source-line="103" id="lnk34"><path codeLine="103" d="M1361.47,413.1514 C1419.03,413.1514 1486.97,413.1514 1545.46,413.1514" fill="none" id="AuthMiddleware-to-JwtUtility" style="stroke:#181818;stroke-width:1;"/><polygon fill="#181818" points="1551.46,413.1514,1542.46,409.1514,1546.46,413.1514,1542.46,417.1514,1551.46,413.1514" style="stroke:#181818;stroke-width:1;"/></g><!--link UsersController to UserTable--><g class="link" data-entity-1="ent0013" data-entity-2="ent0019" data-link-type="dependency" data-source-line="104" id="lnk35"><path codeLine="104" d="M1269,629.8414 C1269,616.0114 1269,605.4014 1269,605.4014 C1269,605.4014 1451.91,605.4014 1563.34,605.4014" fill="none" id="UsersController-to-UserTable" style="stroke:#181818;stroke-width:1;"/><polygon fill="#181818" points="1569.34,605.4014,1560.34,601.4014,1564.34,605.4014,1560.34,609.4014,1569.34,605.4014" style="stroke:#181818;stroke-width:1;"/></g><!--link AuthorizationMiddleware to UserTable--><g class="link" data-entity-1="ent0016" data-entity-2="ent0019" data-link-type="dependency" data-source-line="105" id="lnk36"><path codeLine="105" d="M1381.21,559.8214 C1441.63,559.8214 1508.72,559.8214 1563.27,559.8214" fill="none" id="AuthorizationMiddleware-to-UserTable" style="stroke:#181818;stroke-width:1;"/><polygon fill="#181818" points="1569.27,559.8214,1560.27,555.8214,1564.27,559.8214,1560.27,563.8214,1569.27,559.8214" style="stroke:#181818;stroke-width:1;"/></g><!--link UsersController to GMN40--><g class="link" data-entity-1="ent0013" data-entity-2="ent0041" data-link-type="association" data-source-line="113" id="lnk42"><path d="M1156.33,651.1514 C1140.23,651.1514 1129,651.1514 1129,651.1514 C1129,651.1514 1129,286.1814 1129,179.2514" fill="none" id="UsersController-GMN40" style="stroke:#181818;stroke-width:1;stroke-dasharray:7,7;"/></g><!--link AuthorizationMiddleware to GMN43--><g class="link" data-entity-1="ent0016" data-entity-2="ent0044" data-link-type="association" data-source-line="119" id="lnk45"><path d="M1156.98,492.6514 C1113.52,492.6514 1074,492.6514 1074,492.6514 C1074,492.6514 1074,65.1514 1074,65.1514 C1074,65.1514 1089.64,65.1514 1112.06,65.1514" fill="none" id="AuthorizationMiddleware-GMN43" style="stroke:#181818;stroke-width:1;stroke-dasharray:7,7;"/></g><?plantuml-src ZLV1Rjiu4BtpAmOznTZOtNCs290ctcsA1Z5Y5NjSqDBOueOYLPAAwoxwxpiZInOboubzS6ZESEPnE7oF2IfeXFahcl0e0y9j5N8QgrG6PGr8ay4Iqygfi8DbjV8x7x20AIm3EQJqnrLfg1mAuL-KAQMJ1QHQUdyRWbEhAk13QirI_KJuFNBnkSpiLfaDhANs65cqCXXs9O9r8RT2upf0iE3K9W-GAOSf0nEYbEcBt21y-DDP4z1a7-0_0VIfiyDNkr7cqMPIm_NrCyeqG6gBqXhQtCrDuygVttorAbIe_IyczVIlACupRXHjsPqLwbLgbL4LzujSNS8cPfHgn1fdN3WRQ9EOFLkgthifqQdrhdzg8q7PWGA_gWnT598AzsCGiFBehk1fzIzXw6QLZr9WTWMVhDKeJUUXwmAc3ZFseaETz6oqbn5Oae8kqRsg53t1yliX53QhDFPnlHNVDOTqmU3lPP3dv6RVCtDlCDnLpb7YR-GMdsXLyddNioEvE-l2uHef0EMwABjnv9kXnYPIY_LNrEMVQ73Kv7mcTPVm1kO_A31DEfvm_GqidfO9V6pBD9olIpioIO6EgiO0pqhvrvo251Y5lKtkFlFKntrPJbkQFr7DEj_x-TTvCe-TzuKRxVWxQd1djQvxFZtyw0DjgrANtk7tIt0uQ5vbtZ1oT_Kjmthvit1GavtA4dNPczQuoqOSenOx3PZhzgYoJEDMEgQVul1ZZ7aIIsrv27S9XWXbf0gbjZ8xAsnLkn9NhPN6XuAQ_zte3DawzRCclnD9_e1IIsCmwsUJpT8UPJzjJV-M7xpe8CrUW1RI4HUgKfemwlb8zuAm9xb3cOsnF7rjhSk-1QLPMw-lg_seZo-NFczTByfcCBbYtINnxFnO7MYNhQi_-5u2XvZq2Ji6ycKRti6mGIe7TTZ-g9dcHW34tH3uUz8JaU6LIEHAym5HvygLz0XCwiF4YdJcWIHg4rCMvpUom6C8M4YbZwQdRIN-uKBqp3N3HW-5wVIc9vIYB_viZWLB39JwQ7bFT8zM7rbZGHAY9urjw8Pvh-1paYoMi5KXXqWIHK_JU554roSNHO7RF1rXYIX2Q-sksD0wlET7zZuRYW59iylWOeovT2qxPZsqbnXGsM3fa9cFruvnIjzB6Eg0vcrgrt7q94TeBqu6N_vEG95E8ZsLYOD0ySjQy7bChT4xUedP5uKWrzHiuAkKZi-lAmsrzim42JzmfYRVoePW2quuhEUX8raWmPQu9xJwiKFPly-uGMOgWxMZ0FIW4_MzLNk8Cs3KgLRK6P0IMze0dZI3degInZbXu_NmS2-sz1Q4MdZu3MyTrDh2OqbRIrDRcV06xXFL5Hs_rlzv57iI1HcxSo4RBf-99wvUsN6nXqBk600_IsXHlMrlAqSJ4Px_0G00?></g></svg>