<?plantuml 1.2026.2?><svg xmlns="http://www.w3.org/2000/svg" xmlns:xlink="http://www.w3.org/1999/xlink" contentStyleType="text/css" data-diagram-type="CLASS" height="1288px" preserveAspectRatio="none" style="width:1716px;height:1288px;background:#FFFFFF;" version="1.1" viewBox="0 0 1716 1288" width="1716px" zoomAndPan="magnify"><title>EventMate Backend Application Subsystem - Static Structure</title><defs/><g><g class="title" data-source-line="1"><text fill="#000000" font-family="sans-serif" font-size="14" font-weight="bold" lengthAdjust="spacing" textLength="407.6543" x="647.1729" y="24.0752">EventMate Backend Application Subsystem - Static Structure</text></g><!--cluster Routes--><g class="cluster" data-qualified-name="Routes" data-source-line="14" id="ent0003"><path d="M212.5,423.1514 L260.9482,423.1514 A3.75,3.75 0 0 1 263.4482,425.6514 L270.4482,446.3027 L503.5,446.3027 A2.5,2.5 0 0 1 506,448.8027 L506,1202.6514 A2.5,2.5 0 0 1 503.5,1205.1514 L212.5,1205.1514 A2.5,2.5 0 0 1 210,1202.6514 L210,425.6514 A2.5,2.5 0 0 1 212.5,423.1514" fill="none" style="stroke:#000000;stroke-width:1.5;"/><line style="stroke:#000000;stroke-width:1.5;" x1="210" x2="270.4482" y1="446.3027" y2="446.3027"/><text fill="#000000" font-family="sans-serif" font-size="14" font-weight="bold" lengthAdjust="spacing" textLength="47.4482" x="214" y="439.2266">Routes</text></g><!--cluster Controllers--><g class="cluster" data-qualified-name="Controllers" data-source-line="39" id="ent0010"><path d="M539.5,118.1514 L615.1758,118.1514 A3.75,3.75 0 0 1 617.6758,120.6514 L624.6758,141.3027 L869.5,141.3027 A2.5,2.5 0 0 1 872,143.8027 L872,872.6514 A2.5,2.5 0 0 1 869.5,875.1514 L539.5,875.1514 A2.5,2.5 0 0 1 537,872.6514 L537,120.6514 A2.5,2.5 0 0 1 539.5,118.1514" fill="none" style="stroke:#000000;stroke-width:1.5;"/><line style="stroke:#000000;stroke-width:1.5;" x1="537" x2="624.6758" y1="141.3027" y2="141.3027"/><text fill="#000000" font-family="sans-serif" font-size="14" font-weight="bold" lengthAdjust="spacing" textLength="74.6758" x="541" y="134.2266">Controllers</text></g><!--cluster Middleware--><g class="cluster" data-qualified-name="Middleware" data-source-line="68" id="ent0016"><path d="M575,899.1514 L652.2412,899.1514 A3.75,3.75 0 0 1 654.7412,901.6514 L661.7412,922.3027 L834,922.3027 A2.5,2.5 0 0 1 836.5,924.8027 L836.5,1278.6514 A2.5,2.5 0 0 1 834,1281.1514 L575,1281.1514 A2.5,2.5 0 0 1 572.5,1278.6514 L572.5,901.6514 A2.5,2.5 0 0 1 575,899.1514" fill="none" style="stroke:#000000;stroke-width:1.5;"/><line style="stroke:#000000;stroke-width:1.5;" x1="572.5" x2="661.7412" y1="922.3027" y2="922.3027"/><text fill="#000000" font-family="sans-serif" font-size="14" font-weight="bold" lengthAdjust="spacing" textLength="76.2412" x="576.5" y="915.2266">Middleware</text></g><!--cluster Services--><g class="cluster" data-qualified-name="Services" data-source-line="82" id="ent0020"><path d="M905.5,402.1514 L964.1064,402.1514 A3.75,3.75 0 0 1 966.6064,404.6514 L973.6064,425.3027 L1231.5,425.3027 A2.5,2.5 0 0 1 1234,427.8027 L1234,799.6514 A2.5,2.5 0 0 1 1231.5,802.1514 L905.5,802.1514 A2.5,2.5 0 0 1 903,799.6514 L903,404.6514 A2.5,2.5 0 0 1 905.5,402.1514" fill="none" style="stroke:#000000;stroke-width:1.5;"/><line style="stroke:#000000;stroke-width:1.5;" x1="903" x2="973.6064" y1="425.3027" y2="425.3027"/><text fill="#000000" font-family="sans-serif" font-size="14" font-weight="bold" lengthAdjust="spacing" textLength="57.6064" x="907" y="418.2266">Services</text></g><!--cluster Database Access--><g class="cluster" data-qualified-name="Database Access" data-source-line="97" id="ent0024"><path d="M1264.5,368.1514 L1380.6855,368.1514 A3.75,3.75 0 0 1 1383.1855,370.6514 L1390.1855,391.3027 L1706.5,391.3027 A2.5,2.5 0 0 1 1709,393.8027 L1709,637.6514 A2.5,2.5 0 0 1 1706.5,640.1514 L1264.5,640.1514 A2.5,2.5 0 0 1 1262,637.6514 L1262,370.6514 A2.5,2.5 0 0 1 1264.5,368.1514" fill="none" style="stroke:#000000;stroke-width:1.5;"/><line style="stroke:#000000;stroke-width:1.5;" x1="1262" x2="1390.1855" y1="391.3027" y2="391.3027"/><text fill="#000000" font-family="sans-serif" font-size="14" font-weight="bold" lengthAdjust="spacing" textLength="115.1855" x="1266" y="384.2266">Database Access</text></g><!--class AuthRoutes--><g class="entity" data-qualified-name="Routes.AuthRoutes" data-source-line="15" id="ent0004"><rect fill="#F1F1F1" height="109.3066" rx="2.5" ry="2.5" style="stroke:#181818;stroke-width:0.5;" width="119.377" x="298.5" y="603.6514"/><ellipse cx="313.5" cy="624.5776" fill="#ADD1B2" rx="11" ry="11" style="stroke:#181818;stroke-width:1;"/><path d="M316.2656,620.4526 Q316.4219,620.2339 316.6094,620.1245 Q316.7969,620.0151 317.0156,620.0151 Q317.3906,620.0151 317.625,620.2808 Q317.8594,620.5308 317.8594,621.1401 L317.8594,622.5933 Q317.8594,623.2026 317.625,623.4683 Q317.3906,623.7339 317.0156,623.7339 Q316.6719,623.7339 316.4688,623.5308 Q316.2656,623.3433 316.1563,622.8276 Q316.1094,622.4683 315.9219,622.2808 Q315.5938,621.9058 314.9844,621.687 Q314.375,621.4683 313.75,621.4683 Q312.9844,621.4683 312.3438,621.7964 Q311.7188,622.1245 311.2188,622.8745 Q310.7344,623.6245 310.7344,624.6558 L310.7344,625.7495 Q310.7344,626.9839 311.625,627.812 Q312.5156,628.6245 314.1094,628.6245 Q315.0469,628.6245 315.7031,628.3745 Q316.0938,628.2183 316.5156,627.7808 Q316.7813,627.5151 316.9219,627.437 Q317.0781,627.3589 317.2813,627.3589 Q317.6094,627.3589 317.8594,627.6245 Q318.125,627.8745 318.125,628.2183 Q318.125,628.562 317.7813,628.9683 Q317.2813,629.5464 316.4844,629.8745 Q315.4063,630.3276 314.1094,630.3276 Q312.5938,630.3276 311.3906,629.7026 Q310.4063,629.2026 309.7188,628.1401 Q309.0313,627.062 309.0313,625.7808 L309.0313,624.6245 Q309.0313,623.2964 309.6406,622.1558 Q310.2656,620.9995 311.3594,620.3901 Q312.4531,619.7651 313.6875,619.7651 Q314.4219,619.7651 315.0625,619.937 Q315.7188,620.0933 316.2656,620.4526 Z " fill="#000000"/><text fill="#000000" font-family="sans-serif" font-size="12" font-style="italic" lengthAdjust="spacing" textLength="91.377" x="325.5" y="620.7158">&#171;Express router&#187;</text><text fill="#000000" font-family="sans-serif" font-size="14" lengthAdjust="spacing" textLength="73.1582" x="334.6094" y="637.4277">AuthRoutes</text><line style="stroke:#181818;stroke-width:0.5;" x1="299.5" x2="416.877" y1="645.5039" y2="645.5039"/><text fill="#000000" font-family="sans-serif" font-size="14" lengthAdjust="spacing" textLength="100.7549" x="304.5" y="663.5791">+POST /register</text><text fill="#000000" font-family="sans-serif" font-size="14" lengthAdjust="spacing" textLength="83.6514" x="304.5" y="680.7305">+POST /login</text><text fill="#000000" font-family="sans-serif" font-size="14" lengthAdjust="spacing" textLength="92.2168" x="304.5" y="697.8818">+POST /logout</text><line style="stroke:#181818;stroke-width:0.5;" x1="299.5" x2="416.877" y1="704.958" y2="704.958"/></g><!--class UserRoutes--><g class="entity" data-qualified-name="Routes.UserRoutes" data-source-line="20" id="ent0005"><rect fill="#F1F1F1" height="143.6094" rx="2.5" ry="2.5" style="stroke:#181818;stroke-width:0.5;" width="263.7539" x="226" y="1045.1514"/><ellipse cx="309.9385" cy="1066.0776" fill="#ADD1B2" rx="11" ry="11" style="stroke:#181818;stroke-width:1;"/><path d="M312.7041,1061.9526 Q312.8604,1061.7339 313.0479,1061.6245 Q313.2354,1061.5151 313.4541,1061.5151 Q313.8291,1061.5151 314.0635,1061.7808 Q314.2979,1062.0308 314.2979,1062.6401 L314.2979,1064.0933 Q314.2979,1064.7026 314.0635,1064.9683 Q313.8291,1065.2339 313.4541,1065.2339 Q313.1104,1065.2339 312.9072,1065.0308 Q312.7041,1064.8433 312.5947,1064.3276 Q312.5479,1063.9683 312.3604,1063.7808 Q312.0322,1063.4058 311.4229,1063.187 Q310.8135,1062.9683 310.1885,1062.9683 Q309.4229,1062.9683 308.7822,1063.2964 Q308.1572,1063.6245 307.6572,1064.3745 Q307.1729,1065.1245 307.1729,1066.1558 L307.1729,1067.2495 Q307.1729,1068.4839 308.0635,1069.312 Q308.9541,1070.1245 310.5479,1070.1245 Q311.4854,1070.1245 312.1416,1069.8745 Q312.5322,1069.7183 312.9541,1069.2808 Q313.2197,1069.0151 313.3604,1068.937 Q313.5166,1068.8589 313.7197,1068.8589 Q314.0479,1068.8589 314.2979,1069.1245 Q314.5635,1069.3745 314.5635,1069.7183 Q314.5635,1070.062 314.2197,1070.4683 Q313.7197,1071.0464 312.9229,1071.3745 Q311.8447,1071.8276 310.5479,1071.8276 Q309.0322,1071.8276 307.8291,1071.2026 Q306.8447,1070.7026 306.1572,1069.6401 Q305.4697,1068.562 305.4697,1067.2808 L305.4697,1066.1245 Q305.4697,1064.7964 306.0791,1063.6558 Q306.7041,1062.4995 307.7979,1061.8901 Q308.8916,1061.2651 310.126,1061.2651 Q310.8604,1061.2651 311.501,1061.437 Q312.1572,1061.5933 312.7041,1061.9526 Z " fill="#000000"/><text fill="#000000" font-family="sans-serif" font-size="12" font-style="italic" lengthAdjust="spacing" textLength="91.377" x="328.4385" y="1062.2158">&#171;Express router&#187;</text><text fill="#000000" font-family="sans-serif" font-size="14" lengthAdjust="spacing" textLength="73.917" x="337.1685" y="1078.9277">UserRoutes</text><line style="stroke:#181818;stroke-width:0.5;" x1="227" x2="488.7539" y1="1087.0039" y2="1087.0039"/><text fill="#000000" font-family="sans-serif" font-size="14" lengthAdjust="spacing" textLength="64.1826" x="232" y="1105.0791">+GET /me</text><text fill="#000000" font-family="sans-serif" font-size="14" lengthAdjust="spacing" textLength="129.5615" x="232" y="1122.2305">+PATCH /me/update</text><text fill="#000000" font-family="sans-serif" font-size="14" lengthAdjust="spacing" textLength="251.7539" x="232" y="1139.3818">+PATCH /me/update/updatePreferences</text><text fill="#000000" font-family="sans-serif" font-size="14" lengthAdjust="spacing" textLength="178.6094" x="232" y="1156.5332">+DELETE /me/update/delete</text><text fill="#000000" font-family="sans-serif" font-size="14" lengthAdjust="spacing" textLength="103.8857" x="232" y="1173.6846">+GET /:public_id</text><line style="stroke:#181818;stroke-width:0.5;" x1="227" x2="488.7539" y1="1180.7607" y2="1180.7607"/></g><!--class EventRoutes--><g class="entity" data-qualified-name="Routes.EventRoutes" data-source-line="27" id="ent0006"><rect fill="#F1F1F1" height="109.3066" rx="2.5" ry="2.5" style="stroke:#181818;stroke-width:0.5;" width="246.6367" x="234.5" y="459.6514"/><ellipse cx="309.8799" cy="480.5776" fill="#ADD1B2" rx="11" ry="11" style="stroke:#181818;stroke-width:1;"/><path d="M312.6455,476.4526 Q312.8018,476.2339 312.9893,476.1245 Q313.1768,476.0151 313.3955,476.0151 Q313.7705,476.0151 314.0049,476.2808 Q314.2393,476.5308 314.2393,477.1401 L314.2393,478.5933 Q314.2393,479.2026 314.0049,479.4683 Q313.7705,479.7339 313.3955,479.7339 Q313.0518,479.7339 312.8486,479.5308 Q312.6455,479.3433 312.5361,478.8276 Q312.4893,478.4683 312.3018,478.2808 Q311.9736,477.9058 311.3643,477.687 Q310.7549,477.4683 310.1299,477.4683 Q309.3643,477.4683 308.7236,477.7964 Q308.0986,478.1245 307.5986,478.8745 Q307.1143,479.6245 307.1143,480.6558 L307.1143,481.7495 Q307.1143,482.9839 308.0049,483.812 Q308.8955,484.6245 310.4893,484.6245 Q311.4268,484.6245 312.083,484.3745 Q312.4736,484.2183 312.8955,483.7808 Q313.1611,483.5151 313.3018,483.437 Q313.458,483.3589 313.6611,483.3589 Q313.9893,483.3589 314.2393,483.6245 Q314.5049,483.8745 314.5049,484.2183 Q314.5049,484.562 314.1611,484.9683 Q313.6611,485.5464 312.8643,485.8745 Q311.7861,486.3276 310.4893,486.3276 Q308.9736,486.3276 307.7705,485.7026 Q306.7861,485.2026 306.0986,484.1401 Q305.4111,483.062 305.4111,481.7808 L305.4111,480.6245 Q305.4111,479.2964 306.0205,478.1558 Q306.6455,476.9995 307.7393,476.3901 Q308.833,475.7651 310.0674,475.7651 Q310.8018,475.7651 311.4424,475.937 Q312.0986,476.0933 312.6455,476.4526 Z " fill="#000000"/><text fill="#000000" font-family="sans-serif" font-size="12" font-style="italic" lengthAdjust="spacing" textLength="91.377" x="328.3799" y="476.7158">&#171;Express router&#187;</text><text fill="#000000" font-family="sans-serif" font-size="14" lengthAdjust="spacing" textLength="80.1582" x="333.9893" y="493.4277">EventRoutes</text><line style="stroke:#181818;stroke-width:0.5;" x1="235.5" x2="480.1367" y1="501.5039" y2="501.5039"/><text fill="#000000" font-family="sans-serif" font-size="14" lengthAdjust="spacing" textLength="44.7344" x="240.5" y="519.5791">+GET /</text><text fill="#000000" font-family="sans-serif" font-size="14" lengthAdjust="spacing" textLength="199.6162" x="240.5" y="536.7305">+POST /registrations &#171;planned&#187;</text><text fill="#000000" font-family="sans-serif" font-size="14" lengthAdjust="spacing" textLength="234.6367" x="240.5" y="553.8818">+DELETE /registrations/:id &#171;planned&#187;</text><line style="stroke:#181818;stroke-width:0.5;" x1="235.5" x2="480.1367" y1="560.958" y2="560.958"/></g><!--class CityRoutes--><g class="entity" data-qualified-name="Routes.CityRoutes" data-source-line="32" id="ent0007"><rect fill="#F1F1F1" height="75.0039" rx="2.5" ry="2.5" style="stroke:#181818;stroke-width:0.5;" width="119.377" x="298.5" y="841.6514"/><ellipse cx="313.5" cy="862.5776" fill="#ADD1B2" rx="11" ry="11" style="stroke:#181818;stroke-width:1;"/><path d="M316.2656,858.4526 Q316.4219,858.2339 316.6094,858.1245 Q316.7969,858.0151 317.0156,858.0151 Q317.3906,858.0151 317.625,858.2808 Q317.8594,858.5308 317.8594,859.1401 L317.8594,860.5933 Q317.8594,861.2026 317.625,861.4683 Q317.3906,861.7339 317.0156,861.7339 Q316.6719,861.7339 316.4688,861.5308 Q316.2656,861.3433 316.1563,860.8276 Q316.1094,860.4683 315.9219,860.2808 Q315.5938,859.9058 314.9844,859.687 Q314.375,859.4683 313.75,859.4683 Q312.9844,859.4683 312.3438,859.7964 Q311.7188,860.1245 311.2188,860.8745 Q310.7344,861.6245 310.7344,862.6558 L310.7344,863.7495 Q310.7344,864.9839 311.625,865.812 Q312.5156,866.6245 314.1094,866.6245 Q315.0469,866.6245 315.7031,866.3745 Q316.0938,866.2183 316.5156,865.7808 Q316.7813,865.5151 316.9219,865.437 Q317.0781,865.3589 317.2813,865.3589 Q317.6094,865.3589 317.8594,865.6245 Q318.125,865.8745 318.125,866.2183 Q318.125,866.562 317.7813,866.9683 Q317.2813,867.5464 316.4844,867.8745 Q315.4063,868.3276 314.1094,868.3276 Q312.5938,868.3276 311.3906,867.7026 Q310.4063,867.2026 309.7188,866.1401 Q309.0313,865.062 309.0313,863.7808 L309.0313,862.6245 Q309.0313,861.2964 309.6406,860.1558 Q310.2656,858.9995 311.3594,858.3901 Q312.4531,857.7651 313.6875,857.7651 Q314.4219,857.7651 315.0625,857.937 Q315.7188,858.0933 316.2656,858.4526 Z " fill="#000000"/><text fill="#000000" font-family="sans-serif" font-size="12" font-style="italic" lengthAdjust="spacing" textLength="91.377" x="325.5" y="858.7158">&#171;Express router&#187;</text><text fill="#000000" font-family="sans-serif" font-size="14" lengthAdjust="spacing" textLength="68.4688" x="336.9541" y="875.4277">CityRoutes</text><line style="stroke:#181818;stroke-width:0.5;" x1="299.5" x2="416.877" y1="883.5039" y2="883.5039"/><text fill="#000000" font-family="sans-serif" font-size="14" lengthAdjust="spacing" textLength="44.7344" x="304.5" y="901.5791">+GET /</text><line style="stroke:#181818;stroke-width:0.5;" x1="299.5" x2="416.877" y1="908.6553" y2="908.6553"/></g><!--class ConnectionRoutes--><g class="entity" data-qualified-name="Routes.ConnectionRoutes" data-source-line="35" id="ent0008"><rect fill="#F1F1F1" height="57.8525" rx="2.5" ry="2.5" style="stroke:#181818;stroke-width:0.5;" width="168.7539" x="273.5" y="952.1514"/><ellipse cx="288.5" cy="973.0776" fill="#ADD1B2" rx="11" ry="11" style="stroke:#181818;stroke-width:1;"/><path d="M291.2656,968.9526 Q291.4219,968.7339 291.6094,968.6245 Q291.7969,968.5151 292.0156,968.5151 Q292.3906,968.5151 292.625,968.7808 Q292.8594,969.0308 292.8594,969.6401 L292.8594,971.0933 Q292.8594,971.7026 292.625,971.9683 Q292.3906,972.2339 292.0156,972.2339 Q291.6719,972.2339 291.4688,972.0308 Q291.2656,971.8433 291.1563,971.3276 Q291.1094,970.9683 290.9219,970.7808 Q290.5938,970.4058 289.9844,970.187 Q289.375,969.9683 288.75,969.9683 Q287.9844,969.9683 287.3438,970.2964 Q286.7188,970.6245 286.2188,971.3745 Q285.7344,972.1245 285.7344,973.1558 L285.7344,974.2495 Q285.7344,975.4839 286.625,976.312 Q287.5156,977.1245 289.1094,977.1245 Q290.0469,977.1245 290.7031,976.8745 Q291.0938,976.7183 291.5156,976.2808 Q291.7813,976.0151 291.9219,975.937 Q292.0781,975.8589 292.2813,975.8589 Q292.6094,975.8589 292.8594,976.1245 Q293.125,976.3745 293.125,976.7183 Q293.125,977.062 292.7813,977.4683 Q292.2813,978.0464 291.4844,978.3745 Q290.4063,978.8276 289.1094,978.8276 Q287.5938,978.8276 286.3906,978.2026 Q285.4063,977.7026 284.7188,976.6401 Q284.0313,975.562 284.0313,974.2808 L284.0313,973.1245 Q284.0313,971.7964 284.6406,970.6558 Q285.2656,969.4995 286.3594,968.8901 Q287.4531,968.2651 288.6875,968.2651 Q289.4219,968.2651 290.0625,968.437 Q290.7188,968.5933 291.2656,968.9526 Z " fill="#000000"/><text fill="#000000" font-family="sans-serif" font-size="12" font-style="italic" lengthAdjust="spacing" textLength="140.7539" x="300.5" y="969.2158">&#171;Express router; planned&#187;</text><text fill="#000000" font-family="sans-serif" font-size="14" lengthAdjust="spacing" textLength="115.1855" x="313.2842" y="985.9277">ConnectionRoutes</text><line style="stroke:#181818;stroke-width:0.5;" x1="274.5" x2="441.2539" y1="994.0039" y2="994.0039"/><line style="stroke:#181818;stroke-width:0.5;" x1="274.5" x2="441.2539" y1="1002.0039" y2="1002.0039"/></g><!--class MessageRoutes--><g class="entity" data-qualified-name="Routes.MessageRoutes" data-source-line="36" id="ent0009"><rect fill="#F1F1F1" height="57.8525" rx="2.5" ry="2.5" style="stroke:#181818;stroke-width:0.5;" width="168.7539" x="273.5" y="748.1514"/><ellipse cx="288.5" cy="769.0776" fill="#ADD1B2" rx="11" ry="11" style="stroke:#181818;stroke-width:1;"/><path d="M291.2656,764.9526 Q291.4219,764.7339 291.6094,764.6245 Q291.7969,764.5151 292.0156,764.5151 Q292.3906,764.5151 292.625,764.7808 Q292.8594,765.0308 292.8594,765.6401 L292.8594,767.0933 Q292.8594,767.7026 292.625,767.9683 Q292.3906,768.2339 292.0156,768.2339 Q291.6719,768.2339 291.4688,768.0308 Q291.2656,767.8433 291.1563,767.3276 Q291.1094,766.9683 290.9219,766.7808 Q290.5938,766.4058 289.9844,766.187 Q289.375,765.9683 288.75,765.9683 Q287.9844,765.9683 287.3438,766.2964 Q286.7188,766.6245 286.2188,767.3745 Q285.7344,768.1245 285.7344,769.1558 L285.7344,770.2495 Q285.7344,771.4839 286.625,772.312 Q287.5156,773.1245 289.1094,773.1245 Q290.0469,773.1245 290.7031,772.8745 Q291.0938,772.7183 291.5156,772.2808 Q291.7813,772.0151 291.9219,771.937 Q292.0781,771.8589 292.2813,771.8589 Q292.6094,771.8589 292.8594,772.1245 Q293.125,772.3745 293.125,772.7183 Q293.125,773.062 292.7813,773.4683 Q292.2813,774.0464 291.4844,774.3745 Q290.4063,774.8276 289.1094,774.8276 Q287.5938,774.8276 286.3906,774.2026 Q285.4063,773.7026 284.7188,772.6401 Q284.0313,771.562 284.0313,770.2808 L284.0313,769.1245 Q284.0313,767.7964 284.6406,766.6558 Q285.2656,765.4995 286.3594,764.8901 Q287.4531,764.2651 288.6875,764.2651 Q289.4219,764.2651 290.0625,764.437 Q290.7188,764.5933 291.2656,764.9526 Z " fill="#000000"/><text fill="#000000" font-family="sans-serif" font-size="12" font-style="italic" lengthAdjust="spacing" textLength="140.7539" x="300.5" y="765.2158">&#171;Express router; planned&#187;</text><text fill="#000000" font-family="sans-serif" font-size="14" lengthAdjust="spacing" textLength="101.165" x="320.2944" y="781.9277">MessageRoutes</text><line style="stroke:#181818;stroke-width:0.5;" x1="274.5" x2="441.2539" y1="790.0039" y2="790.0039"/><line style="stroke:#181818;stroke-width:0.5;" x1="274.5" x2="441.2539" y1="798.0039" y2="798.0039"/></g><!--class AuthController--><g class="entity" data-qualified-name="Controllers.AuthController" data-source-line="40" id="ent0011"><rect fill="#F1F1F1" height="109.3066" rx="2.5" ry="2.5" style="stroke:#181818;stroke-width:0.5;" width="153.2031" x="628" y="298.6514"/><ellipse cx="657.2712" cy="319.5776" fill="#ADD1B2" rx="11" ry="11" style="stroke:#181818;stroke-width:1;"/><path d="M660.0369,315.4526 Q660.1931,315.2339 660.3806,315.1245 Q660.5681,315.0151 660.7869,315.0151 Q661.1619,315.0151 661.3962,315.2808 Q661.6306,315.5308 661.6306,316.1401 L661.6306,317.5933 Q661.6306,318.2026 661.3962,318.4683 Q661.1619,318.7339 660.7869,318.7339 Q660.4431,318.7339 660.24,318.5308 Q660.0369,318.3433 659.9275,317.8276 Q659.8806,317.4683 659.6931,317.2808 Q659.365,316.9058 658.7556,316.687 Q658.1462,316.4683 657.5212,316.4683 Q656.7556,316.4683 656.115,316.7964 Q655.49,317.1245 654.99,317.8745 Q654.5056,318.6245 654.5056,319.6558 L654.5056,320.7495 Q654.5056,321.9839 655.3962,322.812 Q656.2869,323.6245 657.8806,323.6245 Q658.8181,323.6245 659.4744,323.3745 Q659.865,323.2183 660.2869,322.7808 Q660.5525,322.5151 660.6931,322.437 Q660.8494,322.3589 661.0525,322.3589 Q661.3806,322.3589 661.6306,322.6245 Q661.8962,322.8745 661.8962,323.2183 Q661.8962,323.562 661.5525,323.9683 Q661.0525,324.5464 660.2556,324.8745 Q659.1775,325.3276 657.8806,325.3276 Q656.365,325.3276 655.1619,324.7026 Q654.1775,324.2026 653.49,323.1401 Q652.8025,322.062 652.8025,320.7808 L652.8025,319.6245 Q652.8025,318.2964 653.4119,317.1558 Q654.0369,315.9995 655.1306,315.3901 Q656.2244,314.7651 657.4587,314.7651 Q658.1931,314.7651 658.8337,314.937 Q659.49,315.0933 660.0369,315.4526 Z " fill="#000000"/><text fill="#000000" font-family="sans-serif" font-size="12" font-style="italic" lengthAdjust="spacing" textLength="62.7012" x="687.8367" y="315.7158">&#171;controller&#187;</text><text fill="#000000" font-family="sans-serif" font-size="14" lengthAdjust="spacing" textLength="89.4893" x="674.4426" y="332.4277">AuthController</text><line style="stroke:#181818;stroke-width:0.5;" x1="629" x2="780.2031" y1="340.5039" y2="340.5039"/><line style="stroke:#181818;stroke-width:0.5;" x1="629" x2="780.2031" y1="348.5039" y2="348.5039"/><text fill="#000000" font-family="sans-serif" font-size="14" lengthAdjust="spacing" textLength="141.2031" x="634" y="366.5791">+registerUser(req, res)</text><text fill="#000000" font-family="sans-serif" font-size="14" lengthAdjust="spacing" textLength="124.0996" x="634" y="383.7305">+loginUser(req, res)</text><text fill="#000000" font-family="sans-serif" font-size="14" lengthAdjust="spacing" textLength="103.1064" x="634" y="400.8818">+logout(req, res)</text></g><!--class UsersController--><g class="entity" data-qualified-name="Controllers.UsersController" data-source-line="45" id="ent0012"><rect fill="#F1F1F1" height="143.6094" rx="2.5" ry="2.5" style="stroke:#181818;stroke-width:0.5;" width="224.8232" x="592" y="715.1514"/><ellipse cx="651.5376" cy="736.0776" fill="#ADD1B2" rx="11" ry="11" style="stroke:#181818;stroke-width:1;"/><path d="M654.3032,731.9526 Q654.4595,731.7339 654.647,731.6245 Q654.8345,731.5151 655.0532,731.5151 Q655.4282,731.5151 655.6626,731.7808 Q655.897,732.0308 655.897,732.6401 L655.897,734.0933 Q655.897,734.7026 655.6626,734.9683 Q655.4282,735.2339 655.0532,735.2339 Q654.7095,735.2339 654.5063,735.0308 Q654.3032,734.8433 654.1938,734.3276 Q654.147,733.9683 653.9595,733.7808 Q653.6313,733.4058 653.022,733.187 Q652.4126,732.9683 651.7876,732.9683 Q651.022,732.9683 650.3813,733.2964 Q649.7563,733.6245 649.2563,734.3745 Q648.772,735.1245 648.772,736.1558 L648.772,737.2495 Q648.772,738.4839 649.6626,739.312 Q650.5532,740.1245 652.147,740.1245 Q653.0845,740.1245 653.7407,739.8745 Q654.1313,739.7183 654.5532,739.2808 Q654.8188,739.0151 654.9595,738.937 Q655.1157,738.8589 655.3188,738.8589 Q655.647,738.8589 655.897,739.1245 Q656.1626,739.3745 656.1626,739.7183 Q656.1626,740.062 655.8188,740.4683 Q655.3188,741.0464 654.522,741.3745 Q653.4438,741.8276 652.147,741.8276 Q650.6313,741.8276 649.4282,741.2026 Q648.4438,740.7026 647.7563,739.6401 Q647.0688,738.562 647.0688,737.2808 L647.0688,736.1245 Q647.0688,734.7964 647.6782,733.6558 Q648.3032,732.4995 649.397,731.8901 Q650.4907,731.2651 651.7251,731.2651 Q652.4595,731.2651 653.1001,731.437 Q653.7563,731.5933 654.3032,731.9526 Z " fill="#000000"/><text fill="#000000" font-family="sans-serif" font-size="12" font-style="italic" lengthAdjust="spacing" textLength="62.7012" x="689.311" y="732.2158">&#171;controller&#187;</text><text fill="#000000" font-family="sans-serif" font-size="14" lengthAdjust="spacing" textLength="97.248" x="672.0376" y="748.9277">UsersController</text><line style="stroke:#181818;stroke-width:0.5;" x1="593" x2="815.8232" y1="757.0039" y2="757.0039"/><line style="stroke:#181818;stroke-width:0.5;" x1="593" x2="815.8232" y1="765.0039" y2="765.0039"/><text fill="#000000" font-family="sans-serif" font-size="14" lengthAdjust="spacing" textLength="153.665" x="598" y="783.0791">+getUserProfile(req, res)</text><text fill="#000000" font-family="sans-serif" font-size="14" lengthAdjust="spacing" textLength="113.9824" x="598" y="800.2305">+getUser(req, res)</text><text fill="#000000" font-family="sans-serif" font-size="14" lengthAdjust="spacing" textLength="137.3408" x="598" y="817.3818">+updateUser(req, res)</text><text fill="#000000" font-family="sans-serif" font-size="14" lengthAdjust="spacing" textLength="212.8232" x="598" y="834.5332">+updateUserPreferences(req, res)</text><text fill="#000000" font-family="sans-serif" font-size="14" lengthAdjust="spacing" textLength="132.665" x="598" y="851.6846">+deleteUser(req, res)</text></g><!--class EventController--><g class="entity" data-qualified-name="Controllers.EventController" data-source-line="52" id="ent0013"><rect fill="#F1F1F1" height="109.3066" rx="2.5" ry="2.5" style="stroke:#181818;stroke-width:0.5;" width="303.4365" x="553" y="154.6514"/><ellipse cx="652.2236" cy="175.5776" fill="#ADD1B2" rx="11" ry="11" style="stroke:#181818;stroke-width:1;"/><path d="M654.9893,171.4526 Q655.1455,171.2339 655.333,171.1245 Q655.5205,171.0151 655.7393,171.0151 Q656.1143,171.0151 656.3486,171.2808 Q656.583,171.5308 656.583,172.1401 L656.583,173.5933 Q656.583,174.2026 656.3486,174.4683 Q656.1143,174.7339 655.7393,174.7339 Q655.3955,174.7339 655.1924,174.5308 Q654.9893,174.3433 654.8799,173.8276 Q654.833,173.4683 654.6455,173.2808 Q654.3174,172.9058 653.708,172.687 Q653.0986,172.4683 652.4736,172.4683 Q651.708,172.4683 651.0674,172.7964 Q650.4424,173.1245 649.9424,173.8745 Q649.458,174.6245 649.458,175.6558 L649.458,176.7495 Q649.458,177.9839 650.3486,178.812 Q651.2393,179.6245 652.833,179.6245 Q653.7705,179.6245 654.4268,179.3745 Q654.8174,179.2183 655.2393,178.7808 Q655.5049,178.5151 655.6455,178.437 Q655.8018,178.3589 656.0049,178.3589 Q656.333,178.3589 656.583,178.6245 Q656.8486,178.8745 656.8486,179.2183 Q656.8486,179.562 656.5049,179.9683 Q656.0049,180.5464 655.208,180.8745 Q654.1299,181.3276 652.833,181.3276 Q651.3174,181.3276 650.1143,180.7026 Q649.1299,180.2026 648.4424,179.1401 Q647.7549,178.062 647.7549,176.7808 L647.7549,175.6245 Q647.7549,174.2964 648.3643,173.1558 Q648.9893,171.9995 650.083,171.3901 Q651.1768,170.7651 652.4111,170.7651 Q653.1455,170.7651 653.7861,170.937 Q654.4424,171.0933 654.9893,171.4526 Z " fill="#000000"/><text fill="#000000" font-family="sans-serif" font-size="12" font-style="italic" lengthAdjust="spacing" textLength="62.7012" x="689.6177" y="171.7158">&#171;controller&#187;</text><text fill="#000000" font-family="sans-serif" font-size="14" lengthAdjust="spacing" textLength="96.4893" x="672.7236" y="188.4277">EventController</text><line style="stroke:#181818;stroke-width:0.5;" x1="554" x2="855.4365" y1="196.5039" y2="196.5039"/><line style="stroke:#181818;stroke-width:0.5;" x1="554" x2="855.4365" y1="204.5039" y2="204.5039"/><text fill="#000000" font-family="sans-serif" font-size="14" lengthAdjust="spacing" textLength="127.2236" x="559" y="222.5791">+getEvents(req, res)</text><text fill="#000000" font-family="sans-serif" font-size="14" lengthAdjust="spacing" textLength="237.7334" x="559" y="239.7305">+registerForEvent(req, res) &#171;planned&#187;</text><text fill="#000000" font-family="sans-serif" font-size="14" lengthAdjust="spacing" textLength="291.4365" x="559" y="256.8818">+removeEventRegistration(req, res) &#171;planned&#187;</text></g><!--class ConnectionController--><g class="entity" data-qualified-name="Controllers.ConnectionController" data-source-line="57" id="ent0014"><rect fill="#F1F1F1" height="109.3066" rx="2.5" ry="2.5" style="stroke:#181818;stroke-width:0.5;" width="195.2441" x="607" y="570.6514"/><ellipse cx="636.2774" cy="591.5776" fill="#ADD1B2" rx="11" ry="11" style="stroke:#181818;stroke-width:1;"/><path d="M639.043,587.4526 Q639.1993,587.2339 639.3868,587.1245 Q639.5743,587.0151 639.793,587.0151 Q640.168,587.0151 640.4024,587.2808 Q640.6368,587.5308 640.6368,588.1401 L640.6368,589.5933 Q640.6368,590.2026 640.4024,590.4683 Q640.168,590.7339 639.793,590.7339 Q639.4493,590.7339 639.2461,590.5308 Q639.043,590.3433 638.9336,589.8276 Q638.8868,589.4683 638.6993,589.2808 Q638.3711,588.9058 637.7618,588.687 Q637.1524,588.4683 636.5274,588.4683 Q635.7618,588.4683 635.1211,588.7964 Q634.4961,589.1245 633.9961,589.8745 Q633.5118,590.6245 633.5118,591.6558 L633.5118,592.7495 Q633.5118,593.9839 634.4024,594.812 Q635.293,595.6245 636.8868,595.6245 Q637.8243,595.6245 638.4805,595.3745 Q638.8711,595.2183 639.293,594.7808 Q639.5586,594.5151 639.6993,594.437 Q639.8555,594.3589 640.0586,594.3589 Q640.3868,594.3589 640.6368,594.6245 Q640.9024,594.8745 640.9024,595.2183 Q640.9024,595.562 640.5586,595.9683 Q640.0586,596.5464 639.2618,596.8745 Q638.1836,597.3276 636.8868,597.3276 Q635.3711,597.3276 634.168,596.7026 Q633.1836,596.2026 632.4961,595.1401 Q631.8086,594.062 631.8086,592.7808 L631.8086,591.6245 Q631.8086,590.2964 632.418,589.1558 Q633.043,587.9995 634.1368,587.3901 Q635.2305,586.7651 636.4649,586.7651 Q637.1993,586.7651 637.8399,586.937 Q638.4961,587.0933 639.043,587.4526 Z " fill="#000000"/><text fill="#000000" font-family="sans-serif" font-size="12" font-style="italic" lengthAdjust="spacing" textLength="112.0781" x="663.1694" y="587.7158">&#171;controller; planned&#187;</text><text fill="#000000" font-family="sans-serif" font-size="14" lengthAdjust="spacing" textLength="131.5166" x="653.4501" y="604.4277">ConnectionController</text><line style="stroke:#181818;stroke-width:0.5;" x1="608" x2="801.2441" y1="612.5039" y2="612.5039"/><line style="stroke:#181818;stroke-width:0.5;" x1="608" x2="801.2441" y1="620.5039" y2="620.5039"/><text fill="#000000" font-family="sans-serif" font-size="14" lengthAdjust="spacing" textLength="183.2441" x="613" y="638.5791">+getInterestedUsers(req, res)</text><text fill="#000000" font-family="sans-serif" font-size="14" lengthAdjust="spacing" textLength="182.4854" x="613" y="655.7305">+requestConnection(req, res)</text><text fill="#000000" font-family="sans-serif" font-size="14" lengthAdjust="spacing" textLength="162.251" x="613" y="672.8818">+getConnections(req, res)</text></g><!--class MessageController--><g class="entity" data-qualified-name="Controllers.MessageController" data-source-line="62" id="ent0015"><rect fill="#F1F1F1" height="92.1553" rx="2.5" ry="2.5" style="stroke:#181818;stroke-width:0.5;" width="164.127" x="622.5" y="443.1514"/><ellipse cx="644.0839" cy="464.0776" fill="#ADD1B2" rx="11" ry="11" style="stroke:#181818;stroke-width:1;"/><path d="M646.8495,459.9526 Q647.0058,459.7339 647.1933,459.6245 Q647.3808,459.5151 647.5995,459.5151 Q647.9745,459.5151 648.2089,459.7808 Q648.4433,460.0308 648.4433,460.6401 L648.4433,462.0933 Q648.4433,462.7026 648.2089,462.9683 Q647.9745,463.2339 647.5995,463.2339 Q647.2558,463.2339 647.0526,463.0308 Q646.8495,462.8433 646.7401,462.3276 Q646.6933,461.9683 646.5058,461.7808 Q646.1776,461.4058 645.5683,461.187 Q644.9589,460.9683 644.3339,460.9683 Q643.5683,460.9683 642.9276,461.2964 Q642.3026,461.6245 641.8026,462.3745 Q641.3183,463.1245 641.3183,464.1558 L641.3183,465.2495 Q641.3183,466.4839 642.2089,467.312 Q643.0995,468.1245 644.6933,468.1245 Q645.6308,468.1245 646.287,467.8745 Q646.6776,467.7183 647.0995,467.2808 Q647.3651,467.0151 647.5058,466.937 Q647.662,466.8589 647.8651,466.8589 Q648.1933,466.8589 648.4433,467.1245 Q648.7089,467.3745 648.7089,467.7183 Q648.7089,468.062 648.3651,468.4683 Q647.8651,469.0464 647.0683,469.3745 Q645.9901,469.8276 644.6933,469.8276 Q643.1776,469.8276 641.9745,469.2026 Q640.9901,468.7026 640.3026,467.6401 Q639.6151,466.562 639.6151,465.2808 L639.6151,464.1245 Q639.6151,462.7964 640.2245,461.6558 Q640.8495,460.4995 641.9433,459.8901 Q643.037,459.2651 644.2714,459.2651 Q645.0058,459.2651 645.6464,459.437 Q646.3026,459.5933 646.8495,459.9526 Z " fill="#000000"/><text fill="#000000" font-family="sans-serif" font-size="12" font-style="italic" lengthAdjust="spacing" textLength="112.0781" x="662.256" y="460.2158">&#171;controller; planned&#187;</text><text fill="#000000" font-family="sans-serif" font-size="14" lengthAdjust="spacing" textLength="117.4961" x="659.547" y="476.9277">MessageController</text><line style="stroke:#181818;stroke-width:0.5;" x1="623.5" x2="785.627" y1="485.0039" y2="485.0039"/><line style="stroke:#181818;stroke-width:0.5;" x1="623.5" x2="785.627" y1="493.0039" y2="493.0039"/><text fill="#000000" font-family="sans-serif" font-size="14" lengthAdjust="spacing" textLength="148.2305" x="628.5" y="511.0791">+getMessages(req, res)</text><text fill="#000000" font-family="sans-serif" font-size="14" lengthAdjust="spacing" textLength="152.127" x="628.5" y="528.2305">+sendMessage(req, res)</text></g><!--class AuthMiddleware--><g class="entity" data-qualified-name="Middleware.AuthMiddleware" data-source-line="69" id="ent0017"><rect fill="#F1F1F1" height="75.0039" rx="2.5" ry="2.5" style="stroke:#181818;stroke-width:0.5;" width="183.5615" x="612.5" y="1079.6514"/><ellipse cx="650.5291" cy="1100.5776" fill="#ADD1B2" rx="11" ry="11" style="stroke:#181818;stroke-width:1;"/><path d="M653.2947,1096.4526 Q653.451,1096.2339 653.6385,1096.1245 Q653.826,1096.0151 654.0447,1096.0151 Q654.4197,1096.0151 654.6541,1096.2808 Q654.8885,1096.5308 654.8885,1097.1401 L654.8885,1098.5933 Q654.8885,1099.2026 654.6541,1099.4683 Q654.4197,1099.7339 654.0447,1099.7339 Q653.701,1099.7339 653.4979,1099.5308 Q653.2947,1099.3433 653.1854,1098.8276 Q653.1385,1098.4683 652.951,1098.2808 Q652.6229,1097.9058 652.0135,1097.687 Q651.4041,1097.4683 650.7791,1097.4683 Q650.0135,1097.4683 649.3729,1097.7964 Q648.7479,1098.1245 648.2479,1098.8745 Q647.7635,1099.6245 647.7635,1100.6558 L647.7635,1101.7495 Q647.7635,1102.9839 648.6541,1103.812 Q649.5447,1104.6245 651.1385,1104.6245 Q652.076,1104.6245 652.7322,1104.3745 Q653.1229,1104.2183 653.5447,1103.7808 Q653.8104,1103.5151 653.951,1103.437 Q654.1072,1103.3589 654.3104,1103.3589 Q654.6385,1103.3589 654.8885,1103.6245 Q655.1541,1103.8745 655.1541,1104.2183 Q655.1541,1104.562 654.8104,1104.9683 Q654.3104,1105.5464 653.5135,1105.8745 Q652.4354,1106.3276 651.1385,1106.3276 Q649.6229,1106.3276 648.4197,1105.7026 Q647.4354,1105.2026 646.7479,1104.1401 Q646.0604,1103.062 646.0604,1101.7808 L646.0604,1100.6245 Q646.0604,1099.2964 646.6697,1098.1558 Q647.2947,1096.9995 648.3885,1096.3901 Q649.4822,1095.7651 650.7166,1095.7651 Q651.451,1095.7651 652.0916,1095.937 Q652.7479,1096.0933 653.2947,1096.4526 Z " fill="#000000"/><text fill="#000000" font-family="sans-serif" font-size="12" font-style="italic" lengthAdjust="spacing" textLength="74.707" x="682.486" y="1096.7158">&#171;middleware&#187;</text><text fill="#000000" font-family="sans-serif" font-size="14" lengthAdjust="spacing" textLength="100.3857" x="669.6467" y="1113.4277">AuthMiddleware</text><line style="stroke:#181818;stroke-width:0.5;" x1="613.5" x2="795.0615" y1="1121.5039" y2="1121.5039"/><line style="stroke:#181818;stroke-width:0.5;" x1="613.5" x2="795.0615" y1="1129.5039" y2="1129.5039"/><text fill="#000000" font-family="sans-serif" font-size="14" lengthAdjust="spacing" textLength="171.5615" x="618.5" y="1147.5791">+verifyToken(req, res, next)</text></g><!--class UploadMiddleware--><g class="entity" data-qualified-name="Middleware.UploadMiddleware" data-source-line="72" id="ent0018"><rect fill="#F1F1F1" height="75.0039" rx="2.5" ry="2.5" style="stroke:#181818;stroke-width:0.5;" width="231.8369" x="588.5" y="1189.6514"/><ellipse cx="642.1929" cy="1210.5776" fill="#ADD1B2" rx="11" ry="11" style="stroke:#181818;stroke-width:1;"/><path d="M644.9585,1206.4526 Q645.1147,1206.2339 645.3022,1206.1245 Q645.4897,1206.0151 645.7085,1206.0151 Q646.0835,1206.0151 646.3179,1206.2808 Q646.5522,1206.5308 646.5522,1207.1401 L646.5522,1208.5933 Q646.5522,1209.2026 646.3179,1209.4683 Q646.0835,1209.7339 645.7085,1209.7339 Q645.3647,1209.7339 645.1616,1209.5308 Q644.9585,1209.3433 644.8491,1208.8276 Q644.8022,1208.4683 644.6147,1208.2808 Q644.2866,1207.9058 643.6772,1207.687 Q643.0679,1207.4683 642.4429,1207.4683 Q641.6772,1207.4683 641.0366,1207.7964 Q640.4116,1208.1245 639.9116,1208.8745 Q639.4272,1209.6245 639.4272,1210.6558 L639.4272,1211.7495 Q639.4272,1212.9839 640.3179,1213.812 Q641.2085,1214.6245 642.8022,1214.6245 Q643.7397,1214.6245 644.396,1214.3745 Q644.7866,1214.2183 645.2085,1213.7808 Q645.4741,1213.5151 645.6147,1213.437 Q645.771,1213.3589 645.9741,1213.3589 Q646.3022,1213.3589 646.5522,1213.6245 Q646.8179,1213.8745 646.8179,1214.2183 Q646.8179,1214.562 646.4741,1214.9683 Q645.9741,1215.5464 645.1772,1215.8745 Q644.0991,1216.3276 642.8022,1216.3276 Q641.2866,1216.3276 640.0835,1215.7026 Q639.0991,1215.2026 638.4116,1214.1401 Q637.7241,1213.062 637.7241,1211.7808 L637.7241,1210.6245 Q637.7241,1209.2964 638.3335,1208.1558 Q638.9585,1206.9995 640.0522,1206.3901 Q641.146,1205.7651 642.3804,1205.7651 Q643.1147,1205.7651 643.7554,1205.937 Q644.4116,1206.0933 644.9585,1206.4526 Z " fill="#000000"/><text fill="#000000" font-family="sans-serif" font-size="12" font-style="italic" lengthAdjust="spacing" textLength="74.707" x="683.3149" y="1206.7158">&#171;middleware&#187;</text><text fill="#000000" font-family="sans-serif" font-size="14" lengthAdjust="spacing" textLength="115.9512" x="662.6929" y="1223.4277">UploadMiddleware</text><line style="stroke:#181818;stroke-width:0.5;" x1="589.5" x2="819.3369" y1="1231.5039" y2="1231.5039"/><line style="stroke:#181818;stroke-width:0.5;" x1="589.5" x2="819.3369" y1="1239.5039" y2="1239.5039"/><text fill="#000000" font-family="sans-serif" font-size="14" lengthAdjust="spacing" textLength="219.8369" x="594.5" y="1257.5791">+uploadProfileImage(req, res, next)</text></g><!--class ResourceAuthorization--><g class="entity" data-qualified-name="Middleware.ResourceAuthorization" data-source-line="75" id="ent0019"><rect fill="#F1F1F1" height="109.3066" rx="2.5" ry="2.5" style="stroke:#181818;stroke-width:0.5;" width="224.0645" x="592.5" y="935.6514"/><ellipse cx="630.1938" cy="956.5776" fill="#ADD1B2" rx="11" ry="11" style="stroke:#181818;stroke-width:1;"/><path d="M632.9594,952.4526 Q633.1157,952.2339 633.3032,952.1245 Q633.4907,952.0151 633.7094,952.0151 Q634.0844,952.0151 634.3188,952.2808 Q634.5532,952.5308 634.5532,953.1401 L634.5532,954.5933 Q634.5532,955.2026 634.3188,955.4683 Q634.0844,955.7339 633.7094,955.7339 Q633.3657,955.7339 633.1625,955.5308 Q632.9594,955.3433 632.85,954.8276 Q632.8032,954.4683 632.6157,954.2808 Q632.2875,953.9058 631.6782,953.687 Q631.0688,953.4683 630.4438,953.4683 Q629.6782,953.4683 629.0375,953.7964 Q628.4125,954.1245 627.9125,954.8745 Q627.4282,955.6245 627.4282,956.6558 L627.4282,957.7495 Q627.4282,958.9839 628.3188,959.812 Q629.2094,960.6245 630.8032,960.6245 Q631.7407,960.6245 632.3969,960.3745 Q632.7875,960.2183 633.2094,959.7808 Q633.475,959.5151 633.6157,959.437 Q633.7719,959.3589 633.975,959.3589 Q634.3032,959.3589 634.5532,959.6245 Q634.8188,959.8745 634.8188,960.2183 Q634.8188,960.562 634.475,960.9683 Q633.975,961.5464 633.1782,961.8745 Q632.1,962.3276 630.8032,962.3276 Q629.2875,962.3276 628.0844,961.7026 Q627.1,961.2026 626.4125,960.1401 Q625.725,959.062 625.725,957.7808 L625.725,956.6245 Q625.725,955.2964 626.3344,954.1558 Q626.9594,952.9995 628.0532,952.3901 Q629.1469,951.7651 630.3813,951.7651 Q631.1157,951.7651 631.7563,951.937 Q632.4125,952.0933 632.9594,952.4526 Z " fill="#000000"/><text fill="#000000" font-family="sans-serif" font-size="12" font-style="italic" lengthAdjust="spacing" textLength="124.084" x="658.0118" y="952.7158">&#171;middleware; planned&#187;</text><text fill="#000000" font-family="sans-serif" font-size="14" lengthAdjust="spacing" textLength="141.6338" x="649.2369" y="969.4277">ResourceAuthorization</text><line style="stroke:#181818;stroke-width:0.5;" x1="593.5" x2="815.5645" y1="977.5039" y2="977.5039"/><line style="stroke:#181818;stroke-width:0.5;" x1="593.5" x2="815.5645" y1="985.5039" y2="985.5039"/><text fill="#000000" font-family="sans-serif" font-size="14" lengthAdjust="spacing" textLength="191.0303" x="598.5" y="1003.5791">+authorizeRegistrationOwner()</text><text fill="#000000" font-family="sans-serif" font-size="14" lengthAdjust="spacing" textLength="212.0645" x="598.5" y="1020.7305">+authorizeConnectionParticipant()</text><text fill="#000000" font-family="sans-serif" font-size="14" lengthAdjust="spacing" textLength="176.2578" x="598.5" y="1037.8818">+authorizeMessageThread()</text></g><!--class EventSyncService--><g class="entity" data-qualified-name="Services.EventSyncService" data-source-line="83" id="ent0021"><rect fill="#F1F1F1" height="75.0039" rx="2.5" ry="2.5" style="stroke:#181818;stroke-width:0.5;" width="189.0303" x="974" y="438.6514"/><ellipse cx="1008.5407" cy="459.5776" fill="#ADD1B2" rx="11" ry="11" style="stroke:#181818;stroke-width:1;"/><path d="M1011.3063,455.4526 Q1011.4626,455.2339 1011.6501,455.1245 Q1011.8376,455.0151 1012.0563,455.0151 Q1012.4313,455.0151 1012.6657,455.2808 Q1012.9001,455.5308 1012.9001,456.1401 L1012.9001,457.5933 Q1012.9001,458.2026 1012.6657,458.4683 Q1012.4313,458.7339 1012.0563,458.7339 Q1011.7126,458.7339 1011.5095,458.5308 Q1011.3063,458.3433 1011.197,457.8276 Q1011.1501,457.4683 1010.9626,457.2808 Q1010.6345,456.9058 1010.0251,456.687 Q1009.4157,456.4683 1008.7907,456.4683 Q1008.0251,456.4683 1007.3845,456.7964 Q1006.7595,457.1245 1006.2595,457.8745 Q1005.7751,458.6245 1005.7751,459.6558 L1005.7751,460.7495 Q1005.7751,461.9839 1006.6657,462.812 Q1007.5563,463.6245 1009.1501,463.6245 Q1010.0876,463.6245 1010.7438,463.3745 Q1011.1345,463.2183 1011.5563,462.7808 Q1011.822,462.5151 1011.9626,462.437 Q1012.1188,462.3589 1012.322,462.3589 Q1012.6501,462.3589 1012.9001,462.6245 Q1013.1657,462.8745 1013.1657,463.2183 Q1013.1657,463.562 1012.822,463.9683 Q1012.322,464.5464 1011.5251,464.8745 Q1010.447,465.3276 1009.1501,465.3276 Q1007.6345,465.3276 1006.4313,464.7026 Q1005.447,464.2026 1004.7595,463.1401 Q1004.072,462.062 1004.072,460.7808 L1004.072,459.6245 Q1004.072,458.2964 1004.6813,457.1558 Q1005.3063,455.9995 1006.4001,455.3901 Q1007.4938,454.7651 1008.7282,454.7651 Q1009.4626,454.7651 1010.1032,454.937 Q1010.7595,455.0933 1011.3063,455.4526 Z " fill="#000000"/><text fill="#000000" font-family="sans-serif" font-size="12" font-style="italic" lengthAdjust="spacing" textLength="51.3574" x="1058.0076" y="455.7158">&#171;service&#187;</text><text fill="#000000" font-family="sans-serif" font-size="14" lengthAdjust="spacing" textLength="113.6064" x="1026.8831" y="472.4277">EventSyncService</text><line style="stroke:#181818;stroke-width:0.5;" x1="975" x2="1162.0303" y1="480.5039" y2="480.5039"/><line style="stroke:#181818;stroke-width:0.5;" x1="975" x2="1162.0303" y1="488.5039" y2="488.5039"/><text fill="#000000" font-family="sans-serif" font-size="14" lengthAdjust="spacing" textLength="177.0303" x="980" y="506.5791">+handleSync(classifications)</text></g><!--class ConnectionService--><g class="entity" data-qualified-name="Services.ConnectionService" data-source-line="86" id="ent0022"><rect fill="#F1F1F1" height="109.3066" rx="2.5" ry="2.5" style="stroke:#181818;stroke-width:0.5;" width="298.7607" x="919" y="676.6514"/><ellipse cx="1005.3755" cy="697.5776" fill="#ADD1B2" rx="11" ry="11" style="stroke:#181818;stroke-width:1;"/><path d="M1008.1411,693.4526 Q1008.2974,693.2339 1008.4849,693.1245 Q1008.6724,693.0151 1008.8911,693.0151 Q1009.2661,693.0151 1009.5005,693.2808 Q1009.7349,693.5308 1009.7349,694.1401 L1009.7349,695.5933 Q1009.7349,696.2026 1009.5005,696.4683 Q1009.2661,696.7339 1008.8911,696.7339 Q1008.5474,696.7339 1008.3442,696.5308 Q1008.1411,696.3433 1008.0317,695.8276 Q1007.9849,695.4683 1007.7974,695.2808 Q1007.4692,694.9058 1006.8599,694.687 Q1006.2505,694.4683 1005.6255,694.4683 Q1004.8599,694.4683 1004.2192,694.7964 Q1003.5942,695.1245 1003.0942,695.8745 Q1002.6099,696.6245 1002.6099,697.6558 L1002.6099,698.7495 Q1002.6099,699.9839 1003.5005,700.812 Q1004.3911,701.6245 1005.9849,701.6245 Q1006.9224,701.6245 1007.5786,701.3745 Q1007.9692,701.2183 1008.3911,700.7808 Q1008.6567,700.5151 1008.7974,700.437 Q1008.9536,700.3589 1009.1567,700.3589 Q1009.4849,700.3589 1009.7349,700.6245 Q1010.0005,700.8745 1010.0005,701.2183 Q1010.0005,701.562 1009.6567,701.9683 Q1009.1567,702.5464 1008.3599,702.8745 Q1007.2817,703.3276 1005.9849,703.3276 Q1004.4692,703.3276 1003.2661,702.7026 Q1002.2817,702.2026 1001.5942,701.1401 Q1000.9067,700.062 1000.9067,698.7808 L1000.9067,697.6245 Q1000.9067,696.2964 1001.5161,695.1558 Q1002.1411,693.9995 1003.2349,693.3901 Q1004.3286,692.7651 1005.563,692.7651 Q1006.2974,692.7651 1006.938,692.937 Q1007.5942,693.0933 1008.1411,693.4526 Z " fill="#000000"/><text fill="#000000" font-family="sans-serif" font-size="12" font-style="italic" lengthAdjust="spacing" textLength="100.7344" x="1034.2632" y="693.7158">&#171;service; planned&#187;</text><text fill="#000000" font-family="sans-serif" font-size="14" lengthAdjust="spacing" textLength="117.5098" x="1025.8755" y="710.4277">ConnectionService</text><line style="stroke:#181818;stroke-width:0.5;" x1="920" x2="1216.7607" y1="718.5039" y2="718.5039"/><line style="stroke:#181818;stroke-width:0.5;" x1="920" x2="1216.7607" y1="726.5039" y2="726.5039"/><text fill="#000000" font-family="sans-serif" font-size="14" lengthAdjust="spacing" textLength="286.7607" x="925" y="744.5791">+recordRequest(senderId, receiverId, eventId)</text><text fill="#000000" font-family="sans-serif" font-size="14" lengthAdjust="spacing" textLength="164.5752" x="925" y="761.7305">+checkMutualAgreement()</text><text fill="#000000" font-family="sans-serif" font-size="14" lengthAdjust="spacing" textLength="127.2373" x="925" y="778.8818">+createConnection()</text></g><!--class MessageService--><g class="entity" data-qualified-name="Services.MessageService" data-source-line="91" id="ent0023"><rect fill="#F1F1F1" height="92.1553" rx="2.5" ry="2.5" style="stroke:#181818;stroke-width:0.5;" width="183.5957" x="976.5" y="549.1514"/><ellipse cx="1013.1479" cy="570.0776" fill="#ADD1B2" rx="11" ry="11" style="stroke:#181818;stroke-width:1;"/><path d="M1015.9135,565.9526 Q1016.0698,565.7339 1016.2573,565.6245 Q1016.4448,565.5151 1016.6635,565.5151 Q1017.0385,565.5151 1017.2729,565.7808 Q1017.5073,566.0308 1017.5073,566.6401 L1017.5073,568.0933 Q1017.5073,568.7026 1017.2729,568.9683 Q1017.0385,569.2339 1016.6635,569.2339 Q1016.3198,569.2339 1016.1167,569.0308 Q1015.9135,568.8433 1015.8042,568.3276 Q1015.7573,567.9683 1015.5698,567.7808 Q1015.2417,567.4058 1014.6323,567.187 Q1014.0229,566.9683 1013.3979,566.9683 Q1012.6323,566.9683 1011.9917,567.2964 Q1011.3667,567.6245 1010.8667,568.3745 Q1010.3823,569.1245 1010.3823,570.1558 L1010.3823,571.2495 Q1010.3823,572.4839 1011.2729,573.312 Q1012.1635,574.1245 1013.7573,574.1245 Q1014.6948,574.1245 1015.351,573.8745 Q1015.7417,573.7183 1016.1635,573.2808 Q1016.4292,573.0151 1016.5698,572.937 Q1016.726,572.8589 1016.9292,572.8589 Q1017.2573,572.8589 1017.5073,573.1245 Q1017.7729,573.3745 1017.7729,573.7183 Q1017.7729,574.062 1017.4292,574.4683 Q1016.9292,575.0464 1016.1323,575.3745 Q1015.0542,575.8276 1013.7573,575.8276 Q1012.2417,575.8276 1011.0385,575.2026 Q1010.0542,574.7026 1009.3667,573.6401 Q1008.6792,572.562 1008.6792,571.2808 L1008.6792,570.1245 Q1008.6792,568.7964 1009.2885,567.6558 Q1009.9135,566.4995 1011.0073,565.8901 Q1012.101,565.2651 1013.3354,565.2651 Q1014.0698,565.2651 1014.7104,565.437 Q1015.3667,565.5933 1015.9135,565.9526 Z " fill="#000000"/><text fill="#000000" font-family="sans-serif" font-size="12" font-style="italic" lengthAdjust="spacing" textLength="100.7344" x="1033.336" y="566.2158">&#171;service; planned&#187;</text><text fill="#000000" font-family="sans-serif" font-size="14" lengthAdjust="spacing" textLength="103.4893" x="1031.9585" y="582.9277">MessageService</text><line style="stroke:#181818;stroke-width:0.5;" x1="977.5" x2="1159.0957" y1="591.0039" y2="591.0039"/><line style="stroke:#181818;stroke-width:0.5;" x1="977.5" x2="1159.0957" y1="599.0039" y2="599.0039"/><text fill="#000000" font-family="sans-serif" font-size="14" lengthAdjust="spacing" textLength="171.5957" x="982.5" y="617.0791">+getConnectionMessages()</text><text fill="#000000" font-family="sans-serif" font-size="14" lengthAdjust="spacing" textLength="113.2168" x="982.5" y="634.2305">+createMessage()</text></g><!--class DatabasePool--><g class="entity" data-qualified-name="Database Access.DatabasePool" data-source-line="98" id="ent0025"><rect fill="#F1F1F1" height="75.0039" rx="2.5" ry="2.5" style="stroke:#181818;stroke-width:0.5;" width="138.7539" x="1554" y="404.6514"/><ellipse cx="1569" cy="425.5776" fill="#ADD1B2" rx="11" ry="11" style="stroke:#181818;stroke-width:1;"/><path d="M1571.7656,421.4526 Q1571.9219,421.2339 1572.1094,421.1245 Q1572.2969,421.0151 1572.5156,421.0151 Q1572.8906,421.0151 1573.125,421.2808 Q1573.3594,421.5308 1573.3594,422.1401 L1573.3594,423.5933 Q1573.3594,424.2026 1573.125,424.4683 Q1572.8906,424.7339 1572.5156,424.7339 Q1572.1719,424.7339 1571.9688,424.5308 Q1571.7656,424.3433 1571.6563,423.8276 Q1571.6094,423.4683 1571.4219,423.2808 Q1571.0938,422.9058 1570.4844,422.687 Q1569.875,422.4683 1569.25,422.4683 Q1568.4844,422.4683 1567.8438,422.7964 Q1567.2188,423.1245 1566.7188,423.8745 Q1566.2344,424.6245 1566.2344,425.6558 L1566.2344,426.7495 Q1566.2344,427.9839 1567.125,428.812 Q1568.0156,429.6245 1569.6094,429.6245 Q1570.5469,429.6245 1571.2031,429.3745 Q1571.5938,429.2183 1572.0156,428.7808 Q1572.2813,428.5151 1572.4219,428.437 Q1572.5781,428.3589 1572.7813,428.3589 Q1573.1094,428.3589 1573.3594,428.6245 Q1573.625,428.8745 1573.625,429.2183 Q1573.625,429.562 1573.2813,429.9683 Q1572.7813,430.5464 1571.9844,430.8745 Q1570.9063,431.3276 1569.6094,431.3276 Q1568.0938,431.3276 1566.8906,430.7026 Q1565.9063,430.2026 1565.2188,429.1401 Q1564.5313,428.062 1564.5313,426.7808 L1564.5313,425.6245 Q1564.5313,424.2964 1565.1406,423.1558 Q1565.7656,421.9995 1566.8594,421.3901 Q1567.9531,420.7651 1569.1875,420.7651 Q1569.9219,420.7651 1570.5625,420.937 Q1571.2188,421.0933 1571.7656,421.4526 Z " fill="#000000"/><text fill="#000000" font-family="sans-serif" font-size="12" font-style="italic" lengthAdjust="spacing" textLength="110.7539" x="1581" y="421.7158">&#171;database gateway&#187;</text><text fill="#000000" font-family="sans-serif" font-size="14" lengthAdjust="spacing" textLength="87.9512" x="1592.4014" y="438.4277">DatabasePool</text><line style="stroke:#181818;stroke-width:0.5;" x1="1555" x2="1691.7539" y1="446.5039" y2="446.5039"/><line style="stroke:#181818;stroke-width:0.5;" x1="1555" x2="1691.7539" y1="454.5039" y2="454.5039"/><text fill="#000000" font-family="sans-serif" font-size="14" lengthAdjust="spacing" textLength="120.2305" x="1560" y="472.5791">+createPool(): Pool</text></g><!--class EventModel--><g class="entity" data-qualified-name="Database Access.EventModel" data-source-line="101" id="ent0026"><rect fill="#F1F1F1" height="109.3066" rx="2.5" ry="2.5" style="stroke:#181818;stroke-width:0.5;" width="216.2441" x="1278" y="514.6514"/><ellipse cx="1344.9067" cy="535.5776" fill="#ADD1B2" rx="11" ry="11" style="stroke:#181818;stroke-width:1;"/><path d="M1347.6724,531.4526 Q1347.8286,531.2339 1348.0161,531.1245 Q1348.2036,531.0151 1348.4224,531.0151 Q1348.7974,531.0151 1349.0317,531.2808 Q1349.2661,531.5308 1349.2661,532.1401 L1349.2661,533.5933 Q1349.2661,534.2026 1349.0317,534.4683 Q1348.7974,534.7339 1348.4224,534.7339 Q1348.0786,534.7339 1347.8755,534.5308 Q1347.6724,534.3433 1347.563,533.8276 Q1347.5161,533.4683 1347.3286,533.2808 Q1347.0005,532.9058 1346.3911,532.687 Q1345.7817,532.4683 1345.1567,532.4683 Q1344.3911,532.4683 1343.7505,532.7964 Q1343.1255,533.1245 1342.6255,533.8745 Q1342.1411,534.6245 1342.1411,535.6558 L1342.1411,536.7495 Q1342.1411,537.9839 1343.0317,538.812 Q1343.9224,539.6245 1345.5161,539.6245 Q1346.4536,539.6245 1347.1099,539.3745 Q1347.5005,539.2183 1347.9224,538.7808 Q1348.188,538.5151 1348.3286,538.437 Q1348.4849,538.3589 1348.688,538.3589 Q1349.0161,538.3589 1349.2661,538.6245 Q1349.5317,538.8745 1349.5317,539.2183 Q1349.5317,539.562 1349.188,539.9683 Q1348.688,540.5464 1347.8911,540.8745 Q1346.813,541.3276 1345.5161,541.3276 Q1344.0005,541.3276 1342.7974,540.7026 Q1341.813,540.2026 1341.1255,539.1401 Q1340.438,538.062 1340.438,536.7808 L1340.438,535.6245 Q1340.438,534.2964 1341.0474,533.1558 Q1341.6724,531.9995 1342.7661,531.3901 Q1343.8599,530.7651 1345.0942,530.7651 Q1345.8286,530.7651 1346.4692,530.937 Q1347.1255,531.0933 1347.6724,531.4526 Z " fill="#000000"/><text fill="#000000" font-family="sans-serif" font-size="12" font-style="italic" lengthAdjust="spacing" textLength="46.0313" x="1379.3564" y="531.7158">&#171;model&#187;</text><text fill="#000000" font-family="sans-serif" font-size="14" lengthAdjust="spacing" textLength="73.9307" x="1365.4067" y="548.4277">EventModel</text><line style="stroke:#181818;stroke-width:0.5;" x1="1279" x2="1493.2441" y1="556.5039" y2="556.5039"/><line style="stroke:#181818;stroke-width:0.5;" x1="1279" x2="1493.2441" y1="564.5039" y2="564.5039"/><text fill="#000000" font-family="sans-serif" font-size="14" lengthAdjust="spacing" textLength="85.9824" x="1284" y="582.5791">+insert(event)</text><text fill="#000000" font-family="sans-serif" font-size="14" lengthAdjust="spacing" textLength="164.582" x="1284" y="599.7305">+findByCanonicalKey(key)</text><text fill="#000000" font-family="sans-serif" font-size="14" lengthAdjust="spacing" textLength="204.2441" x="1284" y="616.8818">+insertOccurrence(eventId, time)</text></g><!--class VenueModel--><g class="entity" data-qualified-name="Database Access.VenueModel" data-source-line="106" id="ent0027"><rect fill="#F1F1F1" height="75.0039" rx="2.5" ry="2.5" style="stroke:#181818;stroke-width:0.5;" width="110.6133" x="1330.5" y="404.6514"/><ellipse cx="1345.5" cy="425.5776" fill="#ADD1B2" rx="11" ry="11" style="stroke:#181818;stroke-width:1;"/><path d="M1348.2656,421.4526 Q1348.4219,421.2339 1348.6094,421.1245 Q1348.7969,421.0151 1349.0156,421.0151 Q1349.3906,421.0151 1349.625,421.2808 Q1349.8594,421.5308 1349.8594,422.1401 L1349.8594,423.5933 Q1349.8594,424.2026 1349.625,424.4683 Q1349.3906,424.7339 1349.0156,424.7339 Q1348.6719,424.7339 1348.4688,424.5308 Q1348.2656,424.3433 1348.1563,423.8276 Q1348.1094,423.4683 1347.9219,423.2808 Q1347.5938,422.9058 1346.9844,422.687 Q1346.375,422.4683 1345.75,422.4683 Q1344.9844,422.4683 1344.3438,422.7964 Q1343.7188,423.1245 1343.2188,423.8745 Q1342.7344,424.6245 1342.7344,425.6558 L1342.7344,426.7495 Q1342.7344,427.9839 1343.625,428.812 Q1344.5156,429.6245 1346.1094,429.6245 Q1347.0469,429.6245 1347.7031,429.3745 Q1348.0938,429.2183 1348.5156,428.7808 Q1348.7813,428.5151 1348.9219,428.437 Q1349.0781,428.3589 1349.2813,428.3589 Q1349.6094,428.3589 1349.8594,428.6245 Q1350.125,428.8745 1350.125,429.2183 Q1350.125,429.562 1349.7813,429.9683 Q1349.2813,430.5464 1348.4844,430.8745 Q1347.4063,431.3276 1346.1094,431.3276 Q1344.5938,431.3276 1343.3906,430.7026 Q1342.4063,430.2026 1341.7188,429.1401 Q1341.0313,428.062 1341.0313,426.7808 L1341.0313,425.6245 Q1341.0313,424.2964 1341.6406,423.1558 Q1342.2656,421.9995 1343.3594,421.3901 Q1344.4531,420.7651 1345.6875,420.7651 Q1346.4219,420.7651 1347.0625,420.937 Q1347.7188,421.0933 1348.2656,421.4526 Z " fill="#000000"/><text fill="#000000" font-family="sans-serif" font-size="12" font-style="italic" lengthAdjust="spacing" textLength="46.0313" x="1375.791" y="421.7158">&#171;model&#187;</text><text fill="#000000" font-family="sans-serif" font-size="14" lengthAdjust="spacing" textLength="78.6133" x="1359.5" y="438.4277">VenueModel</text><line style="stroke:#181818;stroke-width:0.5;" x1="1331.5" x2="1440.1133" y1="446.5039" y2="446.5039"/><line style="stroke:#181818;stroke-width:0.5;" x1="1331.5" x2="1440.1133" y1="454.5039" y2="454.5039"/><text fill="#000000" font-family="sans-serif" font-size="14" lengthAdjust="spacing" textLength="94.5547" x="1336.5" y="472.5791">+upsert(venue)</text></g><!--class ExpressApplication--><g class="entity" data-qualified-name="ExpressApplication" data-source-line="8" id="ent0002"><rect fill="#F1F1F1" height="109.3066" rx="2.5" ry="2.5" style="stroke:#181818;stroke-width:0.5;" width="158.6787" x="7" y="773.6514"/><ellipse cx="25.4277" cy="794.5776" fill="#ADD1B2" rx="11" ry="11" style="stroke:#181818;stroke-width:1;"/><path d="M28.1934,790.4526 Q28.3496,790.2339 28.5371,790.1245 Q28.7246,790.0151 28.9434,790.0151 Q29.3184,790.0151 29.5527,790.2808 Q29.7871,790.5308 29.7871,791.1401 L29.7871,792.5933 Q29.7871,793.2026 29.5527,793.4683 Q29.3184,793.7339 28.9434,793.7339 Q28.5996,793.7339 28.3965,793.5308 Q28.1934,793.3433 28.084,792.8276 Q28.0371,792.4683 27.8496,792.2808 Q27.5215,791.9058 26.9121,791.687 Q26.3027,791.4683 25.6777,791.4683 Q24.9121,791.4683 24.2715,791.7964 Q23.6465,792.1245 23.1465,792.8745 Q22.6621,793.6245 22.6621,794.6558 L22.6621,795.7495 Q22.6621,796.9839 23.5527,797.812 Q24.4434,798.6245 26.0371,798.6245 Q26.9746,798.6245 27.6309,798.3745 Q28.0215,798.2183 28.4434,797.7808 Q28.709,797.5151 28.8496,797.437 Q29.0059,797.3589 29.209,797.3589 Q29.5371,797.3589 29.7871,797.6245 Q30.0527,797.8745 30.0527,798.2183 Q30.0527,798.562 29.709,798.9683 Q29.209,799.5464 28.4121,799.8745 Q27.334,800.3276 26.0371,800.3276 Q24.5215,800.3276 23.3184,799.7026 Q22.334,799.2026 21.6465,798.1401 Q20.959,797.062 20.959,795.7808 L20.959,794.6245 Q20.959,793.2964 21.5684,792.1558 Q22.1934,790.9995 23.2871,790.3901 Q24.3809,789.7651 25.6152,789.7651 Q26.3496,789.7651 26.9902,789.937 Q27.6465,790.0933 28.1934,790.4526 Z " fill="#000000"/><text fill="#000000" font-family="sans-serif" font-size="12" font-style="italic" lengthAdjust="spacing" textLength="70.7227" x="64.3589" y="790.7158">&#171;application&#187;</text><text fill="#000000" font-family="sans-serif" font-size="14" lengthAdjust="spacing" textLength="119.0615" x="40.1895" y="807.4277">ExpressApplication</text><line style="stroke:#181818;stroke-width:0.5;" x1="8" x2="164.6787" y1="815.5039" y2="815.5039"/><line style="stroke:#181818;stroke-width:0.5;" x1="8" x2="164.6787" y1="823.5039" y2="823.5039"/><text fill="#000000" font-family="sans-serif" font-size="14" lengthAdjust="spacing" textLength="146.6787" x="13" y="841.5791">+configureMiddleware()</text><text fill="#000000" font-family="sans-serif" font-size="14" lengthAdjust="spacing" textLength="108.541" x="13" y="858.7305">+registerRoutes()</text><text fill="#000000" font-family="sans-serif" font-size="14" lengthAdjust="spacing" textLength="85.9619" x="13" y="875.8818">+startServer()</text></g><g class="entity" data-qualified-name="GMN56" data-source-line="143" id="ent0057"><path d="M550,44.1514 L550,101.9302 L859.2725,101.9302 L859.2725,54.1514 L849.2725,44.1514 L550,44.1514" fill="#FEFFDD" style="stroke:#181818;stroke-width:0.5;"/><path d="M849.2725,44.1514 L849.2725,54.1514 L859.2725,54.1514 L849.2725,44.1514" fill="#FEFFDD" style="stroke:#181818;stroke-width:1;"/><text fill="#000000" font-family="sans-serif" font-size="13" lengthAdjust="spacing" textLength="288.2725" x="556" y="62.2212">Users may modify only their own records and may</text><text fill="#000000" font-family="sans-serif" font-size="13" lengthAdjust="spacing" textLength="283.2769" x="556" y="78.1475">access only connections and message threads in</text><text fill="#000000" font-family="sans-serif" font-size="13" lengthAdjust="spacing" textLength="157.5234" x="556" y="94.0737">which they are participants.</text></g><!--reverse link ExpressApplication to AuthRoutes--><g class="link" data-entity-1="ent0002" data-entity-2="ent0004" data-link-type="composition" data-source-line="111" id="lnk28"><path codeLine="111" d="M87,761.4314 C87,711.7314 87,658.1514 87,658.1514 C87,658.1514 218.39,658.1514 298.19,658.1514" fill="none" id="ExpressApplication-backto-AuthRoutes" style="stroke:#181818;stroke-width:1;"/><polygon fill="#181818" points="87,773.4314,91,767.4314,87,761.4314,83,767.4314,87,773.4314" style="stroke:#181818;stroke-width:1;"/></g><!--reverse link ExpressApplication to UserRoutes--><g class="link" data-entity-1="ent0002" data-entity-2="ent0005" data-link-type="composition" data-source-line="112" id="lnk29"><path codeLine="112" d="M178.36,872.4014 C211.78,872.4014 231,872.4014 231,872.4014 C231,872.4014 231,972.8514 231,1045.0414" fill="none" id="ExpressApplication-backto-UserRoutes" style="stroke:#181818;stroke-width:1;"/><polygon fill="#181818" points="166.36,872.4014,172.36,876.4014,178.36,872.4014,172.36,868.4014,166.36,872.4014" style="stroke:#181818;stroke-width:1;"/></g><!--reverse link ExpressApplication to EventRoutes--><g class="link" data-entity-1="ent0002" data-entity-2="ent0006" data-link-type="composition" data-source-line="113" id="lnk30"><path codeLine="113" d="M178.33,784.4814 C221.47,784.4814 254,784.4814 254,784.4814 C254,784.4814 254,647.8514 254,568.8614" fill="none" id="ExpressApplication-backto-EventRoutes" style="stroke:#181818;stroke-width:1;"/><polygon fill="#181818" points="166.33,784.4814,172.33,788.4814,178.33,784.4814,172.33,780.4814,166.33,784.4814" style="stroke:#181818;stroke-width:1;"/></g><!--reverse link ExpressApplication to CityRoutes--><g class="link" data-entity-1="ent0002" data-entity-2="ent0007" data-link-type="composition" data-source-line="114" id="lnk31"><path codeLine="114" d="M178.12,851.9014 C220.37,851.9014 259.42,851.9014 298.24,851.9014" fill="none" id="ExpressApplication-backto-CityRoutes" style="stroke:#181818;stroke-width:1;"/><polygon fill="#181818" points="166.12,851.9014,172.12,855.9014,178.12,851.9014,172.12,847.9014,166.12,851.9014" style="stroke:#181818;stroke-width:1;"/></g><!--reverse link ExpressApplication to ConnectionRoutes--><g class="link" data-entity-1="ent0002" data-entity-2="ent0008" data-link-type="composition" data-source-line="115" id="lnk32"><path codeLine="115" d="M178.21,862.1514 C233.78,862.1514 286,862.1514 286,862.1514 C286,862.1514 286,916.8114 286,952.0414" fill="none" id="ExpressApplication-backto-ConnectionRoutes" style="stroke:#181818;stroke-width:1;"/><polygon fill="#181818" points="166.21,862.1514,172.21,866.1514,178.21,862.1514,172.21,858.1514,166.21,862.1514" style="stroke:#181818;stroke-width:1;"/></g><!--reverse link ExpressApplication to MessageRoutes--><g class="link" data-entity-1="ent0002" data-entity-2="ent0009" data-link-type="composition" data-source-line="116" id="lnk33"><path codeLine="116" d="M178.12,795.3214 C211.77,795.3214 238.99,795.3214 273.17,795.3214" fill="none" id="ExpressApplication-backto-MessageRoutes" style="stroke:#181818;stroke-width:1;"/><polygon fill="#181818" points="166.12,795.3214,172.12,799.3214,178.12,795.3214,172.12,791.3214,166.12,795.3214" style="stroke:#181818;stroke-width:1;"/></g><!--link AuthRoutes to AuthController--><g class="link" data-entity-1="ent0004" data-entity-2="ent0011" data-link-type="dependency" data-source-line="118" id="lnk34"><path codeLine="118" d="M417.67,628.9814 C451.85,628.9814 488,628.9814 488,628.9814 C488,628.9814 488,353.1514 488,353.1514 C488,353.1514 559.59,353.1514 621.87,353.1514" fill="none" id="AuthRoutes-to-AuthController" style="stroke:#181818;stroke-width:1;"/><polygon fill="#181818" points="627.87,353.1514,618.87,349.1514,622.87,353.1514,618.87,357.1514,627.87,353.1514" style="stroke:#181818;stroke-width:1;"/></g><!--link UserRoutes to AuthMiddleware--><g class="link" data-entity-1="ent0005" data-entity-2="ent0017" data-link-type="dependency" data-source-line="119" id="lnk35"><path codeLine="119" d="M490.48,1135.9014 C531.17,1135.9014 569.05,1135.9014 606.42,1135.9014" fill="none" id="UserRoutes-to-AuthMiddleware" style="stroke:#181818;stroke-width:1;"/><polygon fill="#181818" points="612.42,1135.9014,603.42,1131.9014,607.42,1135.9014,603.42,1139.9014,612.42,1135.9014" style="stroke:#181818;stroke-width:1;"/></g><!--link UserRoutes to UploadMiddleware--><g class="link" data-entity-1="ent0005" data-entity-2="ent0018" data-link-type="dependency" data-source-line="120" id="lnk36"><path codeLine="120" d="M490.18,1171.9014 C548.04,1171.9014 603,1171.9014 603,1171.9014 C603,1171.9014 603,1173.6714 603,1183.3814" fill="none" id="UserRoutes-to-UploadMiddleware" style="stroke:#181818;stroke-width:1;"/><polygon fill="#181818" points="603,1189.3814,607,1180.3814,603,1184.3814,599,1180.3814,603,1189.3814" style="stroke:#181818;stroke-width:1;"/></g><!--link UserRoutes to UsersController--><g class="link" data-entity-1="ent0005" data-entity-2="ent0012" data-link-type="dependency" data-source-line="121" id="lnk37"><path codeLine="121" d="M485,1044.9614 C485,965.9614 485,850.4014 485,850.4014 C485,850.4014 531.96,850.4014 585.86,850.4014" fill="none" id="UserRoutes-to-UsersController" style="stroke:#181818;stroke-width:1;"/><polygon fill="#181818" points="591.86,850.4014,582.86,846.4014,586.86,850.4014,582.86,854.4014,591.86,850.4014" style="stroke:#181818;stroke-width:1;"/></g><!--link EventRoutes to EventController--><g class="link" data-entity-1="ent0006" data-entity-2="ent0013" data-link-type="dependency" data-source-line="122" id="lnk38"><path codeLine="122" d="M481.59,484.8214 C528.58,484.8214 571,484.8214 571,484.8214 C571,484.8214 571,350.3414 571,269.9414" fill="none" id="EventRoutes-to-EventController" style="stroke:#181818;stroke-width:1;"/><polygon fill="#181818" points="571,263.9414,567,272.9414,571,268.9414,575,272.9414,571,263.9414" style="stroke:#181818;stroke-width:1;"/></g><!--link ConnectionRoutes to AuthMiddleware--><g class="link" data-entity-1="ent0008" data-entity-2="ent0017" data-link-type="dependency" data-source-line="123" id="lnk39"><path codeLine="123" d="M442.85,981.1514 C479.44,981.1514 514,981.1514 514,981.1514 C514,981.1514 514,1117.1514 514,1117.1514 C514,1117.1514 557.69,1117.1514 606.32,1117.1514" fill="none" id="ConnectionRoutes-to-AuthMiddleware" style="stroke:#181818;stroke-width:1;"/><polygon fill="#181818" points="612.32,1117.1514,603.32,1113.1514,607.32,1117.1514,603.32,1121.1514,612.32,1117.1514" style="stroke:#181818;stroke-width:1;"/></g><!--link ConnectionRoutes to ResourceAuthorization--><g class="link" data-entity-1="ent0008" data-entity-2="ent0019" data-link-type="dependency" data-source-line="124" id="lnk40"><path codeLine="124" d="M442.76,966.6514 C487.84,966.6514 537.85,966.6514 586.47,966.6514" fill="none" id="ConnectionRoutes-to-ResourceAuthorization" style="stroke:#181818;stroke-width:1;"/><polygon fill="#181818" points="592.47,966.6514,583.47,962.6514,587.47,966.6514,583.47,970.6514,592.47,966.6514" style="stroke:#181818;stroke-width:1;"/></g><!--link ConnectionRoutes to ConnectionController--><g class="link" data-entity-1="ent0008" data-entity-2="ent0014" data-link-type="dependency" data-source-line="125" id="lnk41"><path codeLine="125" d="M442.92,995.6514 C454.22,995.6514 462,995.6514 462,995.6514 C462,995.6514 462,654.3214 462,654.3214 C462,654.3214 533.53,654.3214 600.91,654.3214" fill="none" id="ConnectionRoutes-to-ConnectionController" style="stroke:#181818;stroke-width:1;"/><polygon fill="#181818" points="606.91,654.3214,597.91,650.3214,601.91,654.3214,597.91,658.3214,606.91,654.3214" style="stroke:#181818;stroke-width:1;"/></g><!--link MessageRoutes to AuthMiddleware--><g class="link" data-entity-1="ent0009" data-entity-2="ent0017" data-link-type="dependency" data-source-line="126" id="lnk42"><path codeLine="126" d="M442.98,786.8214 C484.65,786.8214 526,786.8214 526,786.8214 C526,786.8214 526,1098.4014 526,1098.4014 C526,1098.4014 562.73,1098.4014 606.37,1098.4014" fill="none" id="MessageRoutes-to-AuthMiddleware" style="stroke:#181818;stroke-width:1;"/><polygon fill="#181818" points="612.37,1098.4014,603.37,1094.4014,607.37,1098.4014,603.37,1102.4014,612.37,1098.4014" style="stroke:#181818;stroke-width:1;"/></g><!--link MessageRoutes to ResourceAuthorization--><g class="link" data-entity-1="ent0009" data-entity-2="ent0019" data-link-type="dependency" data-source-line="127" id="lnk43"><path codeLine="127" d="M430,806.2914 C430,854.7514 430,946.6514 430,946.6514 C430,946.6514 510.55,946.6514 586.45,946.6514" fill="none" id="MessageRoutes-to-ResourceAuthorization" style="stroke:#181818;stroke-width:1;"/><polygon fill="#181818" points="592.45,946.6514,583.45,942.6514,587.45,946.6514,583.45,950.6514,592.45,946.6514" style="stroke:#181818;stroke-width:1;"/></g><!--link MessageRoutes to MessageController--><g class="link" data-entity-1="ent0009" data-entity-2="ent0015" data-link-type="dependency" data-source-line="128" id="lnk44"><path codeLine="128" d="M442.6,767.4814 C473.94,767.4814 502,767.4814 502,767.4814 C502,767.4814 502,509.9814 502,509.9814 C502,509.9814 560.29,509.9814 616.43,509.9814" fill="none" id="MessageRoutes-to-MessageController" style="stroke:#181818;stroke-width:1;"/><polygon fill="#181818" points="622.43,509.9814,613.43,505.9814,617.43,509.9814,613.43,513.9814,622.43,509.9814" style="stroke:#181818;stroke-width:1;"/></g><!--link AuthController to DatabasePool--><g class="link" data-entity-1="ent0011" data-entity-2="ent0025" data-link-type="dependency" data-source-line="130" id="lnk45"><path codeLine="130" d="M781.32,351.6514 C998.45,351.6514 1601,351.6514 1601,351.6514 C1601,351.6514 1601,373.6914 1601,398.5614" fill="none" id="AuthController-to-DatabasePool" style="stroke:#181818;stroke-width:1;"/><polygon fill="#181818" points="1601,404.5614,1605,395.5614,1601,399.5614,1597,395.5614,1601,404.5614" style="stroke:#181818;stroke-width:1;"/></g><!--link UsersController to DatabasePool--><g class="link" data-entity-1="ent0012" data-entity-2="ent0025" data-link-type="dependency" data-source-line="131" id="lnk46"><path codeLine="131" d="M817.27,822.4014 C1069.85,822.4014 1659,822.4014 1659,822.4014 C1659,822.4014 1659,581.5814 1659,485.6514" fill="none" id="UsersController-to-DatabasePool" style="stroke:#181818;stroke-width:1;"/><polygon fill="#181818" points="1659,479.6514,1655,488.6514,1659,484.6514,1663,488.6514,1659,479.6514" style="stroke:#181818;stroke-width:1;"/></g><!--link EventController to DatabasePool--><g class="link" data-entity-1="ent0013" data-entity-2="ent0025" data-link-type="dependency" data-source-line="132" id="lnk47"><path codeLine="132" d="M856.19,209.1514 C1122.7,209.1514 1647,209.1514 1647,209.1514 C1647,209.1514 1647,332.5114 1647,398.4614" fill="none" id="EventController-to-DatabasePool" style="stroke:#181818;stroke-width:1;"/><polygon fill="#181818" points="1647,404.4614,1651,395.4614,1647,399.4614,1643,395.4614,1647,404.4614" style="stroke:#181818;stroke-width:1;"/></g><!--link ConnectionController to ConnectionService--><g class="link" data-entity-1="ent0014" data-entity-2="ent0022" data-link-type="dependency" data-source-line="133" id="lnk48"><path codeLine="133" d="M802.09,658.9014 C869.47,658.9014 947,658.9014 947,658.9014 C947,658.9014 947,660.3114 947,670.3914" fill="none" id="ConnectionController-to-ConnectionService" style="stroke:#181818;stroke-width:1;"/><polygon fill="#181818" points="947,676.3914,951,667.3914,947,671.3914,943,667.3914,947,676.3914" style="stroke:#181818;stroke-width:1;"/></g><!--link MessageController to MessageService--><g class="link" data-entity-1="ent0015" data-entity-2="ent0023" data-link-type="dependency" data-source-line="134" id="lnk49"><path codeLine="134" d="M705,535.2914 C705,548.2614 705,558.9014 705,558.9014 C705,558.9014 862.61,558.9014 970.3,558.9014" fill="none" id="MessageController-to-MessageService" style="stroke:#181818;stroke-width:1;"/><polygon fill="#181818" points="976.3,558.9014,967.3,554.9014,971.3,558.9014,967.3,562.9014,976.3,558.9014" style="stroke:#181818;stroke-width:1;"/></g><!--link ConnectionService to DatabasePool--><g class="link" data-entity-1="ent0022" data-entity-2="ent0025" data-link-type="dependency" data-source-line="135" id="lnk50"><path codeLine="135" d="M1218.09,731.1514 C1382.63,731.1514 1624,731.1514 1624,731.1514 C1624,731.1514 1624,564.2714 1624,485.9314" fill="none" id="ConnectionService-to-DatabasePool" style="stroke:#181818;stroke-width:1;"/><polygon fill="#181818" points="1624,479.9314,1620,488.9314,1624,484.9314,1628,488.9314,1624,479.9314" style="stroke:#181818;stroke-width:1;"/></g><!--link MessageService to DatabasePool--><g class="link" data-entity-1="ent0023" data-entity-2="ent0025" data-link-type="dependency" data-source-line="136" id="lnk51"><path codeLine="136" d="M1160.66,632.4014 C1310.15,632.4014 1589,632.4014 1589,632.4014 C1589,632.4014 1589,541.1814 1589,485.7414" fill="none" id="MessageService-to-DatabasePool" style="stroke:#181818;stroke-width:1;"/><polygon fill="#181818" points="1589,479.7414,1585,488.7414,1589,484.7414,1593,488.7414,1589,479.7414" style="stroke:#181818;stroke-width:1;"/></g><!--link EventSyncService to EventModel--><g class="link" data-entity-1="ent0021" data-entity-2="ent0026" data-link-type="dependency" data-source-line="137" id="lnk52"><path codeLine="137" d="M1163.33,496.6514 C1229.13,496.6514 1305,496.6514 1305,496.6514 C1305,496.6514 1305,498.2714 1305,508.5714" fill="none" id="EventSyncService-to-EventModel" style="stroke:#181818;stroke-width:1;"/><polygon fill="#181818" points="1305,514.5714,1309,505.5714,1305,509.5714,1301,505.5714,1305,514.5714" style="stroke:#181818;stroke-width:1;"/></g><!--link EventSyncService to VenueModel--><g class="link" data-entity-1="ent0021" data-entity-2="ent0027" data-link-type="dependency" data-source-line="138" id="lnk53"><path codeLine="138" d="M1163.33,459.1514 C1217.78,459.1514 1278.28,459.1514 1324.36,459.1514" fill="none" id="EventSyncService-to-VenueModel" style="stroke:#181818;stroke-width:1;"/><polygon fill="#181818" points="1330.36,459.1514,1321.36,455.1514,1325.36,459.1514,1321.36,463.1514,1330.36,459.1514" style="stroke:#181818;stroke-width:1;"/></g><!--link EventModel to DatabasePool--><g class="link" data-entity-1="ent0026" data-entity-2="ent0025" data-link-type="dependency" data-source-line="139" id="lnk54"><path codeLine="139" d="M1468,514.5814 C1468,485.0914 1468,454.6514 1468,454.6514 C1468,454.6514 1506.53,454.6514 1547.94,454.6514" fill="none" id="EventModel-to-DatabasePool" style="stroke:#181818;stroke-width:1;"/><polygon fill="#181818" points="1553.94,454.6514,1544.94,450.6514,1548.94,454.6514,1544.94,458.6514,1553.94,454.6514" style="stroke:#181818;stroke-width:1;"/></g><!--link VenueModel to DatabasePool--><g class="link" data-entity-1="ent0027" data-entity-2="ent0025" data-link-type="dependency" data-source-line="140" id="lnk55"><path codeLine="140" d="M1441.68,429.6514 C1475.14,429.6514 1512,429.6514 1547.7,429.6514" fill="none" id="VenueModel-to-DatabasePool" style="stroke:#181818;stroke-width:1;"/><polygon fill="#181818" points="1553.7,429.6514,1544.7,425.6514,1548.7,429.6514,1544.7,433.6514,1553.7,429.6514" style="stroke:#181818;stroke-width:1;"/></g><!--link ResourceAuthorization to GMN56--><g class="link" data-entity-1="ent0019" data-entity-2="ent0057" data-link-type="association" data-source-line="143" id="lnk58"><path d="M592.06,941.1514 C562.15,941.1514 538,941.1514 538,941.1514 C538,941.1514 538,73.1514 538,73.1514 C538,73.1514 542.48,73.1514 549.97,73.1514" fill="none" id="ResourceAuthorization-GMN56" style="stroke:#181818;stroke-width:1;stroke-dasharray:7,7;"/></g><?plantuml-src bLTDSzis4BtZLs1oebkhxjdDQ4Pnr5RJQgonr5ux4BWICQO01WIbC9tyzon0KWG9q55yaOLzs7txXLqPONAWopD8isO6w0V6Nq6cT54KkU3C22NfjjgNTMdWH6TqQ_2CuuUkkAaq45A-2bampKwKvwmi5yPeiQyChBYIM_45wAyUfCnOgYv27kc1vILuabn8C7K1L6cJAPB3mL2Zg1R7pD1KQE2M2o7E25r-BZIWCO_b-_Ui_pQVq_y9nR-VaSL1797fMgHf3XUc8RbhH1gE0jtIBmhfbjrfQPWsMz1dq7ZqbP02GyAEGDyrk7UjveR8eZ9PSuu4MbPKsmDzvU3KRfwtE_hGcHoVv-eePEGG5RdJhvx9VygEydTC_h549IVmr2vsJt_QeuUgI37RqvBsOwFX01eaXxB7Vbp-lTmjVN0AEVZQdE77ejfZEluJQU21AxVRNOW7KRj4MmL5pgI4T3uFEGwW3uyY3U0-hoTXwX-aDRYkKAyhqmablz6XxURQ6W5ONpVSyOiHZHcjyXnqf29x8UhZroz39xfQjFMKQFXqJz7iNIztDVc64EcD9ECgBM_YSGHZmHkj3YA7cB4M4HCr5VXzgLV9CM1JmH4rGTdUwf83HsrrSVzTQGVgCV5Qrd1IPsXwnYldDwx5YtA2kLTW8nTM4ba2KarTCkE-VAeGqHkPI5yFADy8SDi9FqoqlHTbME8qQ-M1PR-V-l4GjbClGqAdwvSX3vmNub3l58xFgw5xAk6pYJH7aIkMtgIsSj2sELOdtuqfxIzGgafpiDIL5b-w-TYRc0WbQo-0NsVF5-acOOZgaxh1aIcuA1XMSmpP9c2NQM1f4Wk_7RY2ZwUhA_fjBNahHYVAvhyXyOn9zCm24tTH7Dez859aFUj0wKHOSFTGEdrfIZsn1GLwbTeKS13dvd-mJ5UfvppFWB-kArEnV77K02SO1eTZB8mNmsIo7sxbEUYpQqy49hjkYANX8pDipqgW2ux966MZ4swKof5Csc6FgFJ2wY6PnfQ59dUFr7x6tzErmhVN5gVz7AeG4lqrYGkjvyL1oFH3_SIaafZb_2-earUexyRtdZclj7lnapOvzzI84uHX_XTa1M_mg0h7usnXNj0YE-XFivct4KuX-WLk2k4jI5EGVbUPH8pMaIdSOFyWnDjePxFvQ9qWtlBPIVjdR2mTFtE1VBWZ47yljFBHm2N1WXMX4CL4NyGuD3OloN15YrWD0N6J8IwOUKq6l1beKNxhaV5g5G36Yqe0Y2u5G-_RHuU4CzbZtO72DpKmENhBufpzf_vQ0Aupu_A-Sudtc0IwlGOFP4Gg_DcxLyQe4rM7YRovaDCJgoc-3pZcgP9vJKq6GbDraRGP4IN5EMHHXBddiq7nVlTfv4qayBQTXYN57twNJF3CggkftGQAVfoMln3xSzoI9Dy0?></g></svg>