<?plantuml 1.2026.2?><svg xmlns="http://www.w3.org/2000/svg" xmlns:xlink="http://www.w3.org/1999/xlink" contentStyleType="text/css" data-diagram-type="CLASS" height="770px" preserveAspectRatio="none" style="width:979px;height:770px;background:#FFFFFF;" version="1.1" viewBox="0 0 979 770" width="979px" zoomAndPan="magnify"><title>EventMate External Event Data Subsystem - Static Structure</title><defs/><g><g class="title" data-source-line="1"><text fill="#000000" font-family="sans-serif" font-size="14" font-weight="bold" lengthAdjust="spacing" textLength="400.6816" x="282.4121" y="24.0752">EventMate External Event Data Subsystem - Static Structure</text></g><!--class EventDataProvider--><g class="entity" data-qualified-name="EventDataProvider" data-source-line="8" id="ent0002"><rect fill="#F1F1F1" height="75.0039" rx="2.5" ry="2.5" style="stroke:#181818;stroke-width:0.5;" width="249.7061" x="392.5" y="214.6514"/><ellipse cx="454.3516" cy="235.5776" fill="#B4A7E5" rx="11" ry="11" style="stroke:#181818;stroke-width:1;"/><path d="M455.3047,232.2183 L455.3047,238.8745 L457.0234,238.8745 Q457.6328,238.8745 457.8984,239.1089 Q458.1641,239.3433 458.1641,239.7339 Q458.1641,240.1089 457.8984,240.3433 Q457.6328,240.5776 457.0234,240.5776 L451.8828,240.5776 Q451.2734,240.5776 451.0078,240.3433 Q450.7422,240.1089 450.7422,239.7183 Q450.7422,239.3433 451.0078,239.1089 Q451.2734,238.8745 451.8828,238.8745 L453.6016,238.8745 L453.6016,232.2183 L451.8828,232.2183 Q451.2734,232.2183 451.0078,231.9839 Q450.7422,231.7495 450.7422,231.3589 Q450.7422,230.9839 451.0078,230.7495 Q451.2734,230.5151 451.8828,230.5151 L457.0234,230.5151 Q457.6328,230.5151 457.8984,230.7495 Q458.1641,230.9839 458.1641,231.3589 Q458.1641,231.7495 457.8984,231.9839 Q457.6328,232.2183 457.0234,232.2183 L455.3047,232.2183 Z " fill="#000000"/><text fill="#000000" font-family="sans-serif" font-size="12" font-style="italic" lengthAdjust="spacing" textLength="102.7207" x="482.2427" y="231.7158">&#171;provider contract&#187;</text><text fill="#000000" font-family="sans-serif" font-size="14" font-style="italic" lengthAdjust="spacing" textLength="117.5029" x="474.8516" y="248.4277">EventDataProvider</text><line style="stroke:#181818;stroke-width:0.5;" x1="393.5" x2="641.2061" y1="256.5039" y2="256.5039"/><line style="stroke:#181818;stroke-width:0.5;" x1="393.5" x2="641.2061" y1="264.5039" y2="264.5039"/><text fill="#000000" font-family="sans-serif" font-size="14" lengthAdjust="spacing" textLength="237.7061" x="398.5" y="282.5791">+retrieveEvents(classification): Event[]</text></g><!--class TicketmasterServices--><g class="entity" data-qualified-name="TicketmasterServices" data-source-line="12" id="ent0003"><rect fill="#F1F1F1" height="75.0039" rx="2.5" ry="2.5" style="stroke:#181818;stroke-width:0.5;" width="313.499" x="7" y="265.6514"/><ellipse cx="92.5962" cy="286.5776" fill="#ADD1B2" rx="11" ry="11" style="stroke:#181818;stroke-width:1;"/><path d="M95.3618,282.4526 Q95.5181,282.2339 95.7056,282.1245 Q95.8931,282.0151 96.1118,282.0151 Q96.4868,282.0151 96.7212,282.2808 Q96.9556,282.5308 96.9556,283.1401 L96.9556,284.5933 Q96.9556,285.2026 96.7212,285.4683 Q96.4868,285.7339 96.1118,285.7339 Q95.7681,285.7339 95.5649,285.5308 Q95.3618,285.3433 95.2524,284.8276 Q95.2056,284.4683 95.0181,284.2808 Q94.6899,283.9058 94.0806,283.687 Q93.4712,283.4683 92.8462,283.4683 Q92.0806,283.4683 91.4399,283.7964 Q90.8149,284.1245 90.3149,284.8745 Q89.8306,285.6245 89.8306,286.6558 L89.8306,287.7495 Q89.8306,288.9839 90.7212,289.812 Q91.6118,290.6245 93.2056,290.6245 Q94.1431,290.6245 94.7993,290.3745 Q95.1899,290.2183 95.6118,289.7808 Q95.8774,289.5151 96.0181,289.437 Q96.1743,289.3589 96.3774,289.3589 Q96.7056,289.3589 96.9556,289.6245 Q97.2212,289.8745 97.2212,290.2183 Q97.2212,290.562 96.8774,290.9683 Q96.3774,291.5464 95.5806,291.8745 Q94.5024,292.3276 93.2056,292.3276 Q91.6899,292.3276 90.4868,291.7026 Q89.5024,291.2026 88.8149,290.1401 Q88.1274,289.062 88.1274,287.7808 L88.1274,286.6245 Q88.1274,285.2964 88.7368,284.1558 Q89.3618,282.9995 90.4556,282.3901 Q91.5493,281.7651 92.7837,281.7651 Q93.5181,281.7651 94.1587,281.937 Q94.8149,282.0933 95.3618,282.4526 Z " fill="#000000"/><text fill="#000000" font-family="sans-serif" font-size="12" font-style="italic" lengthAdjust="spacing" textLength="122.748" x="118.6255" y="282.7158">&#171;external API adapter&#187;</text><text fill="#000000" font-family="sans-serif" font-size="14" lengthAdjust="spacing" textLength="133.8066" x="113.0962" y="299.4277">TicketmasterServices</text><line style="stroke:#181818;stroke-width:0.5;" x1="8" x2="319.499" y1="307.5039" y2="307.5039"/><line style="stroke:#181818;stroke-width:0.5;" x1="8" x2="319.499" y1="315.5039" y2="315.5039"/><text fill="#000000" font-family="sans-serif" font-size="14" lengthAdjust="spacing" textLength="301.499" x="13" y="333.5791">+fetchTicketmasterEvents(classification): Event[]</text></g><!--class MockEventProvider--><g class="entity" data-qualified-name="MockEventProvider" data-source-line="16" id="ent0004"><rect fill="#F1F1F1" height="92.1553" rx="2.5" ry="2.5" style="stroke:#181818;stroke-width:0.5;" width="249.7061" x="38.5" y="45.1514"/><ellipse cx="86.0532" cy="66.0776" fill="#ADD1B2" rx="11" ry="11" style="stroke:#181818;stroke-width:1;"/><path d="M88.8188,61.9526 Q88.9751,61.7339 89.1626,61.6245 Q89.3501,61.5151 89.5688,61.5151 Q89.9438,61.5151 90.1782,61.7808 Q90.4126,62.0308 90.4126,62.6401 L90.4126,64.0933 Q90.4126,64.7026 90.1782,64.9683 Q89.9438,65.2339 89.5688,65.2339 Q89.2251,65.2339 89.022,65.0308 Q88.8188,64.8433 88.7095,64.3276 Q88.6626,63.9683 88.4751,63.7808 Q88.147,63.4058 87.5376,63.187 Q86.9282,62.9683 86.3032,62.9683 Q85.5376,62.9683 84.897,63.2964 Q84.272,63.6245 83.772,64.3745 Q83.2876,65.1245 83.2876,66.1558 L83.2876,67.2495 Q83.2876,68.4839 84.1782,69.312 Q85.0688,70.1245 86.6626,70.1245 Q87.6001,70.1245 88.2563,69.8745 Q88.647,69.7183 89.0688,69.2808 Q89.3345,69.0151 89.4751,68.937 Q89.6313,68.8589 89.8345,68.8589 Q90.1626,68.8589 90.4126,69.1245 Q90.6782,69.3745 90.6782,69.7183 Q90.6782,70.062 90.3345,70.4683 Q89.8345,71.0464 89.0376,71.3745 Q87.9595,71.8276 86.6626,71.8276 Q85.147,71.8276 83.9438,71.2026 Q82.9595,70.7026 82.272,69.6401 Q81.5845,68.562 81.5845,67.2808 L81.5845,66.1245 Q81.5845,64.7964 82.1938,63.6558 Q82.8188,62.4995 83.9126,61.8901 Q85.0063,61.2651 86.2407,61.2651 Q86.9751,61.2651 87.6157,61.437 Q88.272,61.5933 88.8188,61.9526 Z " fill="#000000"/><text fill="#000000" font-family="sans-serif" font-size="12" font-style="italic" lengthAdjust="spacing" textLength="150.0996" x="104.5532" y="62.2158">&#171;fallback provider; planned&#187;</text><text fill="#000000" font-family="sans-serif" font-size="14" lengthAdjust="spacing" textLength="121.3789" x="118.9136" y="78.9277">MockEventProvider</text><line style="stroke:#181818;stroke-width:0.5;" x1="39.5" x2="287.2061" y1="87.0039" y2="87.0039"/><line style="stroke:#181818;stroke-width:0.5;" x1="39.5" x2="287.2061" y1="95.0039" y2="95.0039"/><text fill="#000000" font-family="sans-serif" font-size="14" lengthAdjust="spacing" textLength="237.7061" x="44.5" y="113.0791">+retrieveEvents(classification): Event[]</text><text fill="#000000" font-family="sans-serif" font-size="14" lengthAdjust="spacing" textLength="171.5752" x="44.5" y="130.2305">+loadMockEvents(): Event[]</text></g><!--class EventSyncService--><g class="entity" data-qualified-name="EventSyncService" data-source-line="21" id="ent0005"><rect fill="#F1F1F1" height="92.1553" rx="2.5" ry="2.5" style="stroke:#181818;stroke-width:0.5;" width="239.9717" x="43.5" y="426.1514"/><ellipse cx="102.4326" cy="447.0776" fill="#ADD1B2" rx="11" ry="11" style="stroke:#181818;stroke-width:1;"/><path d="M105.1982,442.9526 Q105.3545,442.7339 105.542,442.6245 Q105.7295,442.5151 105.9482,442.5151 Q106.3232,442.5151 106.5576,442.7808 Q106.792,443.0308 106.792,443.6401 L106.792,445.0933 Q106.792,445.7026 106.5576,445.9683 Q106.3232,446.2339 105.9482,446.2339 Q105.6045,446.2339 105.4014,446.0308 Q105.1982,445.8433 105.0889,445.3276 Q105.042,444.9683 104.8545,444.7808 Q104.5264,444.4058 103.917,444.187 Q103.3076,443.9683 102.6826,443.9683 Q101.917,443.9683 101.2764,444.2964 Q100.6514,444.6245 100.1514,445.3745 Q99.667,446.1245 99.667,447.1558 L99.667,448.2495 Q99.667,449.4839 100.5576,450.312 Q101.4482,451.1245 103.042,451.1245 Q103.9795,451.1245 104.6357,450.8745 Q105.0264,450.7183 105.4482,450.2808 Q105.7139,450.0151 105.8545,449.937 Q106.0107,449.8589 106.2139,449.8589 Q106.542,449.8589 106.792,450.1245 Q107.0576,450.3745 107.0576,450.7183 Q107.0576,451.062 106.7139,451.4683 Q106.2139,452.0464 105.417,452.3745 Q104.3389,452.8276 103.042,452.8276 Q101.5264,452.8276 100.3232,452.2026 Q99.3389,451.7026 98.6514,450.6401 Q97.9639,449.562 97.9639,448.2808 L97.9639,447.1245 Q97.9639,445.7964 98.5732,444.6558 Q99.1982,443.4995 100.292,442.8901 Q101.3857,442.2651 102.6201,442.2651 Q103.3545,442.2651 103.9951,442.437 Q104.6514,442.5933 105.1982,442.9526 Z " fill="#000000"/><text fill="#000000" font-family="sans-serif" font-size="12" font-style="italic" lengthAdjust="spacing" textLength="51.3574" x="154.0571" y="443.2158">&#171;service&#187;</text><text fill="#000000" font-family="sans-serif" font-size="14" lengthAdjust="spacing" textLength="113.6064" x="122.9326" y="459.9277">EventSyncService</text><line style="stroke:#181818;stroke-width:0.5;" x1="44.5" x2="282.4717" y1="468.0039" y2="468.0039"/><line style="stroke:#181818;stroke-width:0.5;" x1="44.5" x2="282.4717" y1="476.0039" y2="476.0039"/><text fill="#000000" font-family="sans-serif" font-size="14" lengthAdjust="spacing" textLength="177.0303" x="49.5" y="494.0791">+handleSync(classifications)</text><text fill="#000000" font-family="sans-serif" font-size="14" lengthAdjust="spacing" textLength="227.9717" x="49.5" y="511.2305">-selectProvider(): EventDataProvider</text></g><!--class EventNormalizer--><g class="entity" data-qualified-name="EventNormalizer" data-source-line="26" id="ent0006"><rect fill="#F1F1F1" height="75.0039" rx="2.5" ry="2.5" style="stroke:#181818;stroke-width:0.5;" width="275.4023" x="380" y="324.6514"/><ellipse cx="461.7134" cy="345.5776" fill="#ADD1B2" rx="11" ry="11" style="stroke:#181818;stroke-width:1;"/><path d="M464.479,341.4526 Q464.6353,341.2339 464.8228,341.1245 Q465.0103,341.0151 465.229,341.0151 Q465.604,341.0151 465.8384,341.2808 Q466.0728,341.5308 466.0728,342.1401 L466.0728,343.5933 Q466.0728,344.2026 465.8384,344.4683 Q465.604,344.7339 465.229,344.7339 Q464.8853,344.7339 464.6821,344.5308 Q464.479,344.3433 464.3696,343.8276 Q464.3228,343.4683 464.1353,343.2808 Q463.8071,342.9058 463.1978,342.687 Q462.5884,342.4683 461.9634,342.4683 Q461.1978,342.4683 460.5571,342.7964 Q459.9321,343.1245 459.4321,343.8745 Q458.9478,344.6245 458.9478,345.6558 L458.9478,346.7495 Q458.9478,347.9839 459.8384,348.812 Q460.729,349.6245 462.3228,349.6245 Q463.2603,349.6245 463.9165,349.3745 Q464.3071,349.2183 464.729,348.7808 Q464.9946,348.5151 465.1353,348.437 Q465.2915,348.3589 465.4946,348.3589 Q465.8228,348.3589 466.0728,348.6245 Q466.3384,348.8745 466.3384,349.2183 Q466.3384,349.562 465.9946,349.9683 Q465.4946,350.5464 464.6978,350.8745 Q463.6196,351.3276 462.3228,351.3276 Q460.8071,351.3276 459.604,350.7026 Q458.6196,350.2026 457.9321,349.1401 Q457.2446,348.062 457.2446,346.7808 L457.2446,345.6245 Q457.2446,344.2964 457.854,343.1558 Q458.479,341.9995 459.5728,341.3901 Q460.6665,340.7651 461.9009,340.7651 Q462.6353,340.7651 463.2759,340.937 Q463.9321,341.0933 464.479,341.4526 Z " fill="#000000"/><text fill="#000000" font-family="sans-serif" font-size="12" font-style="italic" lengthAdjust="spacing" textLength="69.3633" x="499.2695" y="341.7158">&#171;normalizer&#187;</text><text fill="#000000" font-family="sans-serif" font-size="14" lengthAdjust="spacing" textLength="103.4756" x="482.2134" y="358.4277">EventNormalizer</text><line style="stroke:#181818;stroke-width:0.5;" x1="381" x2="654.4023" y1="366.5039" y2="366.5039"/><line style="stroke:#181818;stroke-width:0.5;" x1="381" x2="654.4023" y1="374.5039" y2="374.5039"/><text fill="#000000" font-family="sans-serif" font-size="14" lengthAdjust="spacing" textLength="263.4023" x="386" y="392.5791">+normalizeEvent(rawEvent, canonicalKey)</text></g><!--class CanonicalKeyGenerator--><g class="entity" data-qualified-name="CanonicalKeyGenerator" data-source-line="30" id="ent0007"><rect fill="#F1F1F1" height="75.0039" rx="2.5" ry="2.5" style="stroke:#181818;stroke-width:0.5;" width="273.8643" x="380.5" y="434.6514"/><ellipse cx="438.4722" cy="455.5776" fill="#ADD1B2" rx="11" ry="11" style="stroke:#181818;stroke-width:1;"/><path d="M441.2378,451.4526 Q441.394,451.2339 441.5815,451.1245 Q441.769,451.0151 441.9878,451.0151 Q442.3628,451.0151 442.5972,451.2808 Q442.8315,451.5308 442.8315,452.1401 L442.8315,453.5933 Q442.8315,454.2026 442.5972,454.4683 Q442.3628,454.7339 441.9878,454.7339 Q441.644,454.7339 441.4409,454.5308 Q441.2378,454.3433 441.1284,453.8276 Q441.0815,453.4683 440.894,453.2808 Q440.5659,452.9058 439.9565,452.687 Q439.3472,452.4683 438.7222,452.4683 Q437.9565,452.4683 437.3159,452.7964 Q436.6909,453.1245 436.1909,453.8745 Q435.7065,454.6245 435.7065,455.6558 L435.7065,456.7495 Q435.7065,457.9839 436.5972,458.812 Q437.4878,459.6245 439.0815,459.6245 Q440.019,459.6245 440.6753,459.3745 Q441.0659,459.2183 441.4878,458.7808 Q441.7534,458.5151 441.894,458.437 Q442.0503,458.3589 442.2534,458.3589 Q442.5815,458.3589 442.8315,458.6245 Q443.0972,458.8745 443.0972,459.2183 Q443.0972,459.562 442.7534,459.9683 Q442.2534,460.5464 441.4565,460.8745 Q440.3784,461.3276 439.0815,461.3276 Q437.5659,461.3276 436.3628,460.7026 Q435.3784,460.2026 434.6909,459.1401 Q434.0034,458.062 434.0034,456.7808 L434.0034,455.6245 Q434.0034,454.2964 434.6128,453.1558 Q435.2378,451.9995 436.3315,451.3901 Q437.4253,450.7651 438.6597,450.7651 Q439.394,450.7651 440.0347,450.937 Q440.6909,451.0933 441.2378,451.4526 Z " fill="#000000"/><text fill="#000000" font-family="sans-serif" font-size="12" font-style="italic" lengthAdjust="spacing" textLength="40.6875" x="513.3384" y="451.7158">&#171;utility&#187;</text><text fill="#000000" font-family="sans-serif" font-size="14" lengthAdjust="spacing" textLength="149.4199" x="458.9722" y="468.4277">CanonicalKeyGenerator</text><line style="stroke:#181818;stroke-width:0.5;" x1="381.5" x2="653.3643" y1="476.5039" y2="476.5039"/><line style="stroke:#181818;stroke-width:0.5;" x1="381.5" x2="653.3643" y1="484.5039" y2="484.5039"/><text fill="#000000" font-family="sans-serif" font-size="14" lengthAdjust="spacing" textLength="261.8643" x="386.5" y="502.5791">+generateCanonicalKey(rawEvent): String</text></g><!--class DescriptionGenerator--><g class="entity" data-qualified-name="DescriptionGenerator" data-source-line="34" id="ent0008"><rect fill="#F1F1F1" height="75.0039" rx="2.5" ry="2.5" style="stroke:#181818;stroke-width:0.5;" width="257.5059" x="715" y="324.6514"/><ellipse cx="772.9722" cy="345.5776" fill="#ADD1B2" rx="11" ry="11" style="stroke:#181818;stroke-width:1;"/><path d="M775.7378,341.4526 Q775.894,341.2339 776.0815,341.1245 Q776.269,341.0151 776.4878,341.0151 Q776.8628,341.0151 777.0972,341.2808 Q777.3315,341.5308 777.3315,342.1401 L777.3315,343.5933 Q777.3315,344.2026 777.0972,344.4683 Q776.8628,344.7339 776.4878,344.7339 Q776.144,344.7339 775.9409,344.5308 Q775.7378,344.3433 775.6284,343.8276 Q775.5815,343.4683 775.394,343.2808 Q775.0659,342.9058 774.4565,342.687 Q773.8472,342.4683 773.2222,342.4683 Q772.4565,342.4683 771.8159,342.7964 Q771.1909,343.1245 770.6909,343.8745 Q770.2065,344.6245 770.2065,345.6558 L770.2065,346.7495 Q770.2065,347.9839 771.0972,348.812 Q771.9878,349.6245 773.5815,349.6245 Q774.519,349.6245 775.1753,349.3745 Q775.5659,349.2183 775.9878,348.7808 Q776.2534,348.5151 776.394,348.437 Q776.5503,348.3589 776.7534,348.3589 Q777.0815,348.3589 777.3315,348.6245 Q777.5972,348.8745 777.5972,349.2183 Q777.5972,349.562 777.2534,349.9683 Q776.7534,350.5464 775.9565,350.8745 Q774.8784,351.3276 773.5815,351.3276 Q772.0659,351.3276 770.8628,350.7026 Q769.8784,350.2026 769.1909,349.1401 Q768.5034,348.062 768.5034,346.7808 L768.5034,345.6245 Q768.5034,344.2964 769.1128,343.1558 Q769.7378,341.9995 770.8315,341.3901 Q771.9253,340.7651 773.1597,340.7651 Q773.894,340.7651 774.5347,340.937 Q775.1909,341.0933 775.7378,341.4526 Z " fill="#000000"/><text fill="#000000" font-family="sans-serif" font-size="12" font-style="italic" lengthAdjust="spacing" textLength="40.6875" x="839.6592" y="341.7158">&#171;utility&#187;</text><text fill="#000000" font-family="sans-serif" font-size="14" lengthAdjust="spacing" textLength="133.0615" x="793.4722" y="358.4277">DescriptionGenerator</text><line style="stroke:#181818;stroke-width:0.5;" x1="716" x2="971.5059" y1="366.5039" y2="366.5039"/><line style="stroke:#181818;stroke-width:0.5;" x1="716" x2="971.5059" y1="374.5039" y2="374.5039"/><text fill="#000000" font-family="sans-serif" font-size="14" lengthAdjust="spacing" textLength="245.5059" x="721" y="392.5791">+generateDescription(rawEvent): String</text></g><!--class EventModel--><g class="entity" data-qualified-name="EventModel" data-source-line="38" id="ent0009"><rect fill="#F1F1F1" height="109.3066" rx="2.5" ry="2.5" style="stroke:#181818;stroke-width:0.5;" width="216.2441" x="409.5" y="654.6514"/><ellipse cx="476.4067" cy="675.5776" fill="#ADD1B2" rx="11" ry="11" style="stroke:#181818;stroke-width:1;"/><path d="M479.1724,671.4526 Q479.3286,671.2339 479.5161,671.1245 Q479.7036,671.0151 479.9224,671.0151 Q480.2974,671.0151 480.5317,671.2808 Q480.7661,671.5308 480.7661,672.1401 L480.7661,673.5933 Q480.7661,674.2026 480.5317,674.4683 Q480.2974,674.7339 479.9224,674.7339 Q479.5786,674.7339 479.3755,674.5308 Q479.1724,674.3433 479.063,673.8276 Q479.0161,673.4683 478.8286,673.2808 Q478.5005,672.9058 477.8911,672.687 Q477.2817,672.4683 476.6567,672.4683 Q475.8911,672.4683 475.2505,672.7964 Q474.6255,673.1245 474.1255,673.8745 Q473.6411,674.6245 473.6411,675.6558 L473.6411,676.7495 Q473.6411,677.9839 474.5317,678.812 Q475.4224,679.6245 477.0161,679.6245 Q477.9536,679.6245 478.6099,679.3745 Q479.0005,679.2183 479.4224,678.7808 Q479.688,678.5151 479.8286,678.437 Q479.9849,678.3589 480.188,678.3589 Q480.5161,678.3589 480.7661,678.6245 Q481.0317,678.8745 481.0317,679.2183 Q481.0317,679.562 480.688,679.9683 Q480.188,680.5464 479.3911,680.8745 Q478.313,681.3276 477.0161,681.3276 Q475.5005,681.3276 474.2974,680.7026 Q473.313,680.2026 472.6255,679.1401 Q471.938,678.062 471.938,676.7808 L471.938,675.6245 Q471.938,674.2964 472.5474,673.1558 Q473.1724,671.9995 474.2661,671.3901 Q475.3599,670.7651 476.5942,670.7651 Q477.3286,670.7651 477.9692,670.937 Q478.6255,671.0933 479.1724,671.4526 Z " fill="#000000"/><text fill="#000000" font-family="sans-serif" font-size="12" font-style="italic" lengthAdjust="spacing" textLength="46.0313" x="510.8564" y="671.7158">&#171;model&#187;</text><text fill="#000000" font-family="sans-serif" font-size="14" lengthAdjust="spacing" textLength="73.9307" x="496.9067" y="688.4277">EventModel</text><line style="stroke:#181818;stroke-width:0.5;" x1="410.5" x2="624.7441" y1="696.5039" y2="696.5039"/><line style="stroke:#181818;stroke-width:0.5;" x1="410.5" x2="624.7441" y1="704.5039" y2="704.5039"/><text fill="#000000" font-family="sans-serif" font-size="14" lengthAdjust="spacing" textLength="85.9824" x="415.5" y="722.5791">+insert(event)</text><text fill="#000000" font-family="sans-serif" font-size="14" lengthAdjust="spacing" textLength="164.582" x="415.5" y="739.7305">+findByCanonicalKey(key)</text><text fill="#000000" font-family="sans-serif" font-size="14" lengthAdjust="spacing" textLength="204.2441" x="415.5" y="756.8818">+insertOccurrence(eventId, time)</text></g><!--class VenueModel--><g class="entity" data-qualified-name="VenueModel" data-source-line="44" id="ent0010"><rect fill="#F1F1F1" height="75.0039" rx="2.5" ry="2.5" style="stroke:#181818;stroke-width:0.5;" width="110.6133" x="462" y="544.6514"/><ellipse cx="477" cy="565.5776" fill="#ADD1B2" rx="11" ry="11" style="stroke:#181818;stroke-width:1;"/><path d="M479.7656,561.4526 Q479.9219,561.2339 480.1094,561.1245 Q480.2969,561.0151 480.5156,561.0151 Q480.8906,561.0151 481.125,561.2808 Q481.3594,561.5308 481.3594,562.1401 L481.3594,563.5933 Q481.3594,564.2026 481.125,564.4683 Q480.8906,564.7339 480.5156,564.7339 Q480.1719,564.7339 479.9688,564.5308 Q479.7656,564.3433 479.6563,563.8276 Q479.6094,563.4683 479.4219,563.2808 Q479.0938,562.9058 478.4844,562.687 Q477.875,562.4683 477.25,562.4683 Q476.4844,562.4683 475.8438,562.7964 Q475.2188,563.1245 474.7188,563.8745 Q474.2344,564.6245 474.2344,565.6558 L474.2344,566.7495 Q474.2344,567.9839 475.125,568.812 Q476.0156,569.6245 477.6094,569.6245 Q478.5469,569.6245 479.2031,569.3745 Q479.5938,569.2183 480.0156,568.7808 Q480.2813,568.5151 480.4219,568.437 Q480.5781,568.3589 480.7813,568.3589 Q481.1094,568.3589 481.3594,568.6245 Q481.625,568.8745 481.625,569.2183 Q481.625,569.562 481.2813,569.9683 Q480.7813,570.5464 479.9844,570.8745 Q478.9063,571.3276 477.6094,571.3276 Q476.0938,571.3276 474.8906,570.7026 Q473.9063,570.2026 473.2188,569.1401 Q472.5313,568.062 472.5313,566.7808 L472.5313,565.6245 Q472.5313,564.2964 473.1406,563.1558 Q473.7656,561.9995 474.8594,561.3901 Q475.9531,560.7651 477.1875,560.7651 Q477.9219,560.7651 478.5625,560.937 Q479.2188,561.0933 479.7656,561.4526 Z " fill="#000000"/><text fill="#000000" font-family="sans-serif" font-size="12" font-style="italic" lengthAdjust="spacing" textLength="46.0313" x="507.291" y="561.7158">&#171;model&#187;</text><text fill="#000000" font-family="sans-serif" font-size="14" lengthAdjust="spacing" textLength="78.6133" x="491" y="578.4277">VenueModel</text><line style="stroke:#181818;stroke-width:0.5;" x1="463" x2="571.6133" y1="586.5039" y2="586.5039"/><line style="stroke:#181818;stroke-width:0.5;" x1="463" x2="571.6133" y1="594.5039" y2="594.5039"/><text fill="#000000" font-family="sans-serif" font-size="14" lengthAdjust="spacing" textLength="94.5547" x="468" y="612.5791">+upsert(venue)</text></g><!--class PostgreSQL--><g class="entity" data-qualified-name="PostgreSQL" data-source-line="48" id="ent0011"><rect fill="#F1F1F1" height="57.8525" rx="2.5" ry="2.5" style="stroke:#181818;stroke-width:0.5;" width="108.2617" x="790" y="616.1514"/><ellipse cx="805" cy="637.0776" fill="#ADD1B2" rx="11" ry="11" style="stroke:#181818;stroke-width:1;"/><path d="M807.7656,632.9526 Q807.9219,632.7339 808.1094,632.6245 Q808.2969,632.5151 808.5156,632.5151 Q808.8906,632.5151 809.125,632.7808 Q809.3594,633.0308 809.3594,633.6401 L809.3594,635.0933 Q809.3594,635.7026 809.125,635.9683 Q808.8906,636.2339 808.5156,636.2339 Q808.1719,636.2339 807.9688,636.0308 Q807.7656,635.8433 807.6563,635.3276 Q807.6094,634.9683 807.4219,634.7808 Q807.0938,634.4058 806.4844,634.187 Q805.875,633.9683 805.25,633.9683 Q804.4844,633.9683 803.8438,634.2964 Q803.2188,634.6245 802.7188,635.3745 Q802.2344,636.1245 802.2344,637.1558 L802.2344,638.2495 Q802.2344,639.4839 803.125,640.312 Q804.0156,641.1245 805.6094,641.1245 Q806.5469,641.1245 807.2031,640.8745 Q807.5938,640.7183 808.0156,640.2808 Q808.2813,640.0151 808.4219,639.937 Q808.5781,639.8589 808.7813,639.8589 Q809.1094,639.8589 809.3594,640.1245 Q809.625,640.3745 809.625,640.7183 Q809.625,641.062 809.2813,641.4683 Q808.7813,642.0464 807.9844,642.3745 Q806.9063,642.8276 805.6094,642.8276 Q804.0938,642.8276 802.8906,642.2026 Q801.9063,641.7026 801.2188,640.6401 Q800.5313,639.562 800.5313,638.2808 L800.5313,637.1245 Q800.5313,635.7964 801.1406,634.6558 Q801.7656,633.4995 802.8594,632.8901 Q803.9531,632.2651 805.1875,632.2651 Q805.9219,632.2651 806.5625,632.437 Q807.2188,632.5933 807.7656,632.9526 Z " fill="#000000"/><text fill="#000000" font-family="sans-serif" font-size="12" font-style="italic" lengthAdjust="spacing" textLength="62.7246" x="825.7686" y="633.2158">&#171;database&#187;</text><text fill="#000000" font-family="sans-serif" font-size="14" lengthAdjust="spacing" textLength="76.2617" x="819" y="649.9277">PostgreSQL</text><line style="stroke:#181818;stroke-width:0.5;" x1="791" x2="897.2617" y1="658.0039" y2="658.0039"/><line style="stroke:#181818;stroke-width:0.5;" x1="791" x2="897.2617" y1="666.0039" y2="666.0039"/></g><g class="entity" data-qualified-name="GMN22" data-source-line="62" id="ent0023"><path d="M9,172.1514 L9,229.9302 A0,0 0 0 0 9,229.9302 L317.5742,229.9302 A0,0 0 0 0 317.5742,229.9302 L317.5742,182.1514 L307.5742,172.1514 L168,172.1514 L164,137.1614 L160,172.1514 L9,172.1514 A0,0 0 0 0 9,172.1514" fill="#FEFFDD" style="stroke:#181818;stroke-width:0.5;"/><path d="M307.5742,172.1514 L307.5742,182.1514 L317.5742,182.1514 L307.5742,172.1514" fill="#FEFFDD" style="stroke:#181818;stroke-width:0.5;"/><text fill="#000000" font-family="sans-serif" font-size="13" lengthAdjust="spacing" textLength="284.6987" x="15" y="190.2212">Used when Ticketmaster is disabled, unavailable,</text><text fill="#000000" font-family="sans-serif" font-size="13" lengthAdjust="spacing" textLength="287.5742" x="15" y="206.1475">rate-limited, or returns invalid data. Both providers</text><text fill="#000000" font-family="sans-serif" font-size="13" lengthAdjust="spacing" textLength="283.9624" x="15" y="222.0737">must produce the same normalized Event format.</text></g><g class="entity" data-qualified-name="GMN25" data-source-line="68" id="ent0026"><path d="M8,553.1514 L8,610.9302 A0,0 0 0 0 8,610.9302 L319.4624,610.9302 A0,0 0 0 0 319.4624,610.9302 L319.4624,563.1514 L309.4624,553.1514 L168,553.1514 L164,518.1614 L160,553.1514 L8,553.1514 A0,0 0 0 0 8,553.1514" fill="#FEFFDD" style="stroke:#181818;stroke-width:0.5;"/><path d="M309.4624,553.1514 L309.4624,563.1514 L319.4624,563.1514 L309.4624,553.1514" fill="#FEFFDD" style="stroke:#181818;stroke-width:0.5;"/><text fill="#000000" font-family="sans-serif" font-size="13" lengthAdjust="spacing" textLength="290.4624" x="14" y="571.2212">eventsServices.js currently contains handleSync().</text><text fill="#000000" font-family="sans-serif" font-size="13" lengthAdjust="spacing" textLength="273.1523" x="14" y="587.1475">The provider-selection operation represents the</text><text fill="#000000" font-family="sans-serif" font-size="13" lengthAdjust="spacing" textLength="278.9414" x="14" y="603.0737">fallback behavior required by the revised design.</text></g><!--link TicketmasterServices to EventDataProvider--><g class="link" data-entity-1="ent0003" data-entity-2="ent0002" data-link-type="extension" data-source-line="50" id="lnk12"><path codeLine="50" d="M320.06,273.6514 C344.3,273.6514 351.07,273.6514 374.5,273.6514" fill="none" id="TicketmasterServices-to-EventDataProvider" style="stroke:#181818;stroke-width:1;stroke-dasharray:7,7;"/><polygon fill="none" points="392.5,273.6514,374.5,267.6514,374.5,279.6514,392.5,273.6514" style="stroke:#181818;stroke-width:1;"/></g><!--link MockEventProvider to EventDataProvider--><g class="link" data-entity-1="ent0004" data-entity-2="ent0002" data-link-type="extension" data-source-line="51" id="lnk13"><path codeLine="51" d="M288.98,91.1514 C390.96,91.1514 518,91.1514 518,91.1514 C518,91.1514 518,148.8214 518,196.4014" fill="none" id="MockEventProvider-to-EventDataProvider" style="stroke:#181818;stroke-width:1;stroke-dasharray:7,7;"/><polygon fill="none" points="518,214.4014,524,196.4014,512,196.4014,518,214.4014" style="stroke:#181818;stroke-width:1;"/></g><!--link EventSyncService to EventDataProvider--><g class="link" data-entity-1="ent0005" data-entity-2="ent0002" data-link-type="dependency" data-source-line="52" id="lnk14"><path codeLine="52" d="M283.72,428.9814 C319.81,428.9814 350,428.9814 350,428.9814 C350,428.9814 350,281.6514 350,281.6514 C350,281.6514 362.03,281.6514 386.27,281.6514" fill="none" id="EventSyncService-to-EventDataProvider" style="stroke:#181818;stroke-width:1;"/><polygon fill="#181818" points="392.27,281.6514,383.27,277.6514,387.27,281.6514,383.27,285.6514,392.27,281.6514" style="stroke:#181818;stroke-width:1;"/><text fill="#000000" font-family="sans-serif" font-size="13" lengthAdjust="spacing" textLength="40.46" x="309" y="381.3912">selects</text></g><!--link EventSyncService to CanonicalKeyGenerator--><g class="link" data-entity-1="ent0005" data-entity-2="ent0007" data-link-type="dependency" data-source-line="53" id="lnk15"><path codeLine="53" d="M283.84,472.1514 C314.91,472.1514 342.58,472.1514 374.43,472.1514" fill="none" id="EventSyncService-to-CanonicalKeyGenerator" style="stroke:#181818;stroke-width:1;"/><polygon fill="#181818" points="380.43,472.1514,371.43,468.1514,375.43,472.1514,371.43,476.1514,380.43,472.1514" style="stroke:#181818;stroke-width:1;"/></g><!--link EventSyncService to EventNormalizer--><g class="link" data-entity-1="ent0005" data-entity-2="ent0006" data-link-type="dependency" data-source-line="54" id="lnk16"><path codeLine="54" d="M283.52,431.8214 C386.36,431.8214 518,431.8214 518,431.8214 C518,431.8214 518,422.2514 518,405.8414" fill="none" id="EventSyncService-to-EventNormalizer" style="stroke:#181818;stroke-width:1;"/><polygon fill="#181818" points="518,399.8414,514,408.8414,518,404.8414,522,408.8414,518,399.8414" style="stroke:#181818;stroke-width:1;"/></g><!--link EventNormalizer to DescriptionGenerator--><g class="link" data-entity-1="ent0006" data-entity-2="ent0008" data-link-type="dependency" data-source-line="55" id="lnk17"><path codeLine="55" d="M655.02,362.1514 C674.89,362.1514 689.28,362.1514 708.97,362.1514" fill="none" id="EventNormalizer-to-DescriptionGenerator" style="stroke:#181818;stroke-width:1;"/><polygon fill="#181818" points="714.97,362.1514,705.97,358.1514,709.97,362.1514,705.97,366.1514,714.97,362.1514" style="stroke:#181818;stroke-width:1;"/></g><!--link EventSyncService to EventModel--><g class="link" data-entity-1="ent0005" data-entity-2="ent0009" data-link-type="dependency" data-source-line="56" id="lnk18"><path codeLine="56" d="M283.82,515.3214 C356.81,515.3214 436,515.3214 436,515.3214 C436,515.3214 436,591.3114 436,648.6414" fill="none" id="EventSyncService-to-EventModel" style="stroke:#181818;stroke-width:1;"/><polygon fill="#181818" points="436,654.6414,440,645.6414,436,649.6414,432,645.6414,436,654.6414" style="stroke:#181818;stroke-width:1;"/></g><!--link EventSyncService to VenueModel--><g class="link" data-entity-1="ent0005" data-entity-2="ent0010" data-link-type="dependency" data-source-line="57" id="lnk19"><path codeLine="57" d="M283.52,512.4814 C386.36,512.4814 518,512.4814 518,512.4814 C518,512.4814 518,522.0514 518,538.4614" fill="none" id="EventSyncService-to-VenueModel" style="stroke:#181818;stroke-width:1;"/><polygon fill="#181818" points="518,544.4614,522,535.4614,518,539.4614,514,535.4614,518,544.4614" style="stroke:#181818;stroke-width:1;"/></g><!--link EventModel to PostgreSQL--><g class="link" data-entity-1="ent0009" data-entity-2="ent0011" data-link-type="dependency" data-source-line="58" id="lnk20"><path codeLine="58" d="M625.77,664.4014 C680.71,664.4014 739.07,664.4014 783.59,664.4014" fill="none" id="EventModel-to-PostgreSQL" style="stroke:#181818;stroke-width:1;"/><polygon fill="#181818" points="789.59,664.4014,780.59,660.4014,784.59,664.4014,780.59,668.4014,789.59,664.4014" style="stroke:#181818;stroke-width:1;"/></g><!--link VenueModel to PostgreSQL--><g class="link" data-entity-1="ent0010" data-entity-2="ent0011" data-link-type="dependency" data-source-line="59" id="lnk21"><path codeLine="59" d="M518,619.7514 C518,629.4214 518,637.1514 518,637.1514 C518,637.1514 691.1,637.1514 783.8,637.1514" fill="none" id="VenueModel-to-PostgreSQL" style="stroke:#181818;stroke-width:1;"/><polygon fill="#181818" points="789.8,637.1514,780.8,633.1514,784.8,637.1514,780.8,641.1514,789.8,637.1514" style="stroke:#181818;stroke-width:1;"/></g><?plantuml-src bLLBSzCm4BxhL-mn6PeCvzBfJ4iPfWE5CYbS60woj8b5PCb8QnVp-E-ixCHs4xTJVB4Ukz-tZyzhCcGHtjJew4OIhtuI1YTjTmHNaYIigYmsaR201Qn8ab7y2fMYAg0GSMjSAOCiG5aPumLHC5b5UAsyMvbV22z79Z6NsjyRju6rj157DzOufAP4y85oBook2SX3C9kSG9k0YentGXZ70QwbsWMT0hmDlZOQ0voTbVibarEGYixFuRS0Vbu4vC2mnjOjpjfWpTeecN3dfntSrs_Yhn3j7TmPjKKg96SULXXgep0o1UuhT75x3LBBahS3onf9vMFFPzFTUBLj3qVfS95i9jKMzdczWj9Avr3_VrwjiVLIzqHnDXL7Ux1gdDhbp674RZLmvj9fYydeW2_EMuD5HCiDssVIyuoxTS3umOT2MjPBojlrcu6pFslDPq7UjuiJKD9vn_ps7JRp0VNrwFWjEWoIVCAko5X3pG2ywIvnxD33S-IiTHRi07o5KGLJfdIVXJkoVmgs-mQzHijWHNeFKCPn2sY6hUjEQCRfo-P1pDkK_yZ-er9L2EWKTfxN-WJ853WgqXTq5Jv2MfKjQPrCHYwtFj8cuEhJUtRHtD1CHfQ649FVotBvvtoYzyTYVyJmI8sBnOGPd4Adk3ZjCAc59x07COf3SIQRAGKyWTRMT_f-gByOzJ_T36KMeoOTt0ZdUMPddiWNuDV7CqHyZgZXFaVtO9o1YJnJeymiiYOg9sjfRDgTYAJOXJM5eNJ5okRvKWKNmRYQIw0XjNm9bvxoVYf5KLIHqbPNd1Zb254M2FqdgtU_atKweAL0fo65VfJ0OP54AzoubzFoUuHEqsIRTiPBbZgCnj5yAUwOVX_PRX1ney2NgL5f5R0C61Dk2bNqGpR3NDQcJVb7nNyS3LdJ9XEmDgcE6gFPk57u_m00?></g></svg>